G75*
%MOIN*%
%OFA0B0*%
%FSLAX25Y25*%
%IPPOS*%
%LPD*%
%AMOC8*
5,1,8,0,0,1.08239X$1,22.5*
%
%ADD10C,0.05200*%
%ADD11C,0.05346*%
%ADD12C,0.04165*%
%ADD13R,0.05906X0.05906*%
%ADD14R,0.04724X0.07087*%
%ADD15C,0.00600*%
%ADD16C,0.02978*%
D10*
X0118854Y0121684D02*
X0118854Y0126884D01*
X0128696Y0126884D02*
X0128696Y0121684D01*
X0138539Y0121684D02*
X0138539Y0126884D01*
D11*
X0143366Y0113023D02*
X0143366Y0107676D01*
X0114036Y0107676D02*
X0114036Y0113023D01*
D12*
X0113445Y0097471D02*
X0113445Y0093306D01*
X0143957Y0093306D02*
X0143957Y0097471D01*
D13*
X0198701Y0107499D03*
X0198701Y0121278D03*
X0198701Y0168499D03*
X0198701Y0182278D03*
X0058701Y0182278D03*
X0058701Y0168499D03*
X0058701Y0121278D03*
X0058701Y0107499D03*
D14*
X0058701Y0128987D03*
X0058701Y0140790D03*
X0058701Y0148987D03*
X0058701Y0160790D03*
X0077701Y0150790D03*
X0077701Y0138987D03*
X0198701Y0140790D03*
X0198701Y0148987D03*
X0198701Y0160790D03*
X0198701Y0128987D03*
D15*
X0032101Y0091286D02*
X0032101Y0203447D01*
X0226801Y0202952D01*
X0226801Y0090791D01*
X0146430Y0090995D01*
X0146584Y0091150D01*
X0146954Y0091704D01*
X0147209Y0092319D01*
X0147339Y0092973D01*
X0147339Y0095147D01*
X0144198Y0095147D01*
X0144198Y0095630D01*
X0143715Y0095630D01*
X0143715Y0095147D01*
X0140574Y0095147D01*
X0140574Y0092973D01*
X0140704Y0092319D01*
X0140959Y0091704D01*
X0141329Y0091150D01*
X0141471Y0091008D01*
X0115996Y0091073D01*
X0116072Y0091150D01*
X0116443Y0091704D01*
X0116698Y0092319D01*
X0116828Y0092973D01*
X0116828Y0095147D01*
X0113686Y0095147D01*
X0113686Y0095630D01*
X0113204Y0095630D01*
X0113204Y0100854D01*
X0113112Y0100854D01*
X0112458Y0100724D01*
X0111843Y0100469D01*
X0111289Y0100099D01*
X0110817Y0099628D01*
X0110447Y0099074D01*
X0110192Y0098458D01*
X0110062Y0097804D01*
X0110062Y0095630D01*
X0113204Y0095630D01*
X0113204Y0095147D01*
X0110062Y0095147D01*
X0110062Y0092973D01*
X0110192Y0092319D01*
X0110447Y0091704D01*
X0110817Y0091150D01*
X0110881Y0091086D01*
X0032101Y0091286D01*
X0032101Y0091586D02*
X0110526Y0091586D01*
X0110248Y0092184D02*
X0032101Y0092184D01*
X0032101Y0092783D02*
X0110100Y0092783D01*
X0110062Y0093381D02*
X0032101Y0093381D01*
X0032101Y0093980D02*
X0110062Y0093980D01*
X0110062Y0094578D02*
X0032101Y0094578D01*
X0032101Y0095177D02*
X0113204Y0095177D01*
X0113686Y0095177D02*
X0143715Y0095177D01*
X0143715Y0095630D02*
X0140574Y0095630D01*
X0140574Y0097804D01*
X0140704Y0098458D01*
X0140959Y0099074D01*
X0141329Y0099628D01*
X0141800Y0100099D01*
X0142354Y0100469D01*
X0142970Y0100724D01*
X0143624Y0100854D01*
X0143715Y0100854D01*
X0143715Y0095630D01*
X0143715Y0095775D02*
X0144198Y0095775D01*
X0144198Y0095630D02*
X0144198Y0100854D01*
X0144290Y0100854D01*
X0144943Y0100724D01*
X0145559Y0100469D01*
X0146113Y0100099D01*
X0146584Y0099628D01*
X0146954Y0099074D01*
X0147209Y0098458D01*
X0147339Y0097804D01*
X0147339Y0095630D01*
X0144198Y0095630D01*
X0144198Y0095177D02*
X0226801Y0095177D01*
X0226801Y0095775D02*
X0147339Y0095775D01*
X0147339Y0096374D02*
X0226801Y0096374D01*
X0226801Y0096972D02*
X0147339Y0096972D01*
X0147339Y0097571D02*
X0226801Y0097571D01*
X0226801Y0098169D02*
X0147267Y0098169D01*
X0147081Y0098768D02*
X0226801Y0098768D01*
X0226801Y0099366D02*
X0146759Y0099366D01*
X0146247Y0099965D02*
X0226801Y0099965D01*
X0226801Y0100563D02*
X0145331Y0100563D01*
X0144198Y0100563D02*
X0143715Y0100563D01*
X0143715Y0099965D02*
X0144198Y0099965D01*
X0144198Y0099366D02*
X0143715Y0099366D01*
X0143715Y0098768D02*
X0144198Y0098768D01*
X0144198Y0098169D02*
X0143715Y0098169D01*
X0143715Y0097571D02*
X0144198Y0097571D01*
X0144198Y0096972D02*
X0143715Y0096972D01*
X0143715Y0096374D02*
X0144198Y0096374D01*
X0140574Y0096374D02*
X0116828Y0096374D01*
X0116828Y0096972D02*
X0140574Y0096972D01*
X0140574Y0097571D02*
X0116828Y0097571D01*
X0116828Y0097804D02*
X0116698Y0098458D01*
X0116443Y0099074D01*
X0116072Y0099628D01*
X0115601Y0100099D01*
X0115047Y0100469D01*
X0114432Y0100724D01*
X0113778Y0100854D01*
X0113686Y0100854D01*
X0113686Y0095630D01*
X0116828Y0095630D01*
X0116828Y0097804D01*
X0116755Y0098169D02*
X0140647Y0098169D01*
X0140832Y0098768D02*
X0116569Y0098768D01*
X0116247Y0099366D02*
X0141155Y0099366D01*
X0141666Y0099965D02*
X0115735Y0099965D01*
X0114820Y0100563D02*
X0142582Y0100563D01*
X0142975Y0103703D02*
X0143066Y0103703D01*
X0143066Y0110049D01*
X0143666Y0110049D01*
X0143666Y0103703D01*
X0143758Y0103703D01*
X0144525Y0103856D01*
X0145248Y0104155D01*
X0145899Y0104590D01*
X0146452Y0105143D01*
X0146887Y0105794D01*
X0147187Y0106517D01*
X0147339Y0107285D01*
X0147339Y0110049D01*
X0143666Y0110049D01*
X0143666Y0110649D01*
X0147339Y0110649D01*
X0147339Y0113414D01*
X0147187Y0114181D01*
X0146887Y0114905D01*
X0146452Y0115555D01*
X0145899Y0116109D01*
X0145248Y0116544D01*
X0144525Y0116843D01*
X0143758Y0116996D01*
X0143666Y0116996D01*
X0143666Y0110649D01*
X0143066Y0110649D01*
X0143066Y0110049D01*
X0139393Y0110049D01*
X0139393Y0108542D01*
X0139036Y0108690D01*
X0138051Y0108690D01*
X0137142Y0108313D01*
X0136445Y0107617D01*
X0136069Y0106708D01*
X0136069Y0105723D01*
X0136445Y0104814D01*
X0137142Y0104117D01*
X0138051Y0103741D01*
X0139036Y0103741D01*
X0139945Y0104117D01*
X0140626Y0104798D01*
X0140833Y0104590D01*
X0141484Y0104155D01*
X0142207Y0103856D01*
X0142975Y0103703D01*
X0143066Y0104154D02*
X0143666Y0104154D01*
X0143666Y0104753D02*
X0143066Y0104753D01*
X0143066Y0105351D02*
X0143666Y0105351D01*
X0143666Y0105950D02*
X0143066Y0105950D01*
X0143066Y0106548D02*
X0143666Y0106548D01*
X0143666Y0107147D02*
X0143066Y0107147D01*
X0143066Y0107745D02*
X0143666Y0107745D01*
X0143666Y0108344D02*
X0143066Y0108344D01*
X0143066Y0108942D02*
X0143666Y0108942D01*
X0143666Y0109541D02*
X0143066Y0109541D01*
X0143066Y0110140D02*
X0114336Y0110140D01*
X0114336Y0110049D02*
X0114336Y0110649D01*
X0118009Y0110649D01*
X0118009Y0113414D01*
X0117856Y0114181D01*
X0117557Y0114905D01*
X0117122Y0115555D01*
X0116568Y0116109D01*
X0115918Y0116544D01*
X0115194Y0116843D01*
X0114427Y0116996D01*
X0114335Y0116996D01*
X0114335Y0110649D01*
X0113736Y0110649D01*
X0113736Y0116996D01*
X0113644Y0116996D01*
X0112877Y0116843D01*
X0112153Y0116544D01*
X0111503Y0116109D01*
X0110949Y0115555D01*
X0110514Y0114905D01*
X0110215Y0114181D01*
X0110062Y0113414D01*
X0110062Y0110649D01*
X0113735Y0110649D01*
X0113735Y0110049D01*
X0110062Y0110049D01*
X0110062Y0107285D01*
X0110215Y0106517D01*
X0110514Y0105794D01*
X0110949Y0105143D01*
X0111503Y0104590D01*
X0112153Y0104155D01*
X0112877Y0103856D01*
X0113644Y0103703D01*
X0113736Y0103703D01*
X0113736Y0110049D01*
X0114335Y0110049D01*
X0114335Y0103703D01*
X0114427Y0103703D01*
X0115194Y0103856D01*
X0115918Y0104155D01*
X0116568Y0104590D01*
X0116776Y0104798D01*
X0117456Y0104117D01*
X0118366Y0103741D01*
X0119351Y0103741D01*
X0120260Y0104117D01*
X0120956Y0104814D01*
X0121333Y0105723D01*
X0121333Y0106708D01*
X0120956Y0107617D01*
X0120260Y0108313D01*
X0119351Y0108690D01*
X0118366Y0108690D01*
X0118009Y0108542D01*
X0118009Y0110049D01*
X0114336Y0110049D01*
X0114335Y0109541D02*
X0113736Y0109541D01*
X0113736Y0108942D02*
X0114335Y0108942D01*
X0114335Y0108344D02*
X0113736Y0108344D01*
X0113736Y0107745D02*
X0114335Y0107745D01*
X0114335Y0107147D02*
X0113736Y0107147D01*
X0113736Y0106548D02*
X0114335Y0106548D01*
X0114335Y0105950D02*
X0113736Y0105950D01*
X0113736Y0105351D02*
X0114335Y0105351D01*
X0114335Y0104753D02*
X0113736Y0104753D01*
X0113736Y0104154D02*
X0114335Y0104154D01*
X0115916Y0104154D02*
X0117419Y0104154D01*
X0116821Y0104753D02*
X0116731Y0104753D01*
X0120297Y0104154D02*
X0137104Y0104154D01*
X0136506Y0104753D02*
X0120896Y0104753D01*
X0121179Y0105351D02*
X0136223Y0105351D01*
X0136069Y0105950D02*
X0121333Y0105950D01*
X0121333Y0106548D02*
X0136069Y0106548D01*
X0136251Y0107147D02*
X0121151Y0107147D01*
X0120828Y0107745D02*
X0136574Y0107745D01*
X0137215Y0108344D02*
X0120186Y0108344D01*
X0118009Y0108942D02*
X0139393Y0108942D01*
X0139393Y0109541D02*
X0118009Y0109541D01*
X0118009Y0110738D02*
X0139393Y0110738D01*
X0139393Y0110649D02*
X0143066Y0110649D01*
X0143066Y0116996D01*
X0142975Y0116996D01*
X0142207Y0116843D01*
X0141484Y0116544D01*
X0140833Y0116109D01*
X0140280Y0115555D01*
X0139845Y0114905D01*
X0139546Y0114181D01*
X0139393Y0113414D01*
X0139393Y0110649D01*
X0139393Y0111337D02*
X0118009Y0111337D01*
X0118009Y0111935D02*
X0139393Y0111935D01*
X0139393Y0112534D02*
X0118009Y0112534D01*
X0118009Y0113132D02*
X0139393Y0113132D01*
X0139456Y0113731D02*
X0117946Y0113731D01*
X0117795Y0114329D02*
X0139607Y0114329D01*
X0139861Y0114928D02*
X0117541Y0114928D01*
X0117141Y0115526D02*
X0140261Y0115526D01*
X0140857Y0116125D02*
X0116544Y0116125D01*
X0115484Y0116723D02*
X0141918Y0116723D01*
X0143066Y0116723D02*
X0143666Y0116723D01*
X0143666Y0116125D02*
X0143066Y0116125D01*
X0143066Y0115526D02*
X0143666Y0115526D01*
X0143666Y0114928D02*
X0143066Y0114928D01*
X0143066Y0114329D02*
X0143666Y0114329D01*
X0143666Y0113731D02*
X0143066Y0113731D01*
X0143066Y0113132D02*
X0143666Y0113132D01*
X0143666Y0112534D02*
X0143066Y0112534D01*
X0143066Y0111935D02*
X0143666Y0111935D01*
X0143666Y0111337D02*
X0143066Y0111337D01*
X0143066Y0110738D02*
X0143666Y0110738D01*
X0143666Y0110140D02*
X0194848Y0110140D01*
X0194848Y0110738D02*
X0147339Y0110738D01*
X0147339Y0111337D02*
X0195360Y0111337D01*
X0195375Y0111352D02*
X0194848Y0110824D01*
X0194848Y0104173D01*
X0195375Y0103646D01*
X0202026Y0103646D01*
X0202554Y0104173D01*
X0202554Y0106299D01*
X0204808Y0106299D01*
X0206698Y0108189D01*
X0207401Y0108892D01*
X0207401Y0179886D01*
X0206698Y0180589D01*
X0203808Y0183478D01*
X0202554Y0183478D01*
X0202554Y0185604D01*
X0202026Y0186131D01*
X0195375Y0186131D01*
X0194848Y0185604D01*
X0194848Y0183478D01*
X0062554Y0183478D01*
X0062554Y0185604D01*
X0062026Y0186131D01*
X0055375Y0186131D01*
X0054848Y0185604D01*
X0054848Y0183478D01*
X0053594Y0183478D01*
X0050704Y0180589D01*
X0050001Y0179886D01*
X0050001Y0164067D01*
X0048812Y0162878D01*
X0048812Y0160899D01*
X0050001Y0159710D01*
X0050001Y0108892D01*
X0050704Y0108189D01*
X0052594Y0106299D01*
X0054848Y0106299D01*
X0054848Y0104173D01*
X0055375Y0103646D01*
X0062026Y0103646D01*
X0062554Y0104173D01*
X0062554Y0110824D01*
X0062026Y0111352D01*
X0055375Y0111352D01*
X0054848Y0110824D01*
X0054848Y0108699D01*
X0053588Y0108699D01*
X0052401Y0109886D01*
X0052401Y0159710D01*
X0053590Y0160899D01*
X0053590Y0162878D01*
X0052401Y0164067D01*
X0052401Y0178892D01*
X0054588Y0181078D01*
X0054848Y0181078D01*
X0054848Y0178953D01*
X0055375Y0178426D01*
X0062026Y0178426D01*
X0062554Y0178953D01*
X0062554Y0181078D01*
X0194848Y0181078D01*
X0194848Y0178953D01*
X0195375Y0178426D01*
X0202026Y0178426D01*
X0202554Y0178953D01*
X0202554Y0181078D01*
X0202814Y0181078D01*
X0205001Y0178892D01*
X0205001Y0109886D01*
X0203814Y0108699D01*
X0202554Y0108699D01*
X0202554Y0110824D01*
X0202026Y0111352D01*
X0195375Y0111352D01*
X0194848Y0109541D02*
X0147339Y0109541D01*
X0147339Y0108942D02*
X0194848Y0108942D01*
X0194848Y0108344D02*
X0147339Y0108344D01*
X0147339Y0107745D02*
X0194848Y0107745D01*
X0194848Y0107147D02*
X0147312Y0107147D01*
X0147193Y0106548D02*
X0194848Y0106548D01*
X0194848Y0105950D02*
X0146952Y0105950D01*
X0146592Y0105351D02*
X0194848Y0105351D01*
X0194848Y0104753D02*
X0146062Y0104753D01*
X0145247Y0104154D02*
X0194867Y0104154D01*
X0198701Y0107499D02*
X0204311Y0107499D01*
X0206201Y0109389D01*
X0206201Y0179389D01*
X0203311Y0182278D01*
X0198701Y0182278D01*
X0058701Y0182278D01*
X0054091Y0182278D01*
X0051201Y0179389D01*
X0051201Y0161889D01*
X0051201Y0109389D01*
X0053091Y0107499D01*
X0058701Y0107499D01*
X0062554Y0107745D02*
X0078812Y0107745D01*
X0078812Y0107878D02*
X0078812Y0105899D01*
X0080211Y0104500D01*
X0082190Y0104500D01*
X0083590Y0105899D01*
X0083590Y0107878D01*
X0082401Y0109067D01*
X0082401Y0125886D01*
X0076757Y0131530D01*
X0078901Y0133674D01*
X0078901Y0134544D01*
X0080436Y0134544D01*
X0080963Y0135071D01*
X0080963Y0142903D01*
X0080436Y0143430D01*
X0074966Y0143430D01*
X0074439Y0142903D01*
X0074439Y0135071D01*
X0074966Y0134544D01*
X0076376Y0134544D01*
X0075060Y0133227D01*
X0066296Y0141990D01*
X0061963Y0141990D01*
X0061963Y0144706D01*
X0061781Y0144889D01*
X0061963Y0145071D01*
X0061963Y0147787D01*
X0065296Y0147787D01*
X0069198Y0151689D01*
X0069901Y0152392D01*
X0069901Y0156363D01*
X0069929Y0156392D01*
X0069929Y0157386D01*
X0069901Y0157414D01*
X0069901Y0169892D01*
X0074198Y0174189D01*
X0183204Y0174189D01*
X0187501Y0169892D01*
X0187501Y0152392D01*
X0188204Y0151689D01*
X0192105Y0147787D01*
X0195439Y0147787D01*
X0195439Y0145071D01*
X0195621Y0144889D01*
X0195439Y0144706D01*
X0195439Y0136874D01*
X0195966Y0136347D01*
X0201436Y0136347D01*
X0201963Y0136874D01*
X0201963Y0144706D01*
X0201781Y0144889D01*
X0201963Y0145071D01*
X0201963Y0152903D01*
X0201436Y0153430D01*
X0195966Y0153430D01*
X0195439Y0152903D01*
X0195439Y0150187D01*
X0193099Y0150187D01*
X0189901Y0153386D01*
X0189901Y0170886D01*
X0189198Y0171589D01*
X0184198Y0176589D01*
X0073204Y0176589D01*
X0072501Y0175886D01*
X0067501Y0170886D01*
X0067501Y0153386D01*
X0064302Y0150187D01*
X0061963Y0150187D01*
X0061963Y0152903D01*
X0061436Y0153430D01*
X0055966Y0153430D01*
X0055439Y0152903D01*
X0055439Y0145071D01*
X0055621Y0144889D01*
X0055439Y0144706D01*
X0055439Y0136874D01*
X0055966Y0136347D01*
X0061436Y0136347D01*
X0061963Y0136874D01*
X0061963Y0139590D01*
X0065302Y0139590D01*
X0073860Y0131033D01*
X0074563Y0130330D01*
X0080001Y0124892D01*
X0080001Y0109067D01*
X0078812Y0107878D01*
X0079278Y0108344D02*
X0062554Y0108344D01*
X0062554Y0108942D02*
X0079876Y0108942D01*
X0080001Y0109541D02*
X0062554Y0109541D01*
X0062554Y0110140D02*
X0080001Y0110140D01*
X0080001Y0110738D02*
X0062554Y0110738D01*
X0062041Y0111337D02*
X0080001Y0111337D01*
X0080001Y0111935D02*
X0052401Y0111935D01*
X0052401Y0111337D02*
X0055360Y0111337D01*
X0054848Y0110738D02*
X0052401Y0110738D01*
X0052401Y0110140D02*
X0054848Y0110140D01*
X0054848Y0109541D02*
X0052746Y0109541D01*
X0053344Y0108942D02*
X0054848Y0108942D01*
X0052344Y0106548D02*
X0032101Y0106548D01*
X0032101Y0105950D02*
X0054848Y0105950D01*
X0054848Y0105351D02*
X0032101Y0105351D01*
X0032101Y0104753D02*
X0054848Y0104753D01*
X0054867Y0104154D02*
X0032101Y0104154D01*
X0032101Y0103556D02*
X0226801Y0103556D01*
X0226801Y0104154D02*
X0202535Y0104154D01*
X0202554Y0104753D02*
X0226801Y0104753D01*
X0226801Y0105351D02*
X0202554Y0105351D01*
X0202554Y0105950D02*
X0226801Y0105950D01*
X0226801Y0106548D02*
X0205058Y0106548D01*
X0205656Y0107147D02*
X0226801Y0107147D01*
X0226801Y0107745D02*
X0206255Y0107745D01*
X0206853Y0108344D02*
X0226801Y0108344D01*
X0226801Y0108942D02*
X0207401Y0108942D01*
X0207401Y0109541D02*
X0226801Y0109541D01*
X0226801Y0110140D02*
X0207401Y0110140D01*
X0207401Y0110738D02*
X0226801Y0110738D01*
X0226801Y0111337D02*
X0207401Y0111337D01*
X0207401Y0111935D02*
X0226801Y0111935D01*
X0226801Y0112534D02*
X0207401Y0112534D01*
X0207401Y0113132D02*
X0226801Y0113132D01*
X0226801Y0113731D02*
X0207401Y0113731D01*
X0207401Y0114329D02*
X0226801Y0114329D01*
X0226801Y0114928D02*
X0207401Y0114928D01*
X0207401Y0115526D02*
X0226801Y0115526D01*
X0226801Y0116125D02*
X0207401Y0116125D01*
X0207401Y0116723D02*
X0226801Y0116723D01*
X0226801Y0117322D02*
X0207401Y0117322D01*
X0207401Y0117920D02*
X0226801Y0117920D01*
X0226801Y0118519D02*
X0207401Y0118519D01*
X0207401Y0119117D02*
X0226801Y0119117D01*
X0226801Y0119716D02*
X0207401Y0119716D01*
X0207401Y0120314D02*
X0226801Y0120314D01*
X0226801Y0120913D02*
X0207401Y0120913D01*
X0207401Y0121511D02*
X0226801Y0121511D01*
X0226801Y0122110D02*
X0207401Y0122110D01*
X0207401Y0122708D02*
X0226801Y0122708D01*
X0226801Y0123307D02*
X0207401Y0123307D01*
X0207401Y0123905D02*
X0226801Y0123905D01*
X0226801Y0124504D02*
X0207401Y0124504D01*
X0207401Y0125102D02*
X0226801Y0125102D01*
X0226801Y0125701D02*
X0207401Y0125701D01*
X0207401Y0126299D02*
X0226801Y0126299D01*
X0226801Y0126898D02*
X0207401Y0126898D01*
X0207401Y0127496D02*
X0226801Y0127496D01*
X0226801Y0128095D02*
X0207401Y0128095D01*
X0207401Y0128693D02*
X0226801Y0128693D01*
X0226801Y0129292D02*
X0207401Y0129292D01*
X0207401Y0129890D02*
X0226801Y0129890D01*
X0226801Y0130489D02*
X0207401Y0130489D01*
X0207401Y0131087D02*
X0226801Y0131087D01*
X0226801Y0131686D02*
X0207401Y0131686D01*
X0207401Y0132284D02*
X0226801Y0132284D01*
X0226801Y0132883D02*
X0207401Y0132883D01*
X0207401Y0133481D02*
X0226801Y0133481D01*
X0226801Y0134080D02*
X0207401Y0134080D01*
X0207401Y0134678D02*
X0226801Y0134678D01*
X0226801Y0135277D02*
X0207401Y0135277D01*
X0207401Y0135876D02*
X0226801Y0135876D01*
X0226801Y0136474D02*
X0207401Y0136474D01*
X0207401Y0137073D02*
X0226801Y0137073D01*
X0226801Y0137671D02*
X0207401Y0137671D01*
X0207401Y0138270D02*
X0226801Y0138270D01*
X0226801Y0138868D02*
X0207401Y0138868D01*
X0207401Y0139467D02*
X0226801Y0139467D01*
X0226801Y0140065D02*
X0207401Y0140065D01*
X0207401Y0140664D02*
X0226801Y0140664D01*
X0226801Y0141262D02*
X0207401Y0141262D01*
X0207401Y0141861D02*
X0226801Y0141861D01*
X0226801Y0142459D02*
X0207401Y0142459D01*
X0207401Y0143058D02*
X0226801Y0143058D01*
X0226801Y0143656D02*
X0207401Y0143656D01*
X0207401Y0144255D02*
X0226801Y0144255D01*
X0226801Y0144853D02*
X0207401Y0144853D01*
X0207401Y0145452D02*
X0226801Y0145452D01*
X0226801Y0146050D02*
X0207401Y0146050D01*
X0207401Y0146649D02*
X0226801Y0146649D01*
X0226801Y0147247D02*
X0207401Y0147247D01*
X0207401Y0147846D02*
X0226801Y0147846D01*
X0226801Y0148444D02*
X0207401Y0148444D01*
X0207401Y0149043D02*
X0226801Y0149043D01*
X0226801Y0149641D02*
X0207401Y0149641D01*
X0207401Y0150240D02*
X0226801Y0150240D01*
X0226801Y0150838D02*
X0207401Y0150838D01*
X0207401Y0151437D02*
X0226801Y0151437D01*
X0226801Y0152035D02*
X0207401Y0152035D01*
X0207401Y0152634D02*
X0226801Y0152634D01*
X0226801Y0153232D02*
X0207401Y0153232D01*
X0207401Y0153831D02*
X0226801Y0153831D01*
X0226801Y0154429D02*
X0207401Y0154429D01*
X0207401Y0155028D02*
X0226801Y0155028D01*
X0226801Y0155626D02*
X0207401Y0155626D01*
X0207401Y0156225D02*
X0226801Y0156225D01*
X0226801Y0156823D02*
X0207401Y0156823D01*
X0207401Y0157422D02*
X0226801Y0157422D01*
X0226801Y0158020D02*
X0207401Y0158020D01*
X0207401Y0158619D02*
X0226801Y0158619D01*
X0226801Y0159217D02*
X0207401Y0159217D01*
X0207401Y0159816D02*
X0226801Y0159816D01*
X0226801Y0160414D02*
X0207401Y0160414D01*
X0207401Y0161013D02*
X0226801Y0161013D01*
X0226801Y0161611D02*
X0207401Y0161611D01*
X0207401Y0162210D02*
X0226801Y0162210D01*
X0226801Y0162809D02*
X0207401Y0162809D01*
X0207401Y0163407D02*
X0226801Y0163407D01*
X0226801Y0164006D02*
X0207401Y0164006D01*
X0207401Y0164604D02*
X0226801Y0164604D01*
X0226801Y0165203D02*
X0207401Y0165203D01*
X0207401Y0165801D02*
X0226801Y0165801D01*
X0226801Y0166400D02*
X0207401Y0166400D01*
X0207401Y0166998D02*
X0226801Y0166998D01*
X0226801Y0167597D02*
X0207401Y0167597D01*
X0207401Y0168195D02*
X0226801Y0168195D01*
X0226801Y0168794D02*
X0207401Y0168794D01*
X0207401Y0169392D02*
X0226801Y0169392D01*
X0226801Y0169991D02*
X0207401Y0169991D01*
X0207401Y0170589D02*
X0226801Y0170589D01*
X0226801Y0171188D02*
X0207401Y0171188D01*
X0207401Y0171786D02*
X0226801Y0171786D01*
X0226801Y0172385D02*
X0207401Y0172385D01*
X0207401Y0172983D02*
X0226801Y0172983D01*
X0226801Y0173582D02*
X0207401Y0173582D01*
X0207401Y0174180D02*
X0226801Y0174180D01*
X0226801Y0174779D02*
X0207401Y0174779D01*
X0207401Y0175377D02*
X0226801Y0175377D01*
X0226801Y0175976D02*
X0207401Y0175976D01*
X0207401Y0176574D02*
X0226801Y0176574D01*
X0226801Y0177173D02*
X0207401Y0177173D01*
X0207401Y0177771D02*
X0226801Y0177771D01*
X0226801Y0178370D02*
X0207401Y0178370D01*
X0207401Y0178968D02*
X0226801Y0178968D01*
X0226801Y0179567D02*
X0207401Y0179567D01*
X0207121Y0180165D02*
X0226801Y0180165D01*
X0226801Y0180764D02*
X0206523Y0180764D01*
X0205924Y0181362D02*
X0226801Y0181362D01*
X0226801Y0181961D02*
X0205326Y0181961D01*
X0204727Y0182559D02*
X0226801Y0182559D01*
X0226801Y0183158D02*
X0204129Y0183158D01*
X0202554Y0183756D02*
X0226801Y0183756D01*
X0226801Y0184355D02*
X0202554Y0184355D01*
X0202554Y0184953D02*
X0226801Y0184953D01*
X0226801Y0185552D02*
X0202554Y0185552D01*
X0202554Y0180764D02*
X0203129Y0180764D01*
X0202554Y0180165D02*
X0203727Y0180165D01*
X0204326Y0179567D02*
X0202554Y0179567D01*
X0202554Y0178968D02*
X0204924Y0178968D01*
X0205001Y0178370D02*
X0052401Y0178370D01*
X0052401Y0177771D02*
X0205001Y0177771D01*
X0205001Y0177173D02*
X0052401Y0177173D01*
X0052401Y0176574D02*
X0073189Y0176574D01*
X0072591Y0175976D02*
X0052401Y0175976D01*
X0052401Y0175377D02*
X0071992Y0175377D01*
X0071394Y0174779D02*
X0052401Y0174779D01*
X0052401Y0174180D02*
X0070795Y0174180D01*
X0070197Y0173582D02*
X0052401Y0173582D01*
X0052401Y0172983D02*
X0069598Y0172983D01*
X0069000Y0172385D02*
X0052401Y0172385D01*
X0052401Y0171786D02*
X0054848Y0171786D01*
X0054848Y0171824D02*
X0055375Y0172352D01*
X0062026Y0172352D01*
X0062554Y0171824D01*
X0062554Y0165173D01*
X0062026Y0164646D01*
X0061963Y0164646D01*
X0061963Y0156874D01*
X0061436Y0156347D01*
X0055966Y0156347D01*
X0055439Y0156874D01*
X0055439Y0164646D01*
X0055375Y0164646D01*
X0054848Y0165173D01*
X0054848Y0171824D01*
X0054848Y0171188D02*
X0052401Y0171188D01*
X0052401Y0170589D02*
X0054848Y0170589D01*
X0054848Y0169991D02*
X0052401Y0169991D01*
X0052401Y0169392D02*
X0054848Y0169392D01*
X0054848Y0168794D02*
X0052401Y0168794D01*
X0052401Y0168195D02*
X0054848Y0168195D01*
X0054848Y0167597D02*
X0052401Y0167597D01*
X0052401Y0166998D02*
X0054848Y0166998D01*
X0054848Y0166400D02*
X0052401Y0166400D01*
X0052401Y0165801D02*
X0054848Y0165801D01*
X0054848Y0165203D02*
X0052401Y0165203D01*
X0052401Y0164604D02*
X0055439Y0164604D01*
X0055439Y0164006D02*
X0052462Y0164006D01*
X0053061Y0163407D02*
X0055439Y0163407D01*
X0055439Y0162809D02*
X0053590Y0162809D01*
X0053590Y0162210D02*
X0055439Y0162210D01*
X0055439Y0161611D02*
X0053590Y0161611D01*
X0053590Y0161013D02*
X0055439Y0161013D01*
X0055439Y0160414D02*
X0053105Y0160414D01*
X0052507Y0159816D02*
X0055439Y0159816D01*
X0055439Y0159217D02*
X0052401Y0159217D01*
X0052401Y0158619D02*
X0055439Y0158619D01*
X0055439Y0158020D02*
X0052401Y0158020D01*
X0052401Y0157422D02*
X0055439Y0157422D01*
X0055489Y0156823D02*
X0052401Y0156823D01*
X0052401Y0156225D02*
X0067501Y0156225D01*
X0067501Y0156823D02*
X0061912Y0156823D01*
X0061963Y0157422D02*
X0067501Y0157422D01*
X0067501Y0158020D02*
X0061963Y0158020D01*
X0061963Y0158619D02*
X0067501Y0158619D01*
X0067501Y0159217D02*
X0061963Y0159217D01*
X0061963Y0159816D02*
X0067501Y0159816D01*
X0067501Y0160414D02*
X0061963Y0160414D01*
X0061963Y0161013D02*
X0067501Y0161013D01*
X0067501Y0161611D02*
X0061963Y0161611D01*
X0061963Y0162210D02*
X0067501Y0162210D01*
X0067501Y0162809D02*
X0061963Y0162809D01*
X0061963Y0163407D02*
X0067501Y0163407D01*
X0067501Y0164006D02*
X0061963Y0164006D01*
X0061963Y0164604D02*
X0067501Y0164604D01*
X0067501Y0165203D02*
X0062554Y0165203D01*
X0062554Y0165801D02*
X0067501Y0165801D01*
X0067501Y0166400D02*
X0062554Y0166400D01*
X0062554Y0166998D02*
X0067501Y0166998D01*
X0067501Y0167597D02*
X0062554Y0167597D01*
X0062554Y0168195D02*
X0067501Y0168195D01*
X0067501Y0168794D02*
X0062554Y0168794D01*
X0062554Y0169392D02*
X0067501Y0169392D01*
X0067501Y0169991D02*
X0062554Y0169991D01*
X0062554Y0170589D02*
X0067501Y0170589D01*
X0067803Y0171188D02*
X0062554Y0171188D01*
X0062554Y0171786D02*
X0068401Y0171786D01*
X0068701Y0170389D02*
X0073701Y0175389D01*
X0183701Y0175389D01*
X0188701Y0170389D01*
X0188701Y0152889D01*
X0192602Y0148987D01*
X0198701Y0148987D01*
X0198701Y0140790D01*
X0195439Y0140664D02*
X0142401Y0140664D01*
X0142401Y0141262D02*
X0195439Y0141262D01*
X0195439Y0141861D02*
X0142401Y0141861D01*
X0142401Y0142459D02*
X0195439Y0142459D01*
X0195439Y0143058D02*
X0142401Y0143058D01*
X0142401Y0143656D02*
X0195439Y0143656D01*
X0195439Y0144255D02*
X0142401Y0144255D01*
X0142401Y0144853D02*
X0195586Y0144853D01*
X0195439Y0145452D02*
X0142401Y0145452D01*
X0142401Y0146050D02*
X0195439Y0146050D01*
X0195439Y0146649D02*
X0142401Y0146649D01*
X0142401Y0147247D02*
X0195439Y0147247D01*
X0195439Y0150240D02*
X0193047Y0150240D01*
X0192448Y0150838D02*
X0195439Y0150838D01*
X0195439Y0151437D02*
X0191850Y0151437D01*
X0191251Y0152035D02*
X0195439Y0152035D01*
X0195439Y0152634D02*
X0190653Y0152634D01*
X0190054Y0153232D02*
X0195768Y0153232D01*
X0195966Y0156347D02*
X0201436Y0156347D01*
X0201963Y0156874D01*
X0201963Y0164646D01*
X0202026Y0164646D01*
X0202554Y0165173D01*
X0202554Y0171824D01*
X0202026Y0172352D01*
X0195375Y0172352D01*
X0194848Y0171824D01*
X0194848Y0165173D01*
X0195375Y0164646D01*
X0195439Y0164646D01*
X0195439Y0156874D01*
X0195966Y0156347D01*
X0195489Y0156823D02*
X0189901Y0156823D01*
X0189901Y0156225D02*
X0205001Y0156225D01*
X0205001Y0156823D02*
X0201912Y0156823D01*
X0201963Y0157422D02*
X0205001Y0157422D01*
X0205001Y0158020D02*
X0201963Y0158020D01*
X0201963Y0158619D02*
X0205001Y0158619D01*
X0205001Y0159217D02*
X0201963Y0159217D01*
X0201963Y0159816D02*
X0205001Y0159816D01*
X0205001Y0160414D02*
X0201963Y0160414D01*
X0201963Y0161013D02*
X0205001Y0161013D01*
X0205001Y0161611D02*
X0201963Y0161611D01*
X0201963Y0162210D02*
X0205001Y0162210D01*
X0205001Y0162809D02*
X0201963Y0162809D01*
X0201963Y0163407D02*
X0205001Y0163407D01*
X0205001Y0164006D02*
X0201963Y0164006D01*
X0201963Y0164604D02*
X0205001Y0164604D01*
X0205001Y0165203D02*
X0202554Y0165203D01*
X0202554Y0165801D02*
X0205001Y0165801D01*
X0205001Y0166400D02*
X0202554Y0166400D01*
X0202554Y0166998D02*
X0205001Y0166998D01*
X0205001Y0167597D02*
X0202554Y0167597D01*
X0202554Y0168195D02*
X0205001Y0168195D01*
X0205001Y0168794D02*
X0202554Y0168794D01*
X0202554Y0169392D02*
X0205001Y0169392D01*
X0205001Y0169991D02*
X0202554Y0169991D01*
X0202554Y0170589D02*
X0205001Y0170589D01*
X0205001Y0171188D02*
X0202554Y0171188D01*
X0202554Y0171786D02*
X0205001Y0171786D01*
X0205001Y0172385D02*
X0188402Y0172385D01*
X0187803Y0172983D02*
X0205001Y0172983D01*
X0205001Y0173582D02*
X0187205Y0173582D01*
X0186606Y0174180D02*
X0205001Y0174180D01*
X0205001Y0174779D02*
X0186008Y0174779D01*
X0185409Y0175377D02*
X0205001Y0175377D01*
X0205001Y0175976D02*
X0184811Y0175976D01*
X0184212Y0176574D02*
X0205001Y0176574D01*
X0198701Y0168499D02*
X0198701Y0160790D01*
X0195439Y0161013D02*
X0189901Y0161013D01*
X0189901Y0161611D02*
X0195439Y0161611D01*
X0195439Y0162210D02*
X0189901Y0162210D01*
X0189901Y0162809D02*
X0195439Y0162809D01*
X0195439Y0163407D02*
X0189901Y0163407D01*
X0189901Y0164006D02*
X0195439Y0164006D01*
X0195439Y0164604D02*
X0189901Y0164604D01*
X0189901Y0165203D02*
X0194848Y0165203D01*
X0194848Y0165801D02*
X0189901Y0165801D01*
X0189901Y0166400D02*
X0194848Y0166400D01*
X0194848Y0166998D02*
X0189901Y0166998D01*
X0189901Y0167597D02*
X0194848Y0167597D01*
X0194848Y0168195D02*
X0189901Y0168195D01*
X0189901Y0168794D02*
X0194848Y0168794D01*
X0194848Y0169392D02*
X0189901Y0169392D01*
X0189901Y0169991D02*
X0194848Y0169991D01*
X0194848Y0170589D02*
X0189901Y0170589D01*
X0189599Y0171188D02*
X0194848Y0171188D01*
X0194848Y0171786D02*
X0189000Y0171786D01*
X0187402Y0169991D02*
X0070000Y0169991D01*
X0069901Y0169392D02*
X0187501Y0169392D01*
X0187501Y0168794D02*
X0069901Y0168794D01*
X0069901Y0168195D02*
X0187501Y0168195D01*
X0187501Y0167597D02*
X0069901Y0167597D01*
X0069901Y0166998D02*
X0187501Y0166998D01*
X0187501Y0166400D02*
X0069901Y0166400D01*
X0069901Y0165801D02*
X0187501Y0165801D01*
X0187501Y0165203D02*
X0069901Y0165203D01*
X0069901Y0164604D02*
X0187501Y0164604D01*
X0187501Y0164006D02*
X0134962Y0164006D01*
X0134690Y0164278D02*
X0132711Y0164278D01*
X0131312Y0162878D01*
X0131312Y0160899D01*
X0132501Y0159710D01*
X0132501Y0141567D01*
X0131312Y0140378D01*
X0131312Y0138399D01*
X0132711Y0137000D01*
X0134690Y0137000D01*
X0136090Y0138399D01*
X0136090Y0140378D01*
X0134901Y0141567D01*
X0134901Y0159710D01*
X0136090Y0160899D01*
X0136090Y0162878D01*
X0134690Y0164278D01*
X0135561Y0163407D02*
X0187501Y0163407D01*
X0187501Y0162809D02*
X0136090Y0162809D01*
X0136090Y0162210D02*
X0187501Y0162210D01*
X0187501Y0161611D02*
X0136090Y0161611D01*
X0136090Y0161013D02*
X0187501Y0161013D01*
X0187501Y0160414D02*
X0135605Y0160414D01*
X0135007Y0159816D02*
X0187501Y0159816D01*
X0187501Y0159217D02*
X0142251Y0159217D01*
X0142190Y0159278D02*
X0140211Y0159278D01*
X0138812Y0157878D01*
X0138812Y0155899D01*
X0140001Y0154710D01*
X0140001Y0136567D01*
X0138812Y0135378D01*
X0138812Y0133399D01*
X0140211Y0132000D01*
X0142190Y0132000D01*
X0143590Y0133399D01*
X0143590Y0135378D01*
X0142401Y0136567D01*
X0142401Y0154710D01*
X0143590Y0155899D01*
X0143590Y0157878D01*
X0142190Y0159278D01*
X0142849Y0158619D02*
X0187501Y0158619D01*
X0187501Y0158020D02*
X0143448Y0158020D01*
X0143590Y0157422D02*
X0187501Y0157422D01*
X0187501Y0156823D02*
X0143590Y0156823D01*
X0143590Y0156225D02*
X0187501Y0156225D01*
X0187501Y0155626D02*
X0143317Y0155626D01*
X0142719Y0155028D02*
X0187501Y0155028D01*
X0187501Y0154429D02*
X0142401Y0154429D01*
X0142401Y0153831D02*
X0187501Y0153831D01*
X0187501Y0153232D02*
X0142401Y0153232D01*
X0142401Y0152634D02*
X0187501Y0152634D01*
X0187857Y0152035D02*
X0142401Y0152035D01*
X0142401Y0151437D02*
X0188456Y0151437D01*
X0189054Y0150838D02*
X0142401Y0150838D01*
X0142401Y0150240D02*
X0189653Y0150240D01*
X0190251Y0149641D02*
X0142401Y0149641D01*
X0142401Y0149043D02*
X0190850Y0149043D01*
X0191448Y0148444D02*
X0142401Y0148444D01*
X0142401Y0147846D02*
X0192047Y0147846D01*
X0189901Y0153831D02*
X0205001Y0153831D01*
X0205001Y0154429D02*
X0189901Y0154429D01*
X0189901Y0155028D02*
X0205001Y0155028D01*
X0205001Y0155626D02*
X0189901Y0155626D01*
X0189901Y0157422D02*
X0195439Y0157422D01*
X0195439Y0158020D02*
X0189901Y0158020D01*
X0189901Y0158619D02*
X0195439Y0158619D01*
X0195439Y0159217D02*
X0189901Y0159217D01*
X0189901Y0159816D02*
X0195439Y0159816D01*
X0195439Y0160414D02*
X0189901Y0160414D01*
X0186803Y0170589D02*
X0070598Y0170589D01*
X0071197Y0171188D02*
X0186205Y0171188D01*
X0185606Y0171786D02*
X0071795Y0171786D01*
X0072394Y0172385D02*
X0185008Y0172385D01*
X0184409Y0172983D02*
X0072992Y0172983D01*
X0073591Y0173582D02*
X0183811Y0173582D01*
X0183212Y0174180D02*
X0074190Y0174180D01*
X0068701Y0170389D02*
X0068701Y0156917D01*
X0068729Y0156889D01*
X0068701Y0156917D02*
X0068701Y0152889D01*
X0064799Y0148987D01*
X0058701Y0148987D01*
X0058701Y0140790D01*
X0065799Y0140790D01*
X0075060Y0131530D01*
X0077701Y0134171D01*
X0077701Y0138987D01*
X0074439Y0138868D02*
X0069418Y0138868D01*
X0068820Y0139467D02*
X0074439Y0139467D01*
X0074439Y0140065D02*
X0068221Y0140065D01*
X0067623Y0140664D02*
X0074439Y0140664D01*
X0074439Y0141262D02*
X0067024Y0141262D01*
X0066426Y0141861D02*
X0074439Y0141861D01*
X0074439Y0142459D02*
X0061963Y0142459D01*
X0061963Y0143058D02*
X0074593Y0143058D01*
X0074966Y0146347D02*
X0074439Y0146874D01*
X0074439Y0154706D01*
X0074966Y0155234D01*
X0075977Y0155234D01*
X0075312Y0155899D01*
X0075312Y0157878D01*
X0076711Y0159278D01*
X0078690Y0159278D01*
X0080090Y0157878D01*
X0080090Y0155899D01*
X0079424Y0155234D01*
X0080436Y0155234D01*
X0080963Y0154706D01*
X0080963Y0146874D01*
X0080436Y0146347D01*
X0074966Y0146347D01*
X0074664Y0146649D02*
X0061963Y0146649D01*
X0061963Y0147247D02*
X0074439Y0147247D01*
X0074439Y0147846D02*
X0065355Y0147846D01*
X0065954Y0148444D02*
X0074439Y0148444D01*
X0074439Y0149043D02*
X0066552Y0149043D01*
X0067151Y0149641D02*
X0074439Y0149641D01*
X0074439Y0150240D02*
X0067749Y0150240D01*
X0068348Y0150838D02*
X0074439Y0150838D01*
X0074439Y0151437D02*
X0068946Y0151437D01*
X0069545Y0152035D02*
X0074439Y0152035D01*
X0074439Y0152634D02*
X0069901Y0152634D01*
X0069901Y0153232D02*
X0074439Y0153232D01*
X0074439Y0153831D02*
X0069901Y0153831D01*
X0069901Y0154429D02*
X0074439Y0154429D01*
X0074760Y0155028D02*
X0069901Y0155028D01*
X0069901Y0155626D02*
X0075585Y0155626D01*
X0075312Y0156225D02*
X0069901Y0156225D01*
X0069929Y0156823D02*
X0075312Y0156823D01*
X0075312Y0157422D02*
X0069901Y0157422D01*
X0069901Y0158020D02*
X0075454Y0158020D01*
X0076053Y0158619D02*
X0069901Y0158619D01*
X0069901Y0159217D02*
X0076651Y0159217D01*
X0078751Y0159217D02*
X0117501Y0159217D01*
X0117501Y0159710D02*
X0116312Y0160899D01*
X0116312Y0162878D01*
X0117711Y0164278D01*
X0119690Y0164278D01*
X0121090Y0162878D01*
X0121090Y0160899D01*
X0119901Y0159710D01*
X0119901Y0146089D01*
X0124522Y0146089D01*
X0125711Y0147278D01*
X0127690Y0147278D01*
X0129090Y0145878D01*
X0129090Y0143899D01*
X0127690Y0142500D01*
X0125711Y0142500D01*
X0124522Y0143689D01*
X0119901Y0143689D01*
X0119901Y0130238D01*
X0120836Y0129851D01*
X0121821Y0128866D01*
X0122354Y0127580D01*
X0122354Y0120988D01*
X0121821Y0119701D01*
X0120836Y0118717D01*
X0119550Y0118184D01*
X0118157Y0118184D01*
X0116871Y0118717D01*
X0115886Y0119701D01*
X0115354Y0120988D01*
X0115354Y0127580D01*
X0115886Y0128866D01*
X0116871Y0129851D01*
X0117501Y0130112D01*
X0117501Y0159710D01*
X0117395Y0159816D02*
X0069901Y0159816D01*
X0069901Y0160414D02*
X0116797Y0160414D01*
X0116312Y0161013D02*
X0069901Y0161013D01*
X0069901Y0161611D02*
X0116312Y0161611D01*
X0116312Y0162210D02*
X0069901Y0162210D01*
X0069901Y0162809D02*
X0116312Y0162809D01*
X0116841Y0163407D02*
X0069901Y0163407D01*
X0069901Y0164006D02*
X0117439Y0164006D01*
X0118701Y0161889D02*
X0118701Y0144872D01*
X0118718Y0144889D01*
X0126701Y0144889D01*
X0129090Y0144853D02*
X0132501Y0144853D01*
X0132501Y0144255D02*
X0129090Y0144255D01*
X0128847Y0143656D02*
X0132501Y0143656D01*
X0132501Y0143058D02*
X0128248Y0143058D01*
X0129090Y0145452D02*
X0132501Y0145452D01*
X0132501Y0146050D02*
X0128918Y0146050D01*
X0128319Y0146649D02*
X0132501Y0146649D01*
X0132501Y0147247D02*
X0127721Y0147247D01*
X0125681Y0147247D02*
X0119901Y0147247D01*
X0119901Y0146649D02*
X0125082Y0146649D01*
X0124555Y0143656D02*
X0119901Y0143656D01*
X0119901Y0143058D02*
X0125153Y0143058D01*
X0119901Y0142459D02*
X0132501Y0142459D01*
X0132501Y0141861D02*
X0119901Y0141861D01*
X0119901Y0141262D02*
X0132196Y0141262D01*
X0131597Y0140664D02*
X0119901Y0140664D01*
X0119901Y0140065D02*
X0131312Y0140065D01*
X0131312Y0139467D02*
X0119901Y0139467D01*
X0119901Y0138868D02*
X0131312Y0138868D01*
X0131441Y0138270D02*
X0119901Y0138270D01*
X0119901Y0137671D02*
X0132040Y0137671D01*
X0132638Y0137073D02*
X0119901Y0137073D01*
X0119901Y0136474D02*
X0139908Y0136474D01*
X0140001Y0137073D02*
X0134763Y0137073D01*
X0135362Y0137671D02*
X0140001Y0137671D01*
X0140001Y0138270D02*
X0135960Y0138270D01*
X0136090Y0138868D02*
X0140001Y0138868D01*
X0140001Y0139467D02*
X0136090Y0139467D01*
X0136090Y0140065D02*
X0140001Y0140065D01*
X0140001Y0140664D02*
X0135804Y0140664D01*
X0135206Y0141262D02*
X0140001Y0141262D01*
X0140001Y0141861D02*
X0134901Y0141861D01*
X0134901Y0142459D02*
X0140001Y0142459D01*
X0140001Y0143058D02*
X0134901Y0143058D01*
X0134901Y0143656D02*
X0140001Y0143656D01*
X0140001Y0144255D02*
X0134901Y0144255D01*
X0134901Y0144853D02*
X0140001Y0144853D01*
X0140001Y0145452D02*
X0134901Y0145452D01*
X0134901Y0146050D02*
X0140001Y0146050D01*
X0140001Y0146649D02*
X0134901Y0146649D01*
X0134901Y0147247D02*
X0140001Y0147247D01*
X0140001Y0147846D02*
X0134901Y0147846D01*
X0134901Y0148444D02*
X0140001Y0148444D01*
X0140001Y0149043D02*
X0134901Y0149043D01*
X0134901Y0149641D02*
X0140001Y0149641D01*
X0140001Y0150240D02*
X0134901Y0150240D01*
X0134901Y0150838D02*
X0140001Y0150838D01*
X0140001Y0151437D02*
X0134901Y0151437D01*
X0134901Y0152035D02*
X0140001Y0152035D01*
X0140001Y0152634D02*
X0134901Y0152634D01*
X0134901Y0153232D02*
X0140001Y0153232D01*
X0140001Y0153831D02*
X0134901Y0153831D01*
X0134901Y0154429D02*
X0140001Y0154429D01*
X0139683Y0155028D02*
X0134901Y0155028D01*
X0134901Y0155626D02*
X0139085Y0155626D01*
X0138812Y0156225D02*
X0134901Y0156225D01*
X0134901Y0156823D02*
X0138812Y0156823D01*
X0138812Y0157422D02*
X0134901Y0157422D01*
X0134901Y0158020D02*
X0138954Y0158020D01*
X0139553Y0158619D02*
X0134901Y0158619D01*
X0134901Y0159217D02*
X0140151Y0159217D01*
X0141201Y0156889D02*
X0141201Y0134389D01*
X0143074Y0132883D02*
X0195439Y0132883D01*
X0195439Y0132903D02*
X0195439Y0125131D01*
X0195375Y0125131D01*
X0194848Y0124604D01*
X0194848Y0117953D01*
X0195375Y0117426D01*
X0202026Y0117426D01*
X0202554Y0117953D01*
X0202554Y0124604D01*
X0202026Y0125131D01*
X0201963Y0125131D01*
X0201963Y0132903D01*
X0201436Y0133430D01*
X0195966Y0133430D01*
X0195439Y0132903D01*
X0195439Y0132284D02*
X0142475Y0132284D01*
X0143590Y0133481D02*
X0205001Y0133481D01*
X0205001Y0132883D02*
X0201963Y0132883D01*
X0201963Y0132284D02*
X0205001Y0132284D01*
X0205001Y0131686D02*
X0201963Y0131686D01*
X0201963Y0131087D02*
X0205001Y0131087D01*
X0205001Y0130489D02*
X0201963Y0130489D01*
X0201963Y0129890D02*
X0205001Y0129890D01*
X0205001Y0129292D02*
X0201963Y0129292D01*
X0201963Y0128693D02*
X0205001Y0128693D01*
X0205001Y0128095D02*
X0201963Y0128095D01*
X0201963Y0127496D02*
X0205001Y0127496D01*
X0205001Y0126898D02*
X0201963Y0126898D01*
X0201963Y0126299D02*
X0205001Y0126299D01*
X0205001Y0125701D02*
X0201963Y0125701D01*
X0202055Y0125102D02*
X0205001Y0125102D01*
X0205001Y0124504D02*
X0202554Y0124504D01*
X0202554Y0123905D02*
X0205001Y0123905D01*
X0205001Y0123307D02*
X0202554Y0123307D01*
X0202554Y0122708D02*
X0205001Y0122708D01*
X0205001Y0122110D02*
X0202554Y0122110D01*
X0202554Y0121511D02*
X0205001Y0121511D01*
X0205001Y0120913D02*
X0202554Y0120913D01*
X0202554Y0120314D02*
X0205001Y0120314D01*
X0205001Y0119716D02*
X0202554Y0119716D01*
X0202554Y0119117D02*
X0205001Y0119117D01*
X0205001Y0118519D02*
X0202554Y0118519D01*
X0202521Y0117920D02*
X0205001Y0117920D01*
X0205001Y0117322D02*
X0082401Y0117322D01*
X0082401Y0117920D02*
X0127627Y0117920D01*
X0127559Y0117934D02*
X0128312Y0117784D01*
X0128396Y0117784D01*
X0128396Y0123984D01*
X0124796Y0123984D01*
X0124796Y0121300D01*
X0124946Y0120546D01*
X0125240Y0119837D01*
X0125667Y0119198D01*
X0126210Y0118655D01*
X0126849Y0118228D01*
X0127559Y0117934D01*
X0128396Y0117920D02*
X0128996Y0117920D01*
X0128996Y0117784D02*
X0129080Y0117784D01*
X0129834Y0117934D01*
X0130543Y0118228D01*
X0131182Y0118655D01*
X0131725Y0119198D01*
X0132152Y0119837D01*
X0132446Y0120546D01*
X0132596Y0121300D01*
X0132596Y0123984D01*
X0128996Y0123984D01*
X0128996Y0117784D01*
X0128996Y0118519D02*
X0128396Y0118519D01*
X0128396Y0119117D02*
X0128996Y0119117D01*
X0128996Y0119716D02*
X0128396Y0119716D01*
X0128396Y0120314D02*
X0128996Y0120314D01*
X0128996Y0120913D02*
X0128396Y0120913D01*
X0128396Y0121511D02*
X0128996Y0121511D01*
X0128996Y0122110D02*
X0128396Y0122110D01*
X0128396Y0122708D02*
X0128996Y0122708D01*
X0128996Y0123307D02*
X0128396Y0123307D01*
X0128396Y0123905D02*
X0128996Y0123905D01*
X0128996Y0123984D02*
X0128396Y0123984D01*
X0128396Y0124584D01*
X0124796Y0124584D01*
X0124796Y0127268D01*
X0124946Y0128022D01*
X0125240Y0128731D01*
X0125667Y0129370D01*
X0126210Y0129913D01*
X0126849Y0130340D01*
X0127559Y0130634D01*
X0128312Y0130784D01*
X0128396Y0130784D01*
X0128396Y0124584D01*
X0128996Y0124584D01*
X0128996Y0130784D01*
X0129080Y0130784D01*
X0129834Y0130634D01*
X0130543Y0130340D01*
X0131182Y0129913D01*
X0131725Y0129370D01*
X0132152Y0128731D01*
X0132446Y0128022D01*
X0132596Y0127268D01*
X0132596Y0124584D01*
X0128996Y0124584D01*
X0128996Y0123984D01*
X0128996Y0124504D02*
X0135039Y0124504D01*
X0135039Y0125102D02*
X0132596Y0125102D01*
X0132596Y0125701D02*
X0135039Y0125701D01*
X0135039Y0126299D02*
X0132596Y0126299D01*
X0132596Y0126898D02*
X0135039Y0126898D01*
X0135039Y0127496D02*
X0132551Y0127496D01*
X0132416Y0128095D02*
X0135252Y0128095D01*
X0135039Y0127580D02*
X0135572Y0128866D01*
X0136556Y0129851D01*
X0137842Y0130384D01*
X0139235Y0130384D01*
X0140521Y0129851D01*
X0141506Y0128866D01*
X0142039Y0127580D01*
X0142039Y0120988D01*
X0141506Y0119701D01*
X0140521Y0118717D01*
X0139235Y0118184D01*
X0137842Y0118184D01*
X0136556Y0118717D01*
X0135572Y0119701D01*
X0135039Y0120988D01*
X0135039Y0127580D01*
X0135500Y0128693D02*
X0132168Y0128693D01*
X0131778Y0129292D02*
X0135997Y0129292D01*
X0136651Y0129890D02*
X0131205Y0129890D01*
X0130184Y0130489D02*
X0195439Y0130489D01*
X0195439Y0131087D02*
X0119901Y0131087D01*
X0119901Y0130489D02*
X0127208Y0130489D01*
X0126187Y0129890D02*
X0120741Y0129890D01*
X0121395Y0129292D02*
X0125615Y0129292D01*
X0125224Y0128693D02*
X0121892Y0128693D01*
X0122140Y0128095D02*
X0124976Y0128095D01*
X0124842Y0127496D02*
X0122354Y0127496D01*
X0122354Y0126898D02*
X0124796Y0126898D01*
X0124796Y0126299D02*
X0122354Y0126299D01*
X0122354Y0125701D02*
X0124796Y0125701D01*
X0124796Y0125102D02*
X0122354Y0125102D01*
X0122354Y0124504D02*
X0128396Y0124504D01*
X0128396Y0125102D02*
X0128996Y0125102D01*
X0128996Y0125701D02*
X0128396Y0125701D01*
X0128396Y0126299D02*
X0128996Y0126299D01*
X0128996Y0126898D02*
X0128396Y0126898D01*
X0128396Y0127496D02*
X0128996Y0127496D01*
X0128996Y0128095D02*
X0128396Y0128095D01*
X0128396Y0128693D02*
X0128996Y0128693D01*
X0128996Y0129292D02*
X0128396Y0129292D01*
X0128396Y0129890D02*
X0128996Y0129890D01*
X0128996Y0130489D02*
X0128396Y0130489D01*
X0124796Y0123905D02*
X0122354Y0123905D01*
X0122354Y0123307D02*
X0124796Y0123307D01*
X0124796Y0122708D02*
X0122354Y0122708D01*
X0122354Y0122110D02*
X0124796Y0122110D01*
X0124796Y0121511D02*
X0122354Y0121511D01*
X0122323Y0120913D02*
X0124873Y0120913D01*
X0125042Y0120314D02*
X0122075Y0120314D01*
X0121827Y0119716D02*
X0125321Y0119716D01*
X0125747Y0119117D02*
X0121237Y0119117D01*
X0120358Y0118519D02*
X0126413Y0118519D01*
X0129765Y0117920D02*
X0194881Y0117920D01*
X0194848Y0118519D02*
X0140043Y0118519D01*
X0140922Y0119117D02*
X0194848Y0119117D01*
X0194848Y0119716D02*
X0141512Y0119716D01*
X0141760Y0120314D02*
X0194848Y0120314D01*
X0194848Y0120913D02*
X0142008Y0120913D01*
X0142039Y0121511D02*
X0194848Y0121511D01*
X0194848Y0122110D02*
X0142039Y0122110D01*
X0142039Y0122708D02*
X0194848Y0122708D01*
X0194848Y0123307D02*
X0142039Y0123307D01*
X0142039Y0123905D02*
X0194848Y0123905D01*
X0194848Y0124504D02*
X0142039Y0124504D01*
X0142039Y0125102D02*
X0195346Y0125102D01*
X0195439Y0125701D02*
X0142039Y0125701D01*
X0142039Y0126299D02*
X0195439Y0126299D01*
X0195439Y0126898D02*
X0142039Y0126898D01*
X0142039Y0127496D02*
X0195439Y0127496D01*
X0195439Y0128095D02*
X0141825Y0128095D01*
X0141578Y0128693D02*
X0195439Y0128693D01*
X0195439Y0129292D02*
X0141080Y0129292D01*
X0140426Y0129890D02*
X0195439Y0129890D01*
X0195439Y0131686D02*
X0119901Y0131686D01*
X0119901Y0132284D02*
X0139927Y0132284D01*
X0139328Y0132883D02*
X0119901Y0132883D01*
X0119901Y0133481D02*
X0138812Y0133481D01*
X0138812Y0134080D02*
X0119901Y0134080D01*
X0119901Y0134678D02*
X0138812Y0134678D01*
X0138812Y0135277D02*
X0119901Y0135277D01*
X0119901Y0135876D02*
X0139309Y0135876D01*
X0142494Y0136474D02*
X0195839Y0136474D01*
X0195439Y0137073D02*
X0142401Y0137073D01*
X0142401Y0137671D02*
X0195439Y0137671D01*
X0195439Y0138270D02*
X0142401Y0138270D01*
X0142401Y0138868D02*
X0195439Y0138868D01*
X0195439Y0139467D02*
X0142401Y0139467D01*
X0142401Y0140065D02*
X0195439Y0140065D01*
X0201963Y0140065D02*
X0205001Y0140065D01*
X0205001Y0139467D02*
X0201963Y0139467D01*
X0201963Y0138868D02*
X0205001Y0138868D01*
X0205001Y0138270D02*
X0201963Y0138270D01*
X0201963Y0137671D02*
X0205001Y0137671D01*
X0205001Y0137073D02*
X0201963Y0137073D01*
X0201563Y0136474D02*
X0205001Y0136474D01*
X0205001Y0135876D02*
X0143093Y0135876D01*
X0143590Y0135277D02*
X0205001Y0135277D01*
X0205001Y0134678D02*
X0143590Y0134678D01*
X0143590Y0134080D02*
X0205001Y0134080D01*
X0205001Y0140664D02*
X0201963Y0140664D01*
X0201963Y0141262D02*
X0205001Y0141262D01*
X0205001Y0141861D02*
X0201963Y0141861D01*
X0201963Y0142459D02*
X0205001Y0142459D01*
X0205001Y0143058D02*
X0201963Y0143058D01*
X0201963Y0143656D02*
X0205001Y0143656D01*
X0205001Y0144255D02*
X0201963Y0144255D01*
X0201816Y0144853D02*
X0205001Y0144853D01*
X0205001Y0145452D02*
X0201963Y0145452D01*
X0201963Y0146050D02*
X0205001Y0146050D01*
X0205001Y0146649D02*
X0201963Y0146649D01*
X0201963Y0147247D02*
X0205001Y0147247D01*
X0205001Y0147846D02*
X0201963Y0147846D01*
X0201963Y0148444D02*
X0205001Y0148444D01*
X0205001Y0149043D02*
X0201963Y0149043D01*
X0201963Y0149641D02*
X0205001Y0149641D01*
X0205001Y0150240D02*
X0201963Y0150240D01*
X0201963Y0150838D02*
X0205001Y0150838D01*
X0205001Y0151437D02*
X0201963Y0151437D01*
X0201963Y0152035D02*
X0205001Y0152035D01*
X0205001Y0152634D02*
X0201963Y0152634D01*
X0201634Y0153232D02*
X0205001Y0153232D01*
X0198701Y0128987D02*
X0198701Y0121278D01*
X0205001Y0116723D02*
X0144815Y0116723D01*
X0145875Y0116125D02*
X0205001Y0116125D01*
X0205001Y0115526D02*
X0146472Y0115526D01*
X0146872Y0114928D02*
X0205001Y0114928D01*
X0205001Y0114329D02*
X0147126Y0114329D01*
X0147276Y0113731D02*
X0205001Y0113731D01*
X0205001Y0113132D02*
X0147339Y0113132D01*
X0147339Y0112534D02*
X0205001Y0112534D01*
X0205001Y0111935D02*
X0147339Y0111935D01*
X0141486Y0104154D02*
X0139982Y0104154D01*
X0140581Y0104753D02*
X0140670Y0104753D01*
X0140574Y0095775D02*
X0116828Y0095775D01*
X0116828Y0094578D02*
X0140574Y0094578D01*
X0140574Y0093980D02*
X0116828Y0093980D01*
X0116828Y0093381D02*
X0140574Y0093381D01*
X0140612Y0092783D02*
X0116790Y0092783D01*
X0116642Y0092184D02*
X0140760Y0092184D01*
X0141038Y0091586D02*
X0116364Y0091586D01*
X0113686Y0095775D02*
X0113204Y0095775D01*
X0113204Y0096374D02*
X0113686Y0096374D01*
X0113686Y0096972D02*
X0113204Y0096972D01*
X0113204Y0097571D02*
X0113686Y0097571D01*
X0113686Y0098169D02*
X0113204Y0098169D01*
X0113204Y0098768D02*
X0113686Y0098768D01*
X0113686Y0099366D02*
X0113204Y0099366D01*
X0113204Y0099965D02*
X0113686Y0099965D01*
X0113686Y0100563D02*
X0113204Y0100563D01*
X0112070Y0100563D02*
X0032101Y0100563D01*
X0032101Y0099965D02*
X0111155Y0099965D01*
X0110643Y0099366D02*
X0032101Y0099366D01*
X0032101Y0098768D02*
X0110321Y0098768D01*
X0110135Y0098169D02*
X0032101Y0098169D01*
X0032101Y0097571D02*
X0110062Y0097571D01*
X0110062Y0096972D02*
X0032101Y0096972D01*
X0032101Y0096374D02*
X0110062Y0096374D01*
X0110062Y0095775D02*
X0032101Y0095775D01*
X0032101Y0101162D02*
X0226801Y0101162D01*
X0226801Y0101760D02*
X0032101Y0101760D01*
X0032101Y0102359D02*
X0226801Y0102359D01*
X0226801Y0102957D02*
X0032101Y0102957D01*
X0032101Y0107147D02*
X0051745Y0107147D01*
X0051147Y0107745D02*
X0032101Y0107745D01*
X0032101Y0108344D02*
X0050548Y0108344D01*
X0050001Y0108942D02*
X0032101Y0108942D01*
X0032101Y0109541D02*
X0050001Y0109541D01*
X0050001Y0110140D02*
X0032101Y0110140D01*
X0032101Y0110738D02*
X0050001Y0110738D01*
X0050001Y0111337D02*
X0032101Y0111337D01*
X0032101Y0111935D02*
X0050001Y0111935D01*
X0050001Y0112534D02*
X0032101Y0112534D01*
X0032101Y0113132D02*
X0050001Y0113132D01*
X0050001Y0113731D02*
X0032101Y0113731D01*
X0032101Y0114329D02*
X0050001Y0114329D01*
X0050001Y0114928D02*
X0032101Y0114928D01*
X0032101Y0115526D02*
X0050001Y0115526D01*
X0050001Y0116125D02*
X0032101Y0116125D01*
X0032101Y0116723D02*
X0050001Y0116723D01*
X0050001Y0117322D02*
X0032101Y0117322D01*
X0032101Y0117920D02*
X0050001Y0117920D01*
X0050001Y0118519D02*
X0032101Y0118519D01*
X0032101Y0119117D02*
X0050001Y0119117D01*
X0050001Y0119716D02*
X0032101Y0119716D01*
X0032101Y0120314D02*
X0050001Y0120314D01*
X0050001Y0120913D02*
X0032101Y0120913D01*
X0032101Y0121511D02*
X0050001Y0121511D01*
X0050001Y0122110D02*
X0032101Y0122110D01*
X0032101Y0122708D02*
X0050001Y0122708D01*
X0050001Y0123307D02*
X0032101Y0123307D01*
X0032101Y0123905D02*
X0050001Y0123905D01*
X0050001Y0124504D02*
X0032101Y0124504D01*
X0032101Y0125102D02*
X0050001Y0125102D01*
X0050001Y0125701D02*
X0032101Y0125701D01*
X0032101Y0126299D02*
X0050001Y0126299D01*
X0050001Y0126898D02*
X0032101Y0126898D01*
X0032101Y0127496D02*
X0050001Y0127496D01*
X0050001Y0128095D02*
X0032101Y0128095D01*
X0032101Y0128693D02*
X0050001Y0128693D01*
X0050001Y0129292D02*
X0032101Y0129292D01*
X0032101Y0129890D02*
X0050001Y0129890D01*
X0050001Y0130489D02*
X0032101Y0130489D01*
X0032101Y0131087D02*
X0050001Y0131087D01*
X0050001Y0131686D02*
X0032101Y0131686D01*
X0032101Y0132284D02*
X0050001Y0132284D01*
X0050001Y0132883D02*
X0032101Y0132883D01*
X0032101Y0133481D02*
X0050001Y0133481D01*
X0050001Y0134080D02*
X0032101Y0134080D01*
X0032101Y0134678D02*
X0050001Y0134678D01*
X0050001Y0135277D02*
X0032101Y0135277D01*
X0032101Y0135876D02*
X0050001Y0135876D01*
X0050001Y0136474D02*
X0032101Y0136474D01*
X0032101Y0137073D02*
X0050001Y0137073D01*
X0050001Y0137671D02*
X0032101Y0137671D01*
X0032101Y0138270D02*
X0050001Y0138270D01*
X0050001Y0138868D02*
X0032101Y0138868D01*
X0032101Y0139467D02*
X0050001Y0139467D01*
X0050001Y0140065D02*
X0032101Y0140065D01*
X0032101Y0140664D02*
X0050001Y0140664D01*
X0050001Y0141262D02*
X0032101Y0141262D01*
X0032101Y0141861D02*
X0050001Y0141861D01*
X0050001Y0142459D02*
X0032101Y0142459D01*
X0032101Y0143058D02*
X0050001Y0143058D01*
X0050001Y0143656D02*
X0032101Y0143656D01*
X0032101Y0144255D02*
X0050001Y0144255D01*
X0050001Y0144853D02*
X0032101Y0144853D01*
X0032101Y0145452D02*
X0050001Y0145452D01*
X0050001Y0146050D02*
X0032101Y0146050D01*
X0032101Y0146649D02*
X0050001Y0146649D01*
X0050001Y0147247D02*
X0032101Y0147247D01*
X0032101Y0147846D02*
X0050001Y0147846D01*
X0050001Y0148444D02*
X0032101Y0148444D01*
X0032101Y0149043D02*
X0050001Y0149043D01*
X0050001Y0149641D02*
X0032101Y0149641D01*
X0032101Y0150240D02*
X0050001Y0150240D01*
X0050001Y0150838D02*
X0032101Y0150838D01*
X0032101Y0151437D02*
X0050001Y0151437D01*
X0050001Y0152035D02*
X0032101Y0152035D01*
X0032101Y0152634D02*
X0050001Y0152634D01*
X0050001Y0153232D02*
X0032101Y0153232D01*
X0032101Y0153831D02*
X0050001Y0153831D01*
X0050001Y0154429D02*
X0032101Y0154429D01*
X0032101Y0155028D02*
X0050001Y0155028D01*
X0050001Y0155626D02*
X0032101Y0155626D01*
X0032101Y0156225D02*
X0050001Y0156225D01*
X0050001Y0156823D02*
X0032101Y0156823D01*
X0032101Y0157422D02*
X0050001Y0157422D01*
X0050001Y0158020D02*
X0032101Y0158020D01*
X0032101Y0158619D02*
X0050001Y0158619D01*
X0050001Y0159217D02*
X0032101Y0159217D01*
X0032101Y0159816D02*
X0049895Y0159816D01*
X0049297Y0160414D02*
X0032101Y0160414D01*
X0032101Y0161013D02*
X0048812Y0161013D01*
X0048812Y0161611D02*
X0032101Y0161611D01*
X0032101Y0162210D02*
X0048812Y0162210D01*
X0048812Y0162809D02*
X0032101Y0162809D01*
X0032101Y0163407D02*
X0049341Y0163407D01*
X0049939Y0164006D02*
X0032101Y0164006D01*
X0032101Y0164604D02*
X0050001Y0164604D01*
X0050001Y0165203D02*
X0032101Y0165203D01*
X0032101Y0165801D02*
X0050001Y0165801D01*
X0050001Y0166400D02*
X0032101Y0166400D01*
X0032101Y0166998D02*
X0050001Y0166998D01*
X0050001Y0167597D02*
X0032101Y0167597D01*
X0032101Y0168195D02*
X0050001Y0168195D01*
X0050001Y0168794D02*
X0032101Y0168794D01*
X0032101Y0169392D02*
X0050001Y0169392D01*
X0050001Y0169991D02*
X0032101Y0169991D01*
X0032101Y0170589D02*
X0050001Y0170589D01*
X0050001Y0171188D02*
X0032101Y0171188D01*
X0032101Y0171786D02*
X0050001Y0171786D01*
X0050001Y0172385D02*
X0032101Y0172385D01*
X0032101Y0172983D02*
X0050001Y0172983D01*
X0050001Y0173582D02*
X0032101Y0173582D01*
X0032101Y0174180D02*
X0050001Y0174180D01*
X0050001Y0174779D02*
X0032101Y0174779D01*
X0032101Y0175377D02*
X0050001Y0175377D01*
X0050001Y0175976D02*
X0032101Y0175976D01*
X0032101Y0176574D02*
X0050001Y0176574D01*
X0050001Y0177173D02*
X0032101Y0177173D01*
X0032101Y0177771D02*
X0050001Y0177771D01*
X0050001Y0178370D02*
X0032101Y0178370D01*
X0032101Y0178968D02*
X0050001Y0178968D01*
X0050001Y0179567D02*
X0032101Y0179567D01*
X0032101Y0180165D02*
X0050281Y0180165D01*
X0050879Y0180764D02*
X0032101Y0180764D01*
X0032101Y0181362D02*
X0051478Y0181362D01*
X0052076Y0181961D02*
X0032101Y0181961D01*
X0032101Y0182559D02*
X0052675Y0182559D01*
X0053273Y0183158D02*
X0032101Y0183158D01*
X0032101Y0183756D02*
X0054848Y0183756D01*
X0054848Y0184355D02*
X0032101Y0184355D01*
X0032101Y0184953D02*
X0054848Y0184953D01*
X0054848Y0185552D02*
X0032101Y0185552D01*
X0032101Y0186150D02*
X0226801Y0186150D01*
X0226801Y0186749D02*
X0032101Y0186749D01*
X0032101Y0187347D02*
X0226801Y0187347D01*
X0226801Y0187946D02*
X0032101Y0187946D01*
X0032101Y0188545D02*
X0226801Y0188545D01*
X0226801Y0189143D02*
X0032101Y0189143D01*
X0032101Y0189742D02*
X0226801Y0189742D01*
X0226801Y0190340D02*
X0032101Y0190340D01*
X0032101Y0190939D02*
X0226801Y0190939D01*
X0226801Y0191537D02*
X0032101Y0191537D01*
X0032101Y0192136D02*
X0226801Y0192136D01*
X0226801Y0192734D02*
X0032101Y0192734D01*
X0032101Y0193333D02*
X0226801Y0193333D01*
X0226801Y0193931D02*
X0032101Y0193931D01*
X0032101Y0194530D02*
X0226801Y0194530D01*
X0226801Y0195128D02*
X0032101Y0195128D01*
X0032101Y0195727D02*
X0226801Y0195727D01*
X0226801Y0196325D02*
X0032101Y0196325D01*
X0032101Y0196924D02*
X0226801Y0196924D01*
X0226801Y0197522D02*
X0032101Y0197522D01*
X0032101Y0198121D02*
X0226801Y0198121D01*
X0226801Y0198719D02*
X0032101Y0198719D01*
X0032101Y0199318D02*
X0226801Y0199318D01*
X0226801Y0199916D02*
X0032101Y0199916D01*
X0032101Y0200515D02*
X0226801Y0200515D01*
X0226801Y0201113D02*
X0032101Y0201113D01*
X0032101Y0201712D02*
X0226801Y0201712D01*
X0226801Y0202310D02*
X0032101Y0202310D01*
X0032101Y0202909D02*
X0226801Y0202909D01*
X0194848Y0185552D02*
X0062554Y0185552D01*
X0062554Y0184953D02*
X0194848Y0184953D01*
X0194848Y0184355D02*
X0062554Y0184355D01*
X0062554Y0183756D02*
X0194848Y0183756D01*
X0194848Y0180764D02*
X0062554Y0180764D01*
X0062554Y0180165D02*
X0194848Y0180165D01*
X0194848Y0179567D02*
X0062554Y0179567D01*
X0062554Y0178968D02*
X0194848Y0178968D01*
X0135318Y0120314D02*
X0132350Y0120314D01*
X0132519Y0120913D02*
X0135070Y0120913D01*
X0135039Y0121511D02*
X0132596Y0121511D01*
X0132596Y0122110D02*
X0135039Y0122110D01*
X0135039Y0122708D02*
X0132596Y0122708D01*
X0132596Y0123307D02*
X0135039Y0123307D01*
X0135039Y0123905D02*
X0132596Y0123905D01*
X0132072Y0119716D02*
X0135566Y0119716D01*
X0136156Y0119117D02*
X0131645Y0119117D01*
X0130979Y0118519D02*
X0137034Y0118519D01*
X0118854Y0124284D02*
X0118701Y0124437D01*
X0118701Y0144872D01*
X0117501Y0144853D02*
X0061816Y0144853D01*
X0061963Y0144255D02*
X0117501Y0144255D01*
X0117501Y0143656D02*
X0061963Y0143656D01*
X0061963Y0145452D02*
X0117501Y0145452D01*
X0117501Y0146050D02*
X0061963Y0146050D01*
X0061963Y0150240D02*
X0064355Y0150240D01*
X0064953Y0150838D02*
X0061963Y0150838D01*
X0061963Y0151437D02*
X0065552Y0151437D01*
X0066150Y0152035D02*
X0061963Y0152035D01*
X0061963Y0152634D02*
X0066749Y0152634D01*
X0067348Y0153232D02*
X0061634Y0153232D01*
X0055768Y0153232D02*
X0052401Y0153232D01*
X0052401Y0152634D02*
X0055439Y0152634D01*
X0055439Y0152035D02*
X0052401Y0152035D01*
X0052401Y0151437D02*
X0055439Y0151437D01*
X0055439Y0150838D02*
X0052401Y0150838D01*
X0052401Y0150240D02*
X0055439Y0150240D01*
X0055439Y0149641D02*
X0052401Y0149641D01*
X0052401Y0149043D02*
X0055439Y0149043D01*
X0055439Y0148444D02*
X0052401Y0148444D01*
X0052401Y0147846D02*
X0055439Y0147846D01*
X0055439Y0147247D02*
X0052401Y0147247D01*
X0052401Y0146649D02*
X0055439Y0146649D01*
X0055439Y0146050D02*
X0052401Y0146050D01*
X0052401Y0145452D02*
X0055439Y0145452D01*
X0055586Y0144853D02*
X0052401Y0144853D01*
X0052401Y0144255D02*
X0055439Y0144255D01*
X0055439Y0143656D02*
X0052401Y0143656D01*
X0052401Y0143058D02*
X0055439Y0143058D01*
X0055439Y0142459D02*
X0052401Y0142459D01*
X0052401Y0141861D02*
X0055439Y0141861D01*
X0055439Y0141262D02*
X0052401Y0141262D01*
X0052401Y0140664D02*
X0055439Y0140664D01*
X0055439Y0140065D02*
X0052401Y0140065D01*
X0052401Y0139467D02*
X0055439Y0139467D01*
X0055439Y0138868D02*
X0052401Y0138868D01*
X0052401Y0138270D02*
X0055439Y0138270D01*
X0055439Y0137671D02*
X0052401Y0137671D01*
X0052401Y0137073D02*
X0055439Y0137073D01*
X0055839Y0136474D02*
X0052401Y0136474D01*
X0052401Y0135876D02*
X0069017Y0135876D01*
X0068418Y0136474D02*
X0061563Y0136474D01*
X0061963Y0137073D02*
X0067820Y0137073D01*
X0067221Y0137671D02*
X0061963Y0137671D01*
X0061963Y0138270D02*
X0066623Y0138270D01*
X0066024Y0138868D02*
X0061963Y0138868D01*
X0061963Y0139467D02*
X0065426Y0139467D01*
X0070017Y0138270D02*
X0074439Y0138270D01*
X0074439Y0137671D02*
X0070616Y0137671D01*
X0071214Y0137073D02*
X0074439Y0137073D01*
X0074439Y0136474D02*
X0071813Y0136474D01*
X0072411Y0135876D02*
X0074439Y0135876D01*
X0074439Y0135277D02*
X0073010Y0135277D01*
X0073608Y0134678D02*
X0074831Y0134678D01*
X0074207Y0134080D02*
X0075913Y0134080D01*
X0075314Y0133481D02*
X0074805Y0133481D01*
X0075060Y0131530D02*
X0081201Y0125389D01*
X0081201Y0106889D01*
X0083042Y0105351D02*
X0110810Y0105351D01*
X0110450Y0105950D02*
X0083590Y0105950D01*
X0083590Y0106548D02*
X0110209Y0106548D01*
X0110090Y0107147D02*
X0083590Y0107147D01*
X0083590Y0107745D02*
X0110062Y0107745D01*
X0110062Y0108344D02*
X0083124Y0108344D01*
X0082526Y0108942D02*
X0110062Y0108942D01*
X0110062Y0109541D02*
X0082401Y0109541D01*
X0082401Y0110140D02*
X0113735Y0110140D01*
X0113736Y0110738D02*
X0114335Y0110738D01*
X0114335Y0111337D02*
X0113736Y0111337D01*
X0113736Y0111935D02*
X0114335Y0111935D01*
X0114335Y0112534D02*
X0113736Y0112534D01*
X0113736Y0113132D02*
X0114335Y0113132D01*
X0114335Y0113731D02*
X0113736Y0113731D01*
X0113736Y0114329D02*
X0114335Y0114329D01*
X0114335Y0114928D02*
X0113736Y0114928D01*
X0113736Y0115526D02*
X0114335Y0115526D01*
X0114335Y0116125D02*
X0113736Y0116125D01*
X0113736Y0116723D02*
X0114335Y0116723D01*
X0112587Y0116723D02*
X0082401Y0116723D01*
X0082401Y0116125D02*
X0111527Y0116125D01*
X0110930Y0115526D02*
X0082401Y0115526D01*
X0082401Y0114928D02*
X0110530Y0114928D01*
X0110276Y0114329D02*
X0082401Y0114329D01*
X0082401Y0113731D02*
X0110125Y0113731D01*
X0110062Y0113132D02*
X0082401Y0113132D01*
X0082401Y0112534D02*
X0110062Y0112534D01*
X0110062Y0111935D02*
X0082401Y0111935D01*
X0082401Y0111337D02*
X0110062Y0111337D01*
X0110062Y0110738D02*
X0082401Y0110738D01*
X0080001Y0112534D02*
X0052401Y0112534D01*
X0052401Y0113132D02*
X0080001Y0113132D01*
X0080001Y0113731D02*
X0052401Y0113731D01*
X0052401Y0114329D02*
X0080001Y0114329D01*
X0080001Y0114928D02*
X0052401Y0114928D01*
X0052401Y0115526D02*
X0080001Y0115526D01*
X0080001Y0116125D02*
X0052401Y0116125D01*
X0052401Y0116723D02*
X0080001Y0116723D01*
X0080001Y0117322D02*
X0052401Y0117322D01*
X0052401Y0117920D02*
X0054881Y0117920D01*
X0054848Y0117953D02*
X0055375Y0117426D01*
X0062026Y0117426D01*
X0062554Y0117953D01*
X0062554Y0124604D01*
X0062026Y0125131D01*
X0061963Y0125131D01*
X0061963Y0132903D01*
X0061436Y0133430D01*
X0055966Y0133430D01*
X0055439Y0132903D01*
X0055439Y0125131D01*
X0055375Y0125131D01*
X0054848Y0124604D01*
X0054848Y0117953D01*
X0054848Y0118519D02*
X0052401Y0118519D01*
X0052401Y0119117D02*
X0054848Y0119117D01*
X0054848Y0119716D02*
X0052401Y0119716D01*
X0052401Y0120314D02*
X0054848Y0120314D01*
X0054848Y0120913D02*
X0052401Y0120913D01*
X0052401Y0121511D02*
X0054848Y0121511D01*
X0054848Y0122110D02*
X0052401Y0122110D01*
X0052401Y0122708D02*
X0054848Y0122708D01*
X0054848Y0123307D02*
X0052401Y0123307D01*
X0052401Y0123905D02*
X0054848Y0123905D01*
X0054848Y0124504D02*
X0052401Y0124504D01*
X0052401Y0125102D02*
X0055346Y0125102D01*
X0055439Y0125701D02*
X0052401Y0125701D01*
X0052401Y0126299D02*
X0055439Y0126299D01*
X0055439Y0126898D02*
X0052401Y0126898D01*
X0052401Y0127496D02*
X0055439Y0127496D01*
X0055439Y0128095D02*
X0052401Y0128095D01*
X0052401Y0128693D02*
X0055439Y0128693D01*
X0055439Y0129292D02*
X0052401Y0129292D01*
X0052401Y0129890D02*
X0055439Y0129890D01*
X0055439Y0130489D02*
X0052401Y0130489D01*
X0052401Y0131087D02*
X0055439Y0131087D01*
X0055439Y0131686D02*
X0052401Y0131686D01*
X0052401Y0132284D02*
X0055439Y0132284D01*
X0055439Y0132883D02*
X0052401Y0132883D01*
X0052401Y0133481D02*
X0071411Y0133481D01*
X0072010Y0132883D02*
X0061963Y0132883D01*
X0061963Y0132284D02*
X0072608Y0132284D01*
X0073207Y0131686D02*
X0061963Y0131686D01*
X0061963Y0131087D02*
X0073805Y0131087D01*
X0073860Y0131033D02*
X0073860Y0131033D01*
X0074404Y0130489D02*
X0061963Y0130489D01*
X0061963Y0129890D02*
X0075002Y0129890D01*
X0074563Y0130330D02*
X0074563Y0130330D01*
X0075601Y0129292D02*
X0061963Y0129292D01*
X0061963Y0128693D02*
X0076199Y0128693D01*
X0076798Y0128095D02*
X0061963Y0128095D01*
X0061963Y0127496D02*
X0077396Y0127496D01*
X0077995Y0126898D02*
X0061963Y0126898D01*
X0061963Y0126299D02*
X0078593Y0126299D01*
X0079192Y0125701D02*
X0061963Y0125701D01*
X0062055Y0125102D02*
X0079790Y0125102D01*
X0080001Y0124504D02*
X0062554Y0124504D01*
X0062554Y0123905D02*
X0080001Y0123905D01*
X0080001Y0123307D02*
X0062554Y0123307D01*
X0062554Y0122708D02*
X0080001Y0122708D01*
X0080001Y0122110D02*
X0062554Y0122110D01*
X0062554Y0121511D02*
X0080001Y0121511D01*
X0080001Y0120913D02*
X0062554Y0120913D01*
X0062554Y0120314D02*
X0080001Y0120314D01*
X0080001Y0119716D02*
X0062554Y0119716D01*
X0062554Y0119117D02*
X0080001Y0119117D01*
X0080001Y0118519D02*
X0062554Y0118519D01*
X0062521Y0117920D02*
X0080001Y0117920D01*
X0082401Y0118519D02*
X0117349Y0118519D01*
X0116471Y0119117D02*
X0082401Y0119117D01*
X0082401Y0119716D02*
X0115881Y0119716D01*
X0115633Y0120314D02*
X0082401Y0120314D01*
X0082401Y0120913D02*
X0115385Y0120913D01*
X0115354Y0121511D02*
X0082401Y0121511D01*
X0082401Y0122110D02*
X0115354Y0122110D01*
X0115354Y0122708D02*
X0082401Y0122708D01*
X0082401Y0123307D02*
X0115354Y0123307D01*
X0115354Y0123905D02*
X0082401Y0123905D01*
X0082401Y0124504D02*
X0115354Y0124504D01*
X0115354Y0125102D02*
X0082401Y0125102D01*
X0082401Y0125701D02*
X0115354Y0125701D01*
X0115354Y0126299D02*
X0081987Y0126299D01*
X0081389Y0126898D02*
X0115354Y0126898D01*
X0115354Y0127496D02*
X0080790Y0127496D01*
X0080192Y0128095D02*
X0115567Y0128095D01*
X0115815Y0128693D02*
X0079593Y0128693D01*
X0078995Y0129292D02*
X0116312Y0129292D01*
X0116966Y0129890D02*
X0078396Y0129890D01*
X0077798Y0130489D02*
X0117501Y0130489D01*
X0117501Y0131087D02*
X0077199Y0131087D01*
X0076913Y0131686D02*
X0117501Y0131686D01*
X0117501Y0132284D02*
X0077511Y0132284D01*
X0078110Y0132883D02*
X0117501Y0132883D01*
X0117501Y0133481D02*
X0078708Y0133481D01*
X0078901Y0134080D02*
X0117501Y0134080D01*
X0117501Y0134678D02*
X0080571Y0134678D01*
X0080963Y0135277D02*
X0117501Y0135277D01*
X0117501Y0135876D02*
X0080963Y0135876D01*
X0080963Y0136474D02*
X0117501Y0136474D01*
X0117501Y0137073D02*
X0080963Y0137073D01*
X0080963Y0137671D02*
X0117501Y0137671D01*
X0117501Y0138270D02*
X0080963Y0138270D01*
X0080963Y0138868D02*
X0117501Y0138868D01*
X0117501Y0139467D02*
X0080963Y0139467D01*
X0080963Y0140065D02*
X0117501Y0140065D01*
X0117501Y0140664D02*
X0080963Y0140664D01*
X0080963Y0141262D02*
X0117501Y0141262D01*
X0117501Y0141861D02*
X0080963Y0141861D01*
X0080963Y0142459D02*
X0117501Y0142459D01*
X0117501Y0143058D02*
X0080809Y0143058D01*
X0080738Y0146649D02*
X0117501Y0146649D01*
X0117501Y0147247D02*
X0080963Y0147247D01*
X0080963Y0147846D02*
X0117501Y0147846D01*
X0117501Y0148444D02*
X0080963Y0148444D01*
X0080963Y0149043D02*
X0117501Y0149043D01*
X0117501Y0149641D02*
X0080963Y0149641D01*
X0080963Y0150240D02*
X0117501Y0150240D01*
X0117501Y0150838D02*
X0080963Y0150838D01*
X0080963Y0151437D02*
X0117501Y0151437D01*
X0117501Y0152035D02*
X0080963Y0152035D01*
X0080963Y0152634D02*
X0117501Y0152634D01*
X0117501Y0153232D02*
X0080963Y0153232D01*
X0080963Y0153831D02*
X0117501Y0153831D01*
X0117501Y0154429D02*
X0080963Y0154429D01*
X0080642Y0155028D02*
X0117501Y0155028D01*
X0117501Y0155626D02*
X0079817Y0155626D01*
X0080090Y0156225D02*
X0117501Y0156225D01*
X0117501Y0156823D02*
X0080090Y0156823D01*
X0080090Y0157422D02*
X0117501Y0157422D01*
X0117501Y0158020D02*
X0079948Y0158020D01*
X0079349Y0158619D02*
X0117501Y0158619D01*
X0119901Y0158619D02*
X0132501Y0158619D01*
X0132501Y0159217D02*
X0119901Y0159217D01*
X0120007Y0159816D02*
X0132395Y0159816D01*
X0131797Y0160414D02*
X0120605Y0160414D01*
X0121090Y0161013D02*
X0131312Y0161013D01*
X0131312Y0161611D02*
X0121090Y0161611D01*
X0121090Y0162210D02*
X0131312Y0162210D01*
X0131312Y0162809D02*
X0121090Y0162809D01*
X0120561Y0163407D02*
X0131841Y0163407D01*
X0132439Y0164006D02*
X0119962Y0164006D01*
X0119901Y0158020D02*
X0132501Y0158020D01*
X0132501Y0157422D02*
X0119901Y0157422D01*
X0119901Y0156823D02*
X0132501Y0156823D01*
X0132501Y0156225D02*
X0119901Y0156225D01*
X0119901Y0155626D02*
X0132501Y0155626D01*
X0132501Y0155028D02*
X0119901Y0155028D01*
X0119901Y0154429D02*
X0132501Y0154429D01*
X0132501Y0153831D02*
X0119901Y0153831D01*
X0119901Y0153232D02*
X0132501Y0153232D01*
X0132501Y0152634D02*
X0119901Y0152634D01*
X0119901Y0152035D02*
X0132501Y0152035D01*
X0132501Y0151437D02*
X0119901Y0151437D01*
X0119901Y0150838D02*
X0132501Y0150838D01*
X0132501Y0150240D02*
X0119901Y0150240D01*
X0119901Y0149641D02*
X0132501Y0149641D01*
X0132501Y0149043D02*
X0119901Y0149043D01*
X0119901Y0148444D02*
X0132501Y0148444D01*
X0132501Y0147846D02*
X0119901Y0147846D01*
X0133701Y0139389D02*
X0133701Y0161889D01*
X0111340Y0104753D02*
X0082444Y0104753D01*
X0079958Y0104753D02*
X0062554Y0104753D01*
X0062554Y0105351D02*
X0079360Y0105351D01*
X0078812Y0105950D02*
X0062554Y0105950D01*
X0062554Y0106548D02*
X0078812Y0106548D01*
X0078812Y0107147D02*
X0062554Y0107147D01*
X0062535Y0104154D02*
X0112155Y0104154D01*
X0147339Y0094578D02*
X0226801Y0094578D01*
X0226801Y0093980D02*
X0147339Y0093980D01*
X0147339Y0093381D02*
X0226801Y0093381D01*
X0226801Y0092783D02*
X0147302Y0092783D01*
X0147153Y0092184D02*
X0226801Y0092184D01*
X0226801Y0091586D02*
X0146876Y0091586D01*
X0149679Y0090987D02*
X0226801Y0090987D01*
X0204656Y0109541D02*
X0202554Y0109541D01*
X0202554Y0108942D02*
X0204058Y0108942D01*
X0205001Y0110140D02*
X0202554Y0110140D01*
X0202554Y0110738D02*
X0205001Y0110738D01*
X0205001Y0111337D02*
X0202041Y0111337D01*
X0077701Y0150790D02*
X0077701Y0156889D01*
X0067501Y0155626D02*
X0052401Y0155626D01*
X0052401Y0155028D02*
X0067501Y0155028D01*
X0067501Y0154429D02*
X0052401Y0154429D01*
X0052401Y0153831D02*
X0067501Y0153831D01*
X0058701Y0160790D02*
X0058701Y0168499D01*
X0054848Y0178968D02*
X0052478Y0178968D01*
X0053076Y0179567D02*
X0054848Y0179567D01*
X0054848Y0180165D02*
X0053675Y0180165D01*
X0054273Y0180764D02*
X0054848Y0180764D01*
X0052401Y0135277D02*
X0069615Y0135277D01*
X0070214Y0134678D02*
X0052401Y0134678D01*
X0052401Y0134080D02*
X0070812Y0134080D01*
X0058701Y0128987D02*
X0058701Y0121278D01*
D16*
X0081201Y0106889D03*
X0126701Y0144889D03*
X0133701Y0139389D03*
X0141201Y0134389D03*
X0141201Y0156889D03*
X0133701Y0161889D03*
X0118701Y0161889D03*
X0077701Y0156889D03*
X0051201Y0161889D03*
M02*
