G75*
%MOIN*%
%OFA0B0*%
%FSLAX25Y25*%
%IPPOS*%
%LPD*%
%AMOC8*
5,1,8,0,0,1.08239X$1,22.5*
%
%ADD10C,0.10000*%
%ADD11R,0.07087X0.06299*%
%ADD12R,0.03937X0.07874*%
%ADD13R,0.08800X0.04800*%
%ADD14R,0.08661X0.14173*%
%ADD15C,0.05200*%
%ADD16R,0.01772X0.05118*%
%ADD17C,0.05346*%
%ADD18C,0.04165*%
%ADD19R,0.04724X0.07087*%
%ADD20R,0.07087X0.04724*%
%ADD21R,0.05512X0.03937*%
%ADD22R,0.11811X0.04724*%
%ADD23R,0.04724X0.11811*%
%ADD24C,0.00600*%
%ADD25C,0.02978*%
D10*
X0043701Y0099389D03*
X0043701Y0121889D03*
X0043701Y0144389D03*
X0043701Y0166889D03*
X0043701Y0189389D03*
X0066201Y0189389D03*
X0088701Y0189389D03*
D11*
X0097685Y0115208D03*
X0097685Y0104184D03*
D12*
X0097701Y0126278D03*
X0097701Y0137499D03*
D13*
X0080901Y0130989D03*
X0080901Y0121889D03*
X0080901Y0112789D03*
D14*
X0056500Y0121889D03*
D15*
X0118854Y0121684D02*
X0118854Y0126884D01*
X0128696Y0126884D02*
X0128696Y0121684D01*
X0138539Y0121684D02*
X0138539Y0126884D01*
D16*
X0133819Y0110349D03*
X0131260Y0110349D03*
X0128701Y0110349D03*
X0126142Y0110349D03*
X0123583Y0110349D03*
D17*
X0114036Y0107676D02*
X0114036Y0113023D01*
X0143366Y0113023D02*
X0143366Y0107676D01*
D18*
X0143957Y0097471D02*
X0143957Y0093306D01*
X0113445Y0093306D02*
X0113445Y0097471D01*
D19*
X0106201Y0150987D03*
X0106201Y0162790D03*
D20*
X0082102Y0144389D03*
X0070299Y0144389D03*
D21*
X0068032Y0153148D03*
X0068032Y0160629D03*
X0059370Y0156889D03*
X0084370Y0156889D03*
X0093032Y0160629D03*
X0093032Y0153148D03*
D22*
X0151811Y0152676D03*
X0151811Y0144802D03*
X0151811Y0136928D03*
X0151811Y0129054D03*
X0151811Y0160550D03*
X0151811Y0168424D03*
X0151811Y0176298D03*
X0151811Y0184172D03*
X0216378Y0184172D03*
X0216378Y0176298D03*
X0216378Y0168424D03*
X0216378Y0160550D03*
X0216378Y0152676D03*
X0216378Y0144802D03*
X0216378Y0136928D03*
X0216378Y0129054D03*
D23*
X0202599Y0192440D03*
X0194724Y0192440D03*
X0186850Y0192440D03*
X0178976Y0192440D03*
X0171102Y0192440D03*
X0163228Y0192440D03*
D24*
X0032101Y0203447D02*
X0032101Y0091286D01*
X0110881Y0091086D01*
X0110817Y0091150D01*
X0110447Y0091704D01*
X0110192Y0092319D01*
X0110062Y0092973D01*
X0110062Y0095147D01*
X0113204Y0095147D01*
X0113204Y0095630D01*
X0113204Y0100854D01*
X0113112Y0100854D01*
X0112458Y0100724D01*
X0111843Y0100469D01*
X0111289Y0100099D01*
X0110817Y0099628D01*
X0110447Y0099074D01*
X0110192Y0098458D01*
X0110062Y0097804D01*
X0110062Y0095630D01*
X0113204Y0095630D01*
X0113686Y0095630D01*
X0113686Y0100854D01*
X0113778Y0100854D01*
X0114432Y0100724D01*
X0115047Y0100469D01*
X0115601Y0100099D01*
X0116072Y0099628D01*
X0116443Y0099074D01*
X0116698Y0098458D01*
X0116828Y0097804D01*
X0116828Y0095630D01*
X0113686Y0095630D01*
X0113686Y0095147D01*
X0116828Y0095147D01*
X0116828Y0092973D01*
X0116698Y0092319D01*
X0116443Y0091704D01*
X0116072Y0091150D01*
X0115996Y0091073D01*
X0141471Y0091008D01*
X0141329Y0091150D01*
X0140959Y0091704D01*
X0140704Y0092319D01*
X0140574Y0092973D01*
X0140574Y0095147D01*
X0143715Y0095147D01*
X0143715Y0095630D01*
X0140574Y0095630D01*
X0140574Y0097804D01*
X0140704Y0098458D01*
X0140959Y0099074D01*
X0141329Y0099628D01*
X0141800Y0100099D01*
X0142354Y0100469D01*
X0142970Y0100724D01*
X0143624Y0100854D01*
X0143715Y0100854D01*
X0143715Y0095630D01*
X0144198Y0095630D01*
X0144198Y0100854D01*
X0144290Y0100854D01*
X0144943Y0100724D01*
X0145559Y0100469D01*
X0146113Y0100099D01*
X0146584Y0099628D01*
X0146954Y0099074D01*
X0147209Y0098458D01*
X0147339Y0097804D01*
X0147339Y0095630D01*
X0144198Y0095630D01*
X0144198Y0095147D01*
X0147339Y0095147D01*
X0147339Y0092973D01*
X0147209Y0092319D01*
X0146954Y0091704D01*
X0146584Y0091150D01*
X0146430Y0090995D01*
X0226801Y0090791D01*
X0226801Y0202952D01*
X0032101Y0203447D01*
X0032101Y0202909D02*
X0226801Y0202909D01*
X0226801Y0202310D02*
X0032101Y0202310D01*
X0032101Y0201712D02*
X0226801Y0201712D01*
X0226801Y0201113D02*
X0032101Y0201113D01*
X0032101Y0200515D02*
X0226801Y0200515D01*
X0226801Y0199916D02*
X0032101Y0199916D01*
X0032101Y0199318D02*
X0226801Y0199318D01*
X0226801Y0198719D02*
X0205860Y0198719D01*
X0205861Y0198718D02*
X0205334Y0199245D01*
X0199864Y0199245D01*
X0199336Y0198718D01*
X0199336Y0186162D01*
X0199864Y0185634D01*
X0205334Y0185634D01*
X0205861Y0186162D01*
X0205861Y0198718D01*
X0205861Y0198121D02*
X0226801Y0198121D01*
X0226801Y0197522D02*
X0205861Y0197522D01*
X0205861Y0196924D02*
X0226801Y0196924D01*
X0226801Y0196325D02*
X0205861Y0196325D01*
X0205861Y0195727D02*
X0226801Y0195727D01*
X0226801Y0195128D02*
X0205861Y0195128D01*
X0205861Y0194530D02*
X0226801Y0194530D01*
X0226801Y0193931D02*
X0205861Y0193931D01*
X0205861Y0193333D02*
X0226801Y0193333D01*
X0226801Y0192734D02*
X0205861Y0192734D01*
X0205861Y0192136D02*
X0226801Y0192136D01*
X0226801Y0191537D02*
X0205861Y0191537D01*
X0205861Y0190939D02*
X0226801Y0190939D01*
X0226801Y0190340D02*
X0205861Y0190340D01*
X0205861Y0189742D02*
X0226801Y0189742D01*
X0226801Y0189143D02*
X0205861Y0189143D01*
X0205861Y0188545D02*
X0226801Y0188545D01*
X0226801Y0187946D02*
X0205861Y0187946D01*
X0205861Y0187347D02*
X0210013Y0187347D01*
X0210100Y0187434D02*
X0209573Y0186907D01*
X0209573Y0185372D01*
X0207987Y0185372D01*
X0200704Y0178089D01*
X0200001Y0177386D01*
X0200001Y0138089D01*
X0176645Y0138089D01*
X0176604Y0138123D01*
X0176155Y0138089D01*
X0175704Y0138089D01*
X0175666Y0138051D01*
X0175613Y0138047D01*
X0175320Y0137705D01*
X0175001Y0137386D01*
X0175001Y0137333D01*
X0160649Y0120589D01*
X0143204Y0120589D01*
X0142501Y0119886D01*
X0140704Y0118089D01*
X0130208Y0118089D01*
X0130543Y0118228D01*
X0131182Y0118655D01*
X0131725Y0119198D01*
X0132152Y0119837D01*
X0132446Y0120546D01*
X0132596Y0121300D01*
X0132596Y0123984D01*
X0128996Y0123984D01*
X0128996Y0124584D01*
X0128396Y0124584D01*
X0128396Y0130784D01*
X0128312Y0130784D01*
X0127559Y0130634D01*
X0126849Y0130340D01*
X0126210Y0129913D01*
X0125667Y0129370D01*
X0125240Y0128731D01*
X0124946Y0128022D01*
X0124901Y0127794D01*
X0124901Y0132386D01*
X0118588Y0138699D01*
X0100569Y0138699D01*
X0100569Y0141809D01*
X0100042Y0142336D01*
X0095360Y0142336D01*
X0094832Y0141809D01*
X0094832Y0138699D01*
X0080624Y0138699D01*
X0075920Y0138958D01*
X0074250Y0141161D01*
X0074743Y0141654D01*
X0074743Y0147124D01*
X0074215Y0147651D01*
X0066383Y0147651D01*
X0065856Y0147124D01*
X0065856Y0145589D01*
X0049590Y0145589D01*
X0048703Y0147731D01*
X0047043Y0149390D01*
X0044874Y0150289D01*
X0042527Y0150289D01*
X0040359Y0149390D01*
X0038699Y0147731D01*
X0037801Y0145562D01*
X0037801Y0143215D01*
X0038699Y0141047D01*
X0040359Y0139387D01*
X0042527Y0138489D01*
X0044874Y0138489D01*
X0047043Y0139387D01*
X0048703Y0141047D01*
X0049590Y0143189D01*
X0065856Y0143189D01*
X0065856Y0141654D01*
X0066383Y0141126D01*
X0071266Y0141126D01*
X0074077Y0137416D01*
X0074074Y0137360D01*
X0074373Y0137026D01*
X0074643Y0136669D01*
X0074699Y0136662D01*
X0074737Y0136619D01*
X0075184Y0136595D01*
X0075628Y0136534D01*
X0075673Y0136568D01*
X0079701Y0136346D01*
X0079701Y0134289D01*
X0076128Y0134289D01*
X0075601Y0133761D01*
X0075601Y0128216D01*
X0076128Y0127689D01*
X0085674Y0127689D01*
X0086201Y0128216D01*
X0086201Y0133761D01*
X0085674Y0134289D01*
X0082101Y0134289D01*
X0082101Y0136299D01*
X0094832Y0136299D01*
X0094832Y0133189D01*
X0095360Y0132662D01*
X0100042Y0132662D01*
X0100569Y0133189D01*
X0100569Y0136299D01*
X0117594Y0136299D01*
X0122501Y0131392D01*
X0122501Y0118892D01*
X0125704Y0115689D01*
X0140413Y0115689D01*
X0140280Y0115555D01*
X0139845Y0114905D01*
X0139546Y0114181D01*
X0139393Y0113414D01*
X0139393Y0110649D01*
X0143066Y0110649D01*
X0143066Y0110049D01*
X0143666Y0110049D01*
X0143666Y0103703D01*
X0143758Y0103703D01*
X0144525Y0103856D01*
X0145248Y0104155D01*
X0145899Y0104590D01*
X0146452Y0105143D01*
X0146887Y0105794D01*
X0147187Y0106517D01*
X0147339Y0107285D01*
X0147339Y0110049D01*
X0143666Y0110049D01*
X0143666Y0110649D01*
X0147339Y0110649D01*
X0147339Y0113414D01*
X0147187Y0114181D01*
X0146887Y0114905D01*
X0146452Y0115555D01*
X0145899Y0116109D01*
X0145248Y0116544D01*
X0144525Y0116843D01*
X0143758Y0116996D01*
X0143666Y0116996D01*
X0143666Y0110649D01*
X0143066Y0110649D01*
X0143066Y0116996D01*
X0143005Y0116996D01*
X0144198Y0118189D01*
X0160757Y0118189D01*
X0160797Y0118154D01*
X0161247Y0118189D01*
X0161698Y0118189D01*
X0161735Y0118226D01*
X0161788Y0118230D01*
X0162082Y0118573D01*
X0162401Y0118892D01*
X0162401Y0118945D01*
X0176753Y0135689D01*
X0209573Y0135689D01*
X0209573Y0134193D01*
X0210100Y0133666D01*
X0222656Y0133666D01*
X0223184Y0134193D01*
X0223184Y0139663D01*
X0222656Y0140190D01*
X0210100Y0140190D01*
X0209573Y0139663D01*
X0209573Y0138089D01*
X0202401Y0138089D01*
X0202401Y0176392D01*
X0208981Y0182972D01*
X0209573Y0182972D01*
X0209573Y0181437D01*
X0210100Y0180910D01*
X0222656Y0180910D01*
X0223184Y0181437D01*
X0223184Y0186907D01*
X0222656Y0187434D01*
X0210100Y0187434D01*
X0209573Y0186749D02*
X0205861Y0186749D01*
X0205850Y0186150D02*
X0209573Y0186150D01*
X0209573Y0185552D02*
X0159017Y0185552D01*
X0159017Y0186150D02*
X0159977Y0186150D01*
X0159966Y0186162D02*
X0160493Y0185634D01*
X0165963Y0185634D01*
X0166491Y0186162D01*
X0166491Y0198718D01*
X0165963Y0199245D01*
X0160493Y0199245D01*
X0159966Y0198718D01*
X0159966Y0186162D01*
X0159966Y0186749D02*
X0159005Y0186749D01*
X0159017Y0186705D02*
X0158928Y0187036D01*
X0158757Y0187333D01*
X0158515Y0187575D01*
X0158218Y0187746D01*
X0157888Y0187834D01*
X0152111Y0187834D01*
X0152111Y0184472D01*
X0151511Y0184472D01*
X0151511Y0183872D01*
X0144606Y0183872D01*
X0144606Y0181639D01*
X0144694Y0181308D01*
X0144865Y0181012D01*
X0145107Y0180770D01*
X0145404Y0180598D01*
X0145734Y0180510D01*
X0151511Y0180510D01*
X0151511Y0183872D01*
X0152111Y0183872D01*
X0152111Y0180510D01*
X0157888Y0180510D01*
X0158218Y0180598D01*
X0158515Y0180770D01*
X0158757Y0181012D01*
X0158928Y0181308D01*
X0159017Y0181639D01*
X0159017Y0183872D01*
X0152111Y0183872D01*
X0152111Y0184472D01*
X0159017Y0184472D01*
X0159017Y0186705D01*
X0158742Y0187347D02*
X0159966Y0187347D01*
X0159966Y0187946D02*
X0131841Y0187946D01*
X0132439Y0187347D02*
X0144880Y0187347D01*
X0144865Y0187333D02*
X0144694Y0187036D01*
X0144606Y0186705D01*
X0144606Y0184472D01*
X0151511Y0184472D01*
X0151511Y0187834D01*
X0145734Y0187834D01*
X0145404Y0187746D01*
X0145107Y0187575D01*
X0144865Y0187333D01*
X0144617Y0186749D02*
X0133038Y0186749D01*
X0133636Y0186150D02*
X0144606Y0186150D01*
X0144606Y0185552D02*
X0134235Y0185552D01*
X0134833Y0184953D02*
X0144606Y0184953D01*
X0144606Y0183756D02*
X0136030Y0183756D01*
X0136629Y0183158D02*
X0144606Y0183158D01*
X0144606Y0182559D02*
X0137227Y0182559D01*
X0137826Y0181961D02*
X0144606Y0181961D01*
X0144680Y0181362D02*
X0138424Y0181362D01*
X0139023Y0180764D02*
X0145117Y0180764D01*
X0145533Y0179560D02*
X0145006Y0179033D01*
X0145006Y0173563D01*
X0145533Y0173036D01*
X0158089Y0173036D01*
X0158617Y0173563D01*
X0158617Y0179033D01*
X0158089Y0179560D01*
X0145533Y0179560D01*
X0145006Y0178968D02*
X0140818Y0178968D01*
X0141417Y0178370D02*
X0145006Y0178370D01*
X0145006Y0177771D02*
X0142015Y0177771D01*
X0141698Y0178089D02*
X0142401Y0177386D01*
X0142401Y0159067D01*
X0143590Y0157878D01*
X0143590Y0155899D01*
X0142190Y0154500D01*
X0140211Y0154500D01*
X0138812Y0155899D01*
X0138812Y0157878D01*
X0140001Y0159067D01*
X0140001Y0176392D01*
X0128204Y0188189D01*
X0094590Y0188189D01*
X0093703Y0186047D01*
X0092043Y0184387D01*
X0089874Y0183489D01*
X0087527Y0183489D01*
X0085359Y0184387D01*
X0083699Y0186047D01*
X0082801Y0188215D01*
X0082801Y0190562D01*
X0083699Y0192731D01*
X0085359Y0194390D01*
X0087527Y0195289D01*
X0089874Y0195289D01*
X0092043Y0194390D01*
X0093703Y0192731D01*
X0094590Y0190589D01*
X0129198Y0190589D01*
X0141698Y0178089D01*
X0142401Y0177173D02*
X0145006Y0177173D01*
X0145006Y0176574D02*
X0142401Y0176574D01*
X0142401Y0175976D02*
X0145006Y0175976D01*
X0145006Y0175377D02*
X0142401Y0175377D01*
X0142401Y0174779D02*
X0145006Y0174779D01*
X0145006Y0174180D02*
X0142401Y0174180D01*
X0142401Y0173582D02*
X0145006Y0173582D01*
X0145533Y0171686D02*
X0145006Y0171159D01*
X0145006Y0165689D01*
X0145533Y0165162D01*
X0158089Y0165162D01*
X0158617Y0165689D01*
X0158617Y0171159D01*
X0158089Y0171686D01*
X0145533Y0171686D01*
X0145034Y0171188D02*
X0142401Y0171188D01*
X0142401Y0171786D02*
X0200001Y0171786D01*
X0200001Y0171188D02*
X0158588Y0171188D01*
X0158617Y0170589D02*
X0200001Y0170589D01*
X0200001Y0169991D02*
X0158617Y0169991D01*
X0158617Y0169392D02*
X0200001Y0169392D01*
X0200001Y0168794D02*
X0158617Y0168794D01*
X0158617Y0168195D02*
X0200001Y0168195D01*
X0200001Y0167597D02*
X0158617Y0167597D01*
X0158617Y0166998D02*
X0200001Y0166998D01*
X0200001Y0166400D02*
X0158617Y0166400D01*
X0158617Y0165801D02*
X0200001Y0165801D01*
X0200001Y0165203D02*
X0158130Y0165203D01*
X0158089Y0163812D02*
X0145533Y0163812D01*
X0145006Y0163285D01*
X0145006Y0157815D01*
X0145533Y0157288D01*
X0158089Y0157288D01*
X0158617Y0157815D01*
X0158617Y0163285D01*
X0158089Y0163812D01*
X0158495Y0163407D02*
X0200001Y0163407D01*
X0200001Y0162809D02*
X0158617Y0162809D01*
X0158617Y0162210D02*
X0200001Y0162210D01*
X0200001Y0161611D02*
X0158617Y0161611D01*
X0158617Y0161013D02*
X0200001Y0161013D01*
X0200001Y0160414D02*
X0158617Y0160414D01*
X0158617Y0159816D02*
X0200001Y0159816D01*
X0200001Y0159217D02*
X0158617Y0159217D01*
X0158617Y0158619D02*
X0200001Y0158619D01*
X0200001Y0158020D02*
X0158617Y0158020D01*
X0158223Y0157422D02*
X0200001Y0157422D01*
X0200001Y0156823D02*
X0143590Y0156823D01*
X0143590Y0156225D02*
X0200001Y0156225D01*
X0200001Y0155626D02*
X0158401Y0155626D01*
X0158617Y0155411D02*
X0158089Y0155938D01*
X0145533Y0155938D01*
X0145006Y0155411D01*
X0145006Y0153876D01*
X0127401Y0153876D01*
X0127401Y0172386D01*
X0119198Y0180589D01*
X0100704Y0180589D01*
X0100001Y0179886D01*
X0095704Y0175589D01*
X0059198Y0175589D01*
X0048714Y0186073D01*
X0049601Y0188215D01*
X0049601Y0190562D01*
X0048703Y0192731D01*
X0047043Y0194390D01*
X0044874Y0195289D01*
X0042527Y0195289D01*
X0040359Y0194390D01*
X0038699Y0192731D01*
X0037801Y0190562D01*
X0037801Y0188215D01*
X0038699Y0186047D01*
X0040359Y0184387D01*
X0042527Y0183489D01*
X0044874Y0183489D01*
X0047017Y0184376D01*
X0057501Y0173892D01*
X0058204Y0173189D01*
X0096698Y0173189D01*
X0097401Y0173892D01*
X0101698Y0178189D01*
X0118204Y0178189D01*
X0125001Y0171392D01*
X0125001Y0153876D01*
X0120911Y0153876D01*
X0111499Y0163287D01*
X0110796Y0163990D01*
X0109463Y0163990D01*
X0109463Y0166706D01*
X0108936Y0167234D01*
X0103466Y0167234D01*
X0102939Y0166706D01*
X0102939Y0158874D01*
X0103466Y0158347D01*
X0108936Y0158347D01*
X0109463Y0158874D01*
X0109463Y0161590D01*
X0109802Y0161590D01*
X0119916Y0151476D01*
X0145006Y0151476D01*
X0145006Y0149941D01*
X0145533Y0149414D01*
X0158089Y0149414D01*
X0158617Y0149941D01*
X0158617Y0155411D01*
X0158617Y0155028D02*
X0200001Y0155028D01*
X0200001Y0154429D02*
X0158617Y0154429D01*
X0158617Y0153831D02*
X0200001Y0153831D01*
X0200001Y0153232D02*
X0158617Y0153232D01*
X0158617Y0152634D02*
X0200001Y0152634D01*
X0200001Y0152035D02*
X0158617Y0152035D01*
X0158617Y0151437D02*
X0200001Y0151437D01*
X0200001Y0150838D02*
X0158617Y0150838D01*
X0158617Y0150240D02*
X0200001Y0150240D01*
X0200001Y0149641D02*
X0158317Y0149641D01*
X0158089Y0148064D02*
X0145533Y0148064D01*
X0145006Y0147537D01*
X0145006Y0146089D01*
X0128879Y0146089D01*
X0127690Y0147278D01*
X0125711Y0147278D01*
X0124312Y0145878D01*
X0124312Y0143899D01*
X0125711Y0142500D01*
X0127690Y0142500D01*
X0128879Y0143689D01*
X0145006Y0143689D01*
X0145006Y0142067D01*
X0145533Y0141540D01*
X0158089Y0141540D01*
X0158617Y0142067D01*
X0158617Y0147537D01*
X0158089Y0148064D01*
X0158308Y0147846D02*
X0200001Y0147846D01*
X0200001Y0148444D02*
X0109463Y0148444D01*
X0109463Y0147846D02*
X0145314Y0147846D01*
X0145006Y0147247D02*
X0127721Y0147247D01*
X0128319Y0146649D02*
X0145006Y0146649D01*
X0145701Y0144889D02*
X0126701Y0144889D01*
X0124312Y0144853D02*
X0119933Y0144853D01*
X0119901Y0144886D02*
X0119198Y0145589D01*
X0086546Y0145589D01*
X0086546Y0147124D01*
X0086019Y0147651D01*
X0078186Y0147651D01*
X0077659Y0147124D01*
X0077659Y0141654D01*
X0078186Y0141126D01*
X0086019Y0141126D01*
X0086546Y0141654D01*
X0086546Y0143189D01*
X0118204Y0143189D01*
X0128204Y0133189D01*
X0133181Y0133189D01*
X0136428Y0129723D01*
X0135572Y0128866D01*
X0135039Y0127580D01*
X0135039Y0120988D01*
X0135572Y0119701D01*
X0136556Y0118717D01*
X0137842Y0118184D01*
X0139235Y0118184D01*
X0140521Y0118717D01*
X0141506Y0119701D01*
X0142039Y0120988D01*
X0142039Y0127580D01*
X0141506Y0128866D01*
X0140521Y0129851D01*
X0139235Y0130384D01*
X0139099Y0130384D01*
X0134901Y0134863D01*
X0134901Y0134886D01*
X0134563Y0135223D01*
X0134237Y0135572D01*
X0134214Y0135573D01*
X0134198Y0135589D01*
X0133720Y0135589D01*
X0133243Y0135604D01*
X0133226Y0135589D01*
X0129198Y0135589D01*
X0119901Y0144886D01*
X0119335Y0145452D02*
X0124312Y0145452D01*
X0124484Y0146050D02*
X0086546Y0146050D01*
X0086546Y0146649D02*
X0103361Y0146649D01*
X0103466Y0146544D02*
X0108936Y0146544D01*
X0109463Y0147071D01*
X0109463Y0154903D01*
X0108936Y0155430D01*
X0103466Y0155430D01*
X0102939Y0154903D01*
X0102939Y0152187D01*
X0102599Y0152187D01*
X0100438Y0154348D01*
X0096687Y0154348D01*
X0096687Y0155490D01*
X0096160Y0156017D01*
X0089903Y0156017D01*
X0089376Y0155490D01*
X0089376Y0154260D01*
X0088204Y0153089D01*
X0074198Y0153089D01*
X0072938Y0154348D01*
X0071687Y0154348D01*
X0071687Y0155490D01*
X0071160Y0156017D01*
X0064903Y0156017D01*
X0064376Y0155490D01*
X0064376Y0150807D01*
X0064903Y0150280D01*
X0071160Y0150280D01*
X0071687Y0150807D01*
X0071687Y0151948D01*
X0071944Y0151948D01*
X0073204Y0150689D01*
X0089198Y0150689D01*
X0089376Y0150866D01*
X0089376Y0150807D01*
X0089903Y0150280D01*
X0096160Y0150280D01*
X0096687Y0150807D01*
X0096687Y0151948D01*
X0099444Y0151948D01*
X0101605Y0149787D01*
X0102939Y0149787D01*
X0102939Y0147071D01*
X0103466Y0146544D01*
X0102939Y0147247D02*
X0086422Y0147247D01*
X0086546Y0143058D02*
X0118335Y0143058D01*
X0118933Y0142459D02*
X0086546Y0142459D01*
X0086546Y0141861D02*
X0094884Y0141861D01*
X0094832Y0141262D02*
X0086154Y0141262D01*
X0082102Y0144389D02*
X0118701Y0144389D01*
X0128701Y0134389D01*
X0133701Y0134389D01*
X0138539Y0129226D01*
X0138539Y0124284D01*
X0141760Y0120314D02*
X0142929Y0120314D01*
X0142331Y0119716D02*
X0141512Y0119716D01*
X0141732Y0119117D02*
X0140922Y0119117D01*
X0141134Y0118519D02*
X0140043Y0118519D01*
X0141201Y0116889D02*
X0126201Y0116889D01*
X0123701Y0119389D01*
X0123701Y0131889D01*
X0118091Y0137499D01*
X0097701Y0137499D01*
X0080878Y0137499D01*
X0080901Y0137476D01*
X0080901Y0130989D01*
X0082101Y0134678D02*
X0094832Y0134678D01*
X0094832Y0134080D02*
X0085882Y0134080D01*
X0086201Y0133481D02*
X0094832Y0133481D01*
X0095138Y0132883D02*
X0086201Y0132883D01*
X0086201Y0132284D02*
X0121608Y0132284D01*
X0122207Y0131686D02*
X0086201Y0131686D01*
X0086201Y0131087D02*
X0094766Y0131087D01*
X0094692Y0131014D02*
X0094521Y0130717D01*
X0094432Y0130387D01*
X0094432Y0126578D01*
X0097401Y0126578D01*
X0097401Y0125978D01*
X0098001Y0125978D01*
X0098001Y0121041D01*
X0099841Y0121041D01*
X0100171Y0121130D01*
X0100468Y0121301D01*
X0100710Y0121543D01*
X0100881Y0121840D01*
X0100969Y0122170D01*
X0100969Y0125978D01*
X0098001Y0125978D01*
X0098001Y0126578D01*
X0100969Y0126578D01*
X0100969Y0130387D01*
X0100881Y0130717D01*
X0100710Y0131014D01*
X0100468Y0131256D01*
X0100171Y0131427D01*
X0099841Y0131515D01*
X0098001Y0131515D01*
X0098001Y0126578D01*
X0097401Y0126578D01*
X0097401Y0131515D01*
X0095561Y0131515D01*
X0095231Y0131427D01*
X0094934Y0131256D01*
X0094692Y0131014D01*
X0094460Y0130489D02*
X0086201Y0130489D01*
X0086201Y0129890D02*
X0094432Y0129890D01*
X0094432Y0129292D02*
X0086201Y0129292D01*
X0086201Y0128693D02*
X0094432Y0128693D01*
X0094432Y0128095D02*
X0086080Y0128095D01*
X0085472Y0125589D02*
X0081201Y0125589D01*
X0081201Y0122189D01*
X0080601Y0122189D01*
X0080601Y0125589D01*
X0076330Y0125589D01*
X0075999Y0125500D01*
X0075703Y0125329D01*
X0075461Y0125087D01*
X0075289Y0124790D01*
X0075201Y0124460D01*
X0075201Y0122189D01*
X0080601Y0122189D01*
X0080601Y0121589D01*
X0075201Y0121589D01*
X0075201Y0119317D01*
X0075289Y0118987D01*
X0075461Y0118690D01*
X0075703Y0118448D01*
X0075999Y0118277D01*
X0076330Y0118189D01*
X0080601Y0118189D01*
X0080601Y0121589D01*
X0081201Y0121589D01*
X0081201Y0122189D01*
X0086601Y0122189D01*
X0086601Y0124460D01*
X0086512Y0124790D01*
X0086341Y0125087D01*
X0086099Y0125329D01*
X0085803Y0125500D01*
X0085472Y0125589D01*
X0086326Y0125102D02*
X0094432Y0125102D01*
X0094432Y0124504D02*
X0086589Y0124504D01*
X0086601Y0123905D02*
X0094432Y0123905D01*
X0094432Y0123307D02*
X0086601Y0123307D01*
X0086601Y0122708D02*
X0094432Y0122708D01*
X0094432Y0122170D02*
X0094521Y0121840D01*
X0094692Y0121543D01*
X0094934Y0121301D01*
X0095231Y0121130D01*
X0095561Y0121041D01*
X0097401Y0121041D01*
X0097401Y0125978D01*
X0094432Y0125978D01*
X0094432Y0122170D01*
X0094449Y0122110D02*
X0081201Y0122110D01*
X0081201Y0121589D02*
X0086601Y0121589D01*
X0086601Y0119317D01*
X0086512Y0118987D01*
X0086341Y0118690D01*
X0086099Y0118448D01*
X0085803Y0118277D01*
X0085472Y0118189D01*
X0081201Y0118189D01*
X0081201Y0121589D01*
X0081201Y0121511D02*
X0080601Y0121511D01*
X0080601Y0120913D02*
X0081201Y0120913D01*
X0081201Y0120314D02*
X0080601Y0120314D01*
X0080601Y0119716D02*
X0081201Y0119716D01*
X0081201Y0119117D02*
X0080601Y0119117D01*
X0080601Y0118519D02*
X0081201Y0118519D01*
X0080601Y0122110D02*
X0056800Y0122110D01*
X0056800Y0122189D02*
X0062131Y0122189D01*
X0062131Y0129146D01*
X0062042Y0129477D01*
X0061871Y0129773D01*
X0061629Y0130016D01*
X0061333Y0130187D01*
X0061002Y0130275D01*
X0056800Y0130275D01*
X0056800Y0122189D01*
X0056200Y0122189D01*
X0056200Y0130275D01*
X0051998Y0130275D01*
X0051668Y0130187D01*
X0051371Y0130016D01*
X0051129Y0129773D01*
X0050958Y0129477D01*
X0050869Y0129146D01*
X0050869Y0122189D01*
X0056200Y0122189D01*
X0056200Y0121589D01*
X0050869Y0121589D01*
X0050869Y0114631D01*
X0050958Y0114300D01*
X0051129Y0114004D01*
X0051371Y0113762D01*
X0051668Y0113591D01*
X0051998Y0113502D01*
X0056200Y0113502D01*
X0056200Y0121589D01*
X0056800Y0121589D01*
X0056800Y0122189D01*
X0056800Y0122708D02*
X0056200Y0122708D01*
X0056200Y0122110D02*
X0044001Y0122110D01*
X0044001Y0122189D02*
X0050001Y0122189D01*
X0050001Y0122384D01*
X0049846Y0123364D01*
X0049539Y0124307D01*
X0049089Y0125191D01*
X0048506Y0125993D01*
X0047805Y0126694D01*
X0047003Y0127277D01*
X0046119Y0127727D01*
X0045176Y0128034D01*
X0044197Y0128189D01*
X0044001Y0128189D01*
X0044001Y0122189D01*
X0043401Y0122189D01*
X0043401Y0128189D01*
X0043205Y0128189D01*
X0042226Y0128034D01*
X0041283Y0127727D01*
X0040399Y0127277D01*
X0039597Y0126694D01*
X0038895Y0125993D01*
X0038313Y0125191D01*
X0037862Y0124307D01*
X0037556Y0123364D01*
X0037401Y0122384D01*
X0037401Y0122189D01*
X0043401Y0122189D01*
X0043401Y0121589D01*
X0037401Y0121589D01*
X0037401Y0121393D01*
X0037556Y0120413D01*
X0037862Y0119470D01*
X0038313Y0118587D01*
X0038895Y0117784D01*
X0039597Y0117083D01*
X0040399Y0116500D01*
X0041283Y0116050D01*
X0042226Y0115744D01*
X0043205Y0115589D01*
X0043401Y0115589D01*
X0043401Y0121589D01*
X0044001Y0121589D01*
X0044001Y0122189D01*
X0044001Y0122708D02*
X0043401Y0122708D01*
X0043401Y0122110D02*
X0032101Y0122110D01*
X0032101Y0122708D02*
X0037452Y0122708D01*
X0037547Y0123307D02*
X0032101Y0123307D01*
X0032101Y0123905D02*
X0037732Y0123905D01*
X0037963Y0124504D02*
X0032101Y0124504D01*
X0032101Y0125102D02*
X0038268Y0125102D01*
X0038683Y0125701D02*
X0032101Y0125701D01*
X0032101Y0126299D02*
X0039202Y0126299D01*
X0039877Y0126898D02*
X0032101Y0126898D01*
X0032101Y0127496D02*
X0040830Y0127496D01*
X0042613Y0128095D02*
X0032101Y0128095D01*
X0032101Y0128693D02*
X0050869Y0128693D01*
X0050869Y0128095D02*
X0044789Y0128095D01*
X0044001Y0128095D02*
X0043401Y0128095D01*
X0043401Y0127496D02*
X0044001Y0127496D01*
X0044001Y0126898D02*
X0043401Y0126898D01*
X0043401Y0126299D02*
X0044001Y0126299D01*
X0044001Y0125701D02*
X0043401Y0125701D01*
X0043401Y0125102D02*
X0044001Y0125102D01*
X0044001Y0124504D02*
X0043401Y0124504D01*
X0043401Y0123905D02*
X0044001Y0123905D01*
X0044001Y0123307D02*
X0043401Y0123307D01*
X0043401Y0121511D02*
X0044001Y0121511D01*
X0044001Y0121589D02*
X0044001Y0115589D01*
X0044197Y0115589D01*
X0045176Y0115744D01*
X0046119Y0116050D01*
X0047003Y0116500D01*
X0047805Y0117083D01*
X0048506Y0117784D01*
X0049089Y0118587D01*
X0049539Y0119470D01*
X0049846Y0120413D01*
X0050001Y0121393D01*
X0050001Y0121589D01*
X0044001Y0121589D01*
X0044001Y0120913D02*
X0043401Y0120913D01*
X0043401Y0120314D02*
X0044001Y0120314D01*
X0044001Y0119716D02*
X0043401Y0119716D01*
X0043401Y0119117D02*
X0044001Y0119117D01*
X0044001Y0118519D02*
X0043401Y0118519D01*
X0043401Y0117920D02*
X0044001Y0117920D01*
X0044001Y0117322D02*
X0043401Y0117322D01*
X0043401Y0116723D02*
X0044001Y0116723D01*
X0044001Y0116125D02*
X0043401Y0116125D01*
X0041136Y0116125D02*
X0032101Y0116125D01*
X0032101Y0116723D02*
X0040092Y0116723D01*
X0039358Y0117322D02*
X0032101Y0117322D01*
X0032101Y0117920D02*
X0038797Y0117920D01*
X0038362Y0118519D02*
X0032101Y0118519D01*
X0032101Y0119117D02*
X0038042Y0119117D01*
X0037783Y0119716D02*
X0032101Y0119716D01*
X0032101Y0120314D02*
X0037588Y0120314D01*
X0037477Y0120913D02*
X0032101Y0120913D01*
X0032101Y0121511D02*
X0037401Y0121511D01*
X0032101Y0115526D02*
X0050869Y0115526D01*
X0050869Y0114928D02*
X0032101Y0114928D01*
X0032101Y0114329D02*
X0050950Y0114329D01*
X0051425Y0113731D02*
X0032101Y0113731D01*
X0032101Y0113132D02*
X0075601Y0113132D01*
X0075601Y0112534D02*
X0032101Y0112534D01*
X0032101Y0111935D02*
X0075601Y0111935D01*
X0075601Y0111337D02*
X0032101Y0111337D01*
X0032101Y0110738D02*
X0075601Y0110738D01*
X0075601Y0110140D02*
X0032101Y0110140D01*
X0032101Y0109541D02*
X0076076Y0109541D01*
X0076128Y0109489D02*
X0079701Y0109489D01*
X0079701Y0109192D01*
X0079913Y0108979D01*
X0078812Y0107878D01*
X0078812Y0106197D01*
X0073204Y0100589D01*
X0049590Y0100589D01*
X0048703Y0102731D01*
X0047043Y0104390D01*
X0044874Y0105289D01*
X0042527Y0105289D01*
X0040359Y0104390D01*
X0038699Y0102731D01*
X0037801Y0100562D01*
X0037801Y0098215D01*
X0038699Y0096047D01*
X0040359Y0094387D01*
X0042527Y0093489D01*
X0044874Y0093489D01*
X0047043Y0094387D01*
X0048703Y0096047D01*
X0049590Y0098189D01*
X0074198Y0098189D01*
X0080509Y0104500D01*
X0082190Y0104500D01*
X0083590Y0105899D01*
X0083590Y0107878D01*
X0082401Y0109067D01*
X0082401Y0109489D01*
X0085674Y0109489D01*
X0086201Y0110016D01*
X0086201Y0111589D01*
X0087333Y0111589D01*
X0087354Y0111569D01*
X0087826Y0111589D01*
X0088298Y0111589D01*
X0088319Y0111609D01*
X0088348Y0111610D01*
X0088667Y0111958D01*
X0089001Y0112292D01*
X0089001Y0112321D01*
X0090488Y0113938D01*
X0093242Y0113964D01*
X0093242Y0111685D01*
X0093769Y0111158D01*
X0101601Y0111158D01*
X0102128Y0111685D01*
X0102128Y0113972D01*
X0106458Y0113937D01*
X0106463Y0113931D01*
X0106954Y0113933D01*
X0107444Y0113929D01*
X0107449Y0113934D01*
X0107457Y0113934D01*
X0107803Y0114282D01*
X0108153Y0114626D01*
X0108153Y0114634D01*
X0109700Y0116189D01*
X0111622Y0116189D01*
X0111503Y0116109D01*
X0110949Y0115555D01*
X0110514Y0114905D01*
X0110215Y0114181D01*
X0110062Y0113414D01*
X0110062Y0110649D01*
X0113735Y0110649D01*
X0113735Y0110049D01*
X0110062Y0110049D01*
X0110062Y0107285D01*
X0110215Y0106517D01*
X0110514Y0105794D01*
X0110949Y0105143D01*
X0111503Y0104590D01*
X0112153Y0104155D01*
X0112877Y0103856D01*
X0113644Y0103703D01*
X0113736Y0103703D01*
X0113736Y0110049D01*
X0114335Y0110049D01*
X0114335Y0103703D01*
X0114427Y0103703D01*
X0115194Y0103856D01*
X0115918Y0104155D01*
X0116568Y0104590D01*
X0116776Y0104798D01*
X0117456Y0104117D01*
X0118366Y0103741D01*
X0119351Y0103741D01*
X0120260Y0104117D01*
X0120956Y0104814D01*
X0121333Y0105723D01*
X0121333Y0106708D01*
X0120956Y0107617D01*
X0120260Y0108313D01*
X0119351Y0108690D01*
X0118366Y0108690D01*
X0118009Y0108542D01*
X0118009Y0110049D01*
X0114336Y0110049D01*
X0114336Y0110649D01*
X0118009Y0110649D01*
X0118009Y0113414D01*
X0117856Y0114181D01*
X0117605Y0114787D01*
X0121203Y0111189D01*
X0121500Y0110846D01*
X0121550Y0110842D01*
X0121586Y0110807D01*
X0121797Y0110807D01*
X0121797Y0107417D01*
X0122324Y0106890D01*
X0124841Y0106890D01*
X0124862Y0106911D01*
X0124883Y0106890D01*
X0127400Y0106890D01*
X0127421Y0106911D01*
X0127442Y0106890D01*
X0129959Y0106890D01*
X0129980Y0106911D01*
X0130001Y0106890D01*
X0131995Y0106890D01*
X0132135Y0106750D01*
X0132431Y0106579D01*
X0132762Y0106490D01*
X0133676Y0106490D01*
X0133676Y0110206D01*
X0133962Y0110206D01*
X0133962Y0106490D01*
X0134876Y0106490D01*
X0135207Y0106579D01*
X0135503Y0106750D01*
X0135745Y0106992D01*
X0135916Y0107288D01*
X0136005Y0107619D01*
X0136005Y0110206D01*
X0133962Y0110206D01*
X0133962Y0110492D01*
X0136005Y0110492D01*
X0136005Y0113079D01*
X0135916Y0113410D01*
X0135745Y0113707D01*
X0135503Y0113949D01*
X0135207Y0114120D01*
X0134876Y0114208D01*
X0133962Y0114208D01*
X0133962Y0110492D01*
X0133676Y0110492D01*
X0133676Y0114208D01*
X0132762Y0114208D01*
X0132431Y0114120D01*
X0132135Y0113949D01*
X0131995Y0113808D01*
X0130001Y0113808D01*
X0129980Y0113787D01*
X0129959Y0113808D01*
X0127442Y0113808D01*
X0127421Y0113787D01*
X0127400Y0113808D01*
X0124883Y0113808D01*
X0124862Y0113787D01*
X0124841Y0113808D01*
X0122324Y0113808D01*
X0122151Y0113635D01*
X0117901Y0117886D01*
X0117210Y0118576D01*
X0118157Y0118184D01*
X0119550Y0118184D01*
X0120836Y0118717D01*
X0121821Y0119701D01*
X0122354Y0120988D01*
X0122354Y0127580D01*
X0121821Y0128866D01*
X0120836Y0129851D01*
X0119550Y0130384D01*
X0118157Y0130384D01*
X0116871Y0129851D01*
X0115886Y0128866D01*
X0115354Y0127580D01*
X0115354Y0120988D01*
X0115886Y0119701D01*
X0116871Y0118717D01*
X0117180Y0118589D01*
X0109696Y0118589D01*
X0109695Y0118590D01*
X0109198Y0118589D01*
X0108704Y0118589D01*
X0108703Y0118587D01*
X0108701Y0118587D01*
X0108350Y0118235D01*
X0108001Y0117886D01*
X0108001Y0117884D01*
X0106462Y0116337D01*
X0102128Y0116372D01*
X0102128Y0118730D01*
X0101601Y0119257D01*
X0093769Y0119257D01*
X0093242Y0118730D01*
X0093242Y0116365D01*
X0090420Y0116337D01*
X0090403Y0116352D01*
X0089926Y0116332D01*
X0089448Y0116328D01*
X0089432Y0116312D01*
X0089410Y0116311D01*
X0089086Y0115959D01*
X0088752Y0115618D01*
X0088752Y0115596D01*
X0087274Y0113989D01*
X0086201Y0113989D01*
X0086201Y0115561D01*
X0085674Y0116089D01*
X0076128Y0116089D01*
X0075601Y0115561D01*
X0075601Y0110016D01*
X0076128Y0109489D01*
X0078812Y0107745D02*
X0032101Y0107745D01*
X0032101Y0107147D02*
X0078812Y0107147D01*
X0078812Y0106548D02*
X0032101Y0106548D01*
X0032101Y0105950D02*
X0078565Y0105950D01*
X0077967Y0105351D02*
X0032101Y0105351D01*
X0032101Y0104753D02*
X0041234Y0104753D01*
X0040123Y0104154D02*
X0032101Y0104154D01*
X0032101Y0103556D02*
X0039524Y0103556D01*
X0038926Y0102957D02*
X0032101Y0102957D01*
X0032101Y0102359D02*
X0038545Y0102359D01*
X0038297Y0101760D02*
X0032101Y0101760D01*
X0032101Y0101162D02*
X0038049Y0101162D01*
X0037801Y0100563D02*
X0032101Y0100563D01*
X0032101Y0099965D02*
X0037801Y0099965D01*
X0037801Y0099366D02*
X0032101Y0099366D01*
X0032101Y0098768D02*
X0037801Y0098768D01*
X0037820Y0098169D02*
X0032101Y0098169D01*
X0032101Y0097571D02*
X0038068Y0097571D01*
X0038316Y0096972D02*
X0032101Y0096972D01*
X0032101Y0096374D02*
X0038564Y0096374D01*
X0038970Y0095775D02*
X0032101Y0095775D01*
X0032101Y0095177D02*
X0039569Y0095177D01*
X0040167Y0094578D02*
X0032101Y0094578D01*
X0032101Y0093980D02*
X0041342Y0093980D01*
X0046060Y0093980D02*
X0110062Y0093980D01*
X0110062Y0094578D02*
X0047234Y0094578D01*
X0047833Y0095177D02*
X0113204Y0095177D01*
X0113686Y0095177D02*
X0143715Y0095177D01*
X0144198Y0095177D02*
X0226801Y0095177D01*
X0226801Y0095775D02*
X0147339Y0095775D01*
X0147339Y0096374D02*
X0226801Y0096374D01*
X0226801Y0096972D02*
X0147339Y0096972D01*
X0147339Y0097571D02*
X0226801Y0097571D01*
X0226801Y0098169D02*
X0147267Y0098169D01*
X0147081Y0098768D02*
X0226801Y0098768D01*
X0226801Y0099366D02*
X0146759Y0099366D01*
X0146247Y0099965D02*
X0226801Y0099965D01*
X0226801Y0100563D02*
X0145331Y0100563D01*
X0144198Y0100563D02*
X0143715Y0100563D01*
X0143715Y0099965D02*
X0144198Y0099965D01*
X0144198Y0099366D02*
X0143715Y0099366D01*
X0143715Y0098768D02*
X0144198Y0098768D01*
X0144198Y0098169D02*
X0143715Y0098169D01*
X0143715Y0097571D02*
X0144198Y0097571D01*
X0144198Y0096972D02*
X0143715Y0096972D01*
X0143715Y0096374D02*
X0144198Y0096374D01*
X0144198Y0095775D02*
X0143715Y0095775D01*
X0140574Y0095775D02*
X0116828Y0095775D01*
X0116828Y0096374D02*
X0140574Y0096374D01*
X0140574Y0096972D02*
X0116828Y0096972D01*
X0116828Y0097571D02*
X0140574Y0097571D01*
X0140647Y0098169D02*
X0116755Y0098169D01*
X0116569Y0098768D02*
X0140832Y0098768D01*
X0141155Y0099366D02*
X0116247Y0099366D01*
X0115735Y0099965D02*
X0141666Y0099965D01*
X0142582Y0100563D02*
X0114820Y0100563D01*
X0113686Y0100563D02*
X0113204Y0100563D01*
X0113204Y0099965D02*
X0113686Y0099965D01*
X0113686Y0099366D02*
X0113204Y0099366D01*
X0113204Y0098768D02*
X0113686Y0098768D01*
X0113686Y0098169D02*
X0113204Y0098169D01*
X0113204Y0097571D02*
X0113686Y0097571D01*
X0113686Y0096972D02*
X0113204Y0096972D01*
X0113204Y0096374D02*
X0113686Y0096374D01*
X0113686Y0095775D02*
X0113204Y0095775D01*
X0110062Y0095775D02*
X0048431Y0095775D01*
X0048838Y0096374D02*
X0110062Y0096374D01*
X0110062Y0096972D02*
X0049086Y0096972D01*
X0049334Y0097571D02*
X0110062Y0097571D01*
X0110135Y0098169D02*
X0049582Y0098169D01*
X0049352Y0101162D02*
X0073777Y0101162D01*
X0074376Y0101760D02*
X0049105Y0101760D01*
X0048857Y0102359D02*
X0074974Y0102359D01*
X0075573Y0102957D02*
X0048476Y0102957D01*
X0047877Y0103556D02*
X0076171Y0103556D01*
X0076770Y0104154D02*
X0047279Y0104154D01*
X0046168Y0104753D02*
X0077368Y0104753D01*
X0078967Y0102957D02*
X0092842Y0102957D01*
X0092842Y0102359D02*
X0078368Y0102359D01*
X0077770Y0101760D02*
X0092842Y0101760D01*
X0092842Y0101162D02*
X0077171Y0101162D01*
X0076573Y0100563D02*
X0092922Y0100563D01*
X0092930Y0100533D02*
X0093102Y0100236D01*
X0093344Y0099994D01*
X0093640Y0099823D01*
X0093971Y0099734D01*
X0097385Y0099734D01*
X0097385Y0103884D01*
X0092842Y0103884D01*
X0092842Y0100863D01*
X0092930Y0100533D01*
X0093394Y0099965D02*
X0075974Y0099965D01*
X0075376Y0099366D02*
X0110643Y0099366D01*
X0110321Y0098768D02*
X0074777Y0098768D01*
X0073701Y0099389D02*
X0081201Y0106889D01*
X0081201Y0109389D01*
X0080901Y0109689D01*
X0080901Y0112789D01*
X0087801Y0112789D01*
X0089957Y0115133D01*
X0097685Y0115208D01*
X0106957Y0115133D01*
X0109201Y0117389D01*
X0116701Y0117389D01*
X0122083Y0112007D01*
X0123701Y0111889D01*
X0123701Y0111231D01*
X0123583Y0110349D01*
X0121797Y0110140D02*
X0114336Y0110140D01*
X0114335Y0109541D02*
X0113736Y0109541D01*
X0113736Y0108942D02*
X0114335Y0108942D01*
X0114335Y0108344D02*
X0113736Y0108344D01*
X0113736Y0107745D02*
X0114335Y0107745D01*
X0114335Y0107147D02*
X0113736Y0107147D01*
X0113736Y0106548D02*
X0114335Y0106548D01*
X0114335Y0105950D02*
X0113736Y0105950D01*
X0113736Y0105351D02*
X0114335Y0105351D01*
X0114335Y0104753D02*
X0113736Y0104753D01*
X0113736Y0104154D02*
X0114335Y0104154D01*
X0115916Y0104154D02*
X0117419Y0104154D01*
X0116821Y0104753D02*
X0116731Y0104753D01*
X0120297Y0104154D02*
X0137104Y0104154D01*
X0137142Y0104117D02*
X0138051Y0103741D01*
X0139036Y0103741D01*
X0139945Y0104117D01*
X0140626Y0104798D01*
X0140833Y0104590D01*
X0141484Y0104155D01*
X0142207Y0103856D01*
X0142975Y0103703D01*
X0143066Y0103703D01*
X0143066Y0110049D01*
X0139393Y0110049D01*
X0139393Y0108542D01*
X0139036Y0108690D01*
X0138051Y0108690D01*
X0137142Y0108313D01*
X0136445Y0107617D01*
X0136069Y0106708D01*
X0136069Y0105723D01*
X0136445Y0104814D01*
X0137142Y0104117D01*
X0136506Y0104753D02*
X0120896Y0104753D01*
X0121179Y0105351D02*
X0136223Y0105351D01*
X0136069Y0105950D02*
X0121333Y0105950D01*
X0121333Y0106548D02*
X0132545Y0106548D01*
X0133676Y0106548D02*
X0133962Y0106548D01*
X0133962Y0107147D02*
X0133676Y0107147D01*
X0133676Y0107745D02*
X0133962Y0107745D01*
X0133962Y0108344D02*
X0133676Y0108344D01*
X0133676Y0108942D02*
X0133962Y0108942D01*
X0133962Y0109541D02*
X0133676Y0109541D01*
X0133676Y0110140D02*
X0133962Y0110140D01*
X0133962Y0110738D02*
X0133676Y0110738D01*
X0133676Y0111337D02*
X0133962Y0111337D01*
X0133962Y0111935D02*
X0133676Y0111935D01*
X0133676Y0112534D02*
X0133962Y0112534D01*
X0133962Y0113132D02*
X0133676Y0113132D01*
X0133676Y0113731D02*
X0133962Y0113731D01*
X0135721Y0113731D02*
X0139456Y0113731D01*
X0139393Y0113132D02*
X0135991Y0113132D01*
X0136005Y0112534D02*
X0139393Y0112534D01*
X0139393Y0111935D02*
X0136005Y0111935D01*
X0136005Y0111337D02*
X0139393Y0111337D01*
X0139393Y0110738D02*
X0136005Y0110738D01*
X0136005Y0110140D02*
X0143066Y0110140D01*
X0143066Y0110738D02*
X0143666Y0110738D01*
X0143666Y0110140D02*
X0226801Y0110140D01*
X0226801Y0110738D02*
X0147339Y0110738D01*
X0147339Y0111337D02*
X0226801Y0111337D01*
X0226801Y0111935D02*
X0147339Y0111935D01*
X0147339Y0112534D02*
X0226801Y0112534D01*
X0226801Y0113132D02*
X0147339Y0113132D01*
X0147276Y0113731D02*
X0226801Y0113731D01*
X0226801Y0114329D02*
X0147126Y0114329D01*
X0146872Y0114928D02*
X0226801Y0114928D01*
X0226801Y0115526D02*
X0146472Y0115526D01*
X0145875Y0116125D02*
X0226801Y0116125D01*
X0226801Y0116723D02*
X0144815Y0116723D01*
X0143666Y0116723D02*
X0143066Y0116723D01*
X0143066Y0116125D02*
X0143666Y0116125D01*
X0143666Y0115526D02*
X0143066Y0115526D01*
X0143066Y0114928D02*
X0143666Y0114928D01*
X0143666Y0114329D02*
X0143066Y0114329D01*
X0143066Y0113731D02*
X0143666Y0113731D01*
X0143666Y0113132D02*
X0143066Y0113132D01*
X0143066Y0112534D02*
X0143666Y0112534D01*
X0143666Y0111935D02*
X0143066Y0111935D01*
X0143066Y0111337D02*
X0143666Y0111337D01*
X0143666Y0109541D02*
X0143066Y0109541D01*
X0143066Y0108942D02*
X0143666Y0108942D01*
X0143666Y0108344D02*
X0143066Y0108344D01*
X0143066Y0107745D02*
X0143666Y0107745D01*
X0143666Y0107147D02*
X0143066Y0107147D01*
X0143066Y0106548D02*
X0143666Y0106548D01*
X0143666Y0105950D02*
X0143066Y0105950D01*
X0143066Y0105351D02*
X0143666Y0105351D01*
X0143666Y0104753D02*
X0143066Y0104753D01*
X0143066Y0104154D02*
X0143666Y0104154D01*
X0145247Y0104154D02*
X0226801Y0104154D01*
X0226801Y0103556D02*
X0102528Y0103556D01*
X0102528Y0103884D02*
X0102528Y0100863D01*
X0102440Y0100533D01*
X0102269Y0100236D01*
X0102027Y0099994D01*
X0101730Y0099823D01*
X0101400Y0099734D01*
X0097985Y0099734D01*
X0097985Y0103884D01*
X0097385Y0103884D01*
X0097385Y0104484D01*
X0092842Y0104484D01*
X0092842Y0107505D01*
X0092930Y0107835D01*
X0093102Y0108132D01*
X0093344Y0108374D01*
X0093640Y0108545D01*
X0093971Y0108634D01*
X0097385Y0108634D01*
X0097385Y0104484D01*
X0097985Y0104484D01*
X0097985Y0108634D01*
X0101400Y0108634D01*
X0101730Y0108545D01*
X0102027Y0108374D01*
X0102269Y0108132D01*
X0102440Y0107835D01*
X0102528Y0107505D01*
X0102528Y0104484D01*
X0097985Y0104484D01*
X0097985Y0103884D01*
X0102528Y0103884D01*
X0102528Y0104753D02*
X0111340Y0104753D01*
X0110810Y0105351D02*
X0102528Y0105351D01*
X0102528Y0105950D02*
X0110450Y0105950D01*
X0110209Y0106548D02*
X0102528Y0106548D01*
X0102528Y0107147D02*
X0110090Y0107147D01*
X0110062Y0107745D02*
X0102464Y0107745D01*
X0102056Y0108344D02*
X0110062Y0108344D01*
X0110062Y0108942D02*
X0082526Y0108942D01*
X0083124Y0108344D02*
X0093314Y0108344D01*
X0092906Y0107745D02*
X0083590Y0107745D01*
X0083590Y0107147D02*
X0092842Y0107147D01*
X0092842Y0106548D02*
X0083590Y0106548D01*
X0083590Y0105950D02*
X0092842Y0105950D01*
X0092842Y0105351D02*
X0083042Y0105351D01*
X0082444Y0104753D02*
X0092842Y0104753D01*
X0092842Y0103556D02*
X0079565Y0103556D01*
X0080164Y0104154D02*
X0097385Y0104154D01*
X0097385Y0103556D02*
X0097985Y0103556D01*
X0097985Y0104154D02*
X0112155Y0104154D01*
X0112070Y0100563D02*
X0102448Y0100563D01*
X0102528Y0101162D02*
X0226801Y0101162D01*
X0226801Y0101760D02*
X0102528Y0101760D01*
X0102528Y0102359D02*
X0226801Y0102359D01*
X0226801Y0102957D02*
X0102528Y0102957D01*
X0101976Y0099965D02*
X0111155Y0099965D01*
X0110062Y0093381D02*
X0032101Y0093381D01*
X0032101Y0092783D02*
X0110100Y0092783D01*
X0110248Y0092184D02*
X0032101Y0092184D01*
X0032101Y0091586D02*
X0110526Y0091586D01*
X0116364Y0091586D02*
X0141038Y0091586D01*
X0140760Y0092184D02*
X0116642Y0092184D01*
X0116790Y0092783D02*
X0140612Y0092783D01*
X0140574Y0093381D02*
X0116828Y0093381D01*
X0116828Y0093980D02*
X0140574Y0093980D01*
X0140574Y0094578D02*
X0116828Y0094578D01*
X0121151Y0107147D02*
X0122067Y0107147D01*
X0121797Y0107745D02*
X0120828Y0107745D01*
X0120186Y0108344D02*
X0121797Y0108344D01*
X0121797Y0108942D02*
X0118009Y0108942D01*
X0118009Y0109541D02*
X0121797Y0109541D01*
X0121797Y0110738D02*
X0118009Y0110738D01*
X0118009Y0111337D02*
X0121056Y0111337D01*
X0120457Y0111935D02*
X0118009Y0111935D01*
X0118009Y0112534D02*
X0119859Y0112534D01*
X0119260Y0113132D02*
X0118009Y0113132D01*
X0117946Y0113731D02*
X0118662Y0113731D01*
X0118063Y0114329D02*
X0117795Y0114329D01*
X0119662Y0116125D02*
X0125268Y0116125D01*
X0124669Y0116723D02*
X0119063Y0116723D01*
X0118465Y0117322D02*
X0124071Y0117322D01*
X0123472Y0117920D02*
X0117866Y0117920D01*
X0117349Y0118519D02*
X0117268Y0118519D01*
X0116471Y0119117D02*
X0101741Y0119117D01*
X0102128Y0118519D02*
X0108632Y0118519D01*
X0108035Y0117920D02*
X0102128Y0117920D01*
X0102128Y0117322D02*
X0107442Y0117322D01*
X0106846Y0116723D02*
X0102128Y0116723D01*
X0102128Y0113731D02*
X0110125Y0113731D01*
X0110062Y0113132D02*
X0102128Y0113132D01*
X0102128Y0112534D02*
X0110062Y0112534D01*
X0110062Y0111935D02*
X0102128Y0111935D01*
X0101780Y0111337D02*
X0110062Y0111337D01*
X0110062Y0110738D02*
X0086201Y0110738D01*
X0086201Y0110140D02*
X0113735Y0110140D01*
X0110062Y0109541D02*
X0085726Y0109541D01*
X0086201Y0111337D02*
X0093590Y0111337D01*
X0093242Y0111935D02*
X0088646Y0111935D01*
X0089197Y0112534D02*
X0093242Y0112534D01*
X0093242Y0113132D02*
X0089747Y0113132D01*
X0090298Y0113731D02*
X0093242Y0113731D01*
X0093242Y0116723D02*
X0062131Y0116723D01*
X0062131Y0116125D02*
X0089239Y0116125D01*
X0088688Y0115526D02*
X0086201Y0115526D01*
X0086201Y0114928D02*
X0088138Y0114928D01*
X0087587Y0114329D02*
X0086201Y0114329D01*
X0086169Y0118519D02*
X0093242Y0118519D01*
X0093242Y0117920D02*
X0062131Y0117920D01*
X0062131Y0117322D02*
X0093242Y0117322D01*
X0093629Y0119117D02*
X0086547Y0119117D01*
X0086601Y0119716D02*
X0115881Y0119716D01*
X0115633Y0120314D02*
X0086601Y0120314D01*
X0086601Y0120913D02*
X0115385Y0120913D01*
X0115354Y0121511D02*
X0100678Y0121511D01*
X0100953Y0122110D02*
X0115354Y0122110D01*
X0115354Y0122708D02*
X0100969Y0122708D01*
X0100969Y0123307D02*
X0115354Y0123307D01*
X0115354Y0123905D02*
X0100969Y0123905D01*
X0100969Y0124504D02*
X0115354Y0124504D01*
X0115354Y0125102D02*
X0100969Y0125102D01*
X0100969Y0125701D02*
X0115354Y0125701D01*
X0115354Y0126299D02*
X0098001Y0126299D01*
X0098001Y0125701D02*
X0097401Y0125701D01*
X0097401Y0126299D02*
X0062131Y0126299D01*
X0062131Y0125701D02*
X0094432Y0125701D01*
X0094432Y0126898D02*
X0062131Y0126898D01*
X0062131Y0127496D02*
X0094432Y0127496D01*
X0097401Y0127496D02*
X0098001Y0127496D01*
X0098001Y0126898D02*
X0097401Y0126898D01*
X0097401Y0128095D02*
X0098001Y0128095D01*
X0098001Y0128693D02*
X0097401Y0128693D01*
X0097401Y0129292D02*
X0098001Y0129292D01*
X0098001Y0129890D02*
X0097401Y0129890D01*
X0097401Y0130489D02*
X0098001Y0130489D01*
X0098001Y0131087D02*
X0097401Y0131087D01*
X0100636Y0131087D02*
X0122501Y0131087D01*
X0122501Y0130489D02*
X0100942Y0130489D01*
X0100969Y0129890D02*
X0116966Y0129890D01*
X0116312Y0129292D02*
X0100969Y0129292D01*
X0100969Y0128693D02*
X0115815Y0128693D01*
X0115567Y0128095D02*
X0100969Y0128095D01*
X0100969Y0127496D02*
X0115354Y0127496D01*
X0115354Y0126898D02*
X0100969Y0126898D01*
X0098001Y0125102D02*
X0097401Y0125102D01*
X0097401Y0124504D02*
X0098001Y0124504D01*
X0098001Y0123905D02*
X0097401Y0123905D01*
X0097401Y0123307D02*
X0098001Y0123307D01*
X0098001Y0122708D02*
X0097401Y0122708D01*
X0097401Y0122110D02*
X0098001Y0122110D01*
X0098001Y0121511D02*
X0097401Y0121511D01*
X0094724Y0121511D02*
X0086601Y0121511D01*
X0081201Y0122708D02*
X0080601Y0122708D01*
X0080601Y0123307D02*
X0081201Y0123307D01*
X0081201Y0123905D02*
X0080601Y0123905D01*
X0080601Y0124504D02*
X0081201Y0124504D01*
X0081201Y0125102D02*
X0080601Y0125102D01*
X0075722Y0128095D02*
X0062131Y0128095D01*
X0062131Y0128693D02*
X0075601Y0128693D01*
X0075601Y0129292D02*
X0062092Y0129292D01*
X0061754Y0129890D02*
X0075601Y0129890D01*
X0075601Y0130489D02*
X0032101Y0130489D01*
X0032101Y0131087D02*
X0075601Y0131087D01*
X0075601Y0131686D02*
X0032101Y0131686D01*
X0032101Y0132284D02*
X0075601Y0132284D01*
X0075601Y0132883D02*
X0032101Y0132883D01*
X0032101Y0133481D02*
X0075601Y0133481D01*
X0075919Y0134080D02*
X0032101Y0134080D01*
X0032101Y0134678D02*
X0079701Y0134678D01*
X0079701Y0135277D02*
X0032101Y0135277D01*
X0032101Y0135876D02*
X0079701Y0135876D01*
X0080591Y0137499D02*
X0075299Y0137790D01*
X0070299Y0144389D01*
X0043701Y0144389D01*
X0049151Y0146649D02*
X0065856Y0146649D01*
X0065856Y0146050D02*
X0049399Y0146050D01*
X0048903Y0147247D02*
X0065980Y0147247D01*
X0064376Y0150838D02*
X0032101Y0150838D01*
X0032101Y0150240D02*
X0042409Y0150240D01*
X0040964Y0149641D02*
X0032101Y0149641D01*
X0032101Y0149043D02*
X0040011Y0149043D01*
X0039413Y0148444D02*
X0032101Y0148444D01*
X0032101Y0147846D02*
X0038814Y0147846D01*
X0038499Y0147247D02*
X0032101Y0147247D01*
X0032101Y0146649D02*
X0038251Y0146649D01*
X0038003Y0146050D02*
X0032101Y0146050D01*
X0032101Y0145452D02*
X0037801Y0145452D01*
X0037801Y0144853D02*
X0032101Y0144853D01*
X0032101Y0144255D02*
X0037801Y0144255D01*
X0037801Y0143656D02*
X0032101Y0143656D01*
X0032101Y0143058D02*
X0037866Y0143058D01*
X0038114Y0142459D02*
X0032101Y0142459D01*
X0032101Y0141861D02*
X0038362Y0141861D01*
X0038610Y0141262D02*
X0032101Y0141262D01*
X0032101Y0140664D02*
X0039082Y0140664D01*
X0039681Y0140065D02*
X0032101Y0140065D01*
X0032101Y0139467D02*
X0040279Y0139467D01*
X0041611Y0138868D02*
X0032101Y0138868D01*
X0032101Y0138270D02*
X0073430Y0138270D01*
X0072977Y0138868D02*
X0045790Y0138868D01*
X0047123Y0139467D02*
X0072523Y0139467D01*
X0072070Y0140065D02*
X0047721Y0140065D01*
X0048320Y0140664D02*
X0071616Y0140664D01*
X0074351Y0141262D02*
X0078051Y0141262D01*
X0077659Y0141861D02*
X0074743Y0141861D01*
X0074743Y0142459D02*
X0077659Y0142459D01*
X0077659Y0143058D02*
X0074743Y0143058D01*
X0074743Y0143656D02*
X0077659Y0143656D01*
X0077659Y0144255D02*
X0074743Y0144255D01*
X0074743Y0144853D02*
X0077659Y0144853D01*
X0077659Y0145452D02*
X0074743Y0145452D01*
X0074743Y0146050D02*
X0077659Y0146050D01*
X0077659Y0146649D02*
X0074743Y0146649D01*
X0074619Y0147247D02*
X0077783Y0147247D01*
X0073054Y0150838D02*
X0071687Y0150838D01*
X0071687Y0151437D02*
X0072456Y0151437D01*
X0073701Y0151889D02*
X0072441Y0153148D01*
X0068032Y0153148D01*
X0064376Y0153232D02*
X0032101Y0153232D01*
X0032101Y0152634D02*
X0064376Y0152634D01*
X0064376Y0152035D02*
X0032101Y0152035D01*
X0032101Y0151437D02*
X0064376Y0151437D01*
X0064376Y0153831D02*
X0062839Y0153831D01*
X0062924Y0153880D02*
X0063166Y0154122D01*
X0063337Y0154418D01*
X0063426Y0154749D01*
X0063426Y0156589D01*
X0059670Y0156589D01*
X0059670Y0157189D01*
X0059070Y0157189D01*
X0059070Y0160157D01*
X0056443Y0160157D01*
X0056112Y0160069D01*
X0055816Y0159897D01*
X0055574Y0159655D01*
X0055403Y0159359D01*
X0055314Y0159028D01*
X0055314Y0157189D01*
X0059070Y0157189D01*
X0059070Y0156589D01*
X0055314Y0156589D01*
X0055314Y0154749D01*
X0055403Y0154418D01*
X0055574Y0154122D01*
X0055816Y0153880D01*
X0056112Y0153709D01*
X0056443Y0153620D01*
X0059070Y0153620D01*
X0059070Y0156589D01*
X0059670Y0156589D01*
X0059670Y0153620D01*
X0062297Y0153620D01*
X0062628Y0153709D01*
X0062924Y0153880D01*
X0063340Y0154429D02*
X0064376Y0154429D01*
X0064376Y0155028D02*
X0063426Y0155028D01*
X0063426Y0155626D02*
X0064512Y0155626D01*
X0063426Y0156225D02*
X0075312Y0156225D01*
X0075312Y0155899D02*
X0076711Y0154500D01*
X0078690Y0154500D01*
X0079879Y0155689D01*
X0080714Y0155689D01*
X0080714Y0154547D01*
X0081241Y0154020D01*
X0087499Y0154020D01*
X0088026Y0154547D01*
X0088026Y0159230D01*
X0087499Y0159757D01*
X0081241Y0159757D01*
X0080714Y0159230D01*
X0080714Y0158089D01*
X0079879Y0158089D01*
X0078690Y0159278D01*
X0076711Y0159278D01*
X0075312Y0157878D01*
X0075312Y0155899D01*
X0075585Y0155626D02*
X0071551Y0155626D01*
X0071687Y0155028D02*
X0076183Y0155028D01*
X0075312Y0156823D02*
X0059670Y0156823D01*
X0059670Y0157189D02*
X0063426Y0157189D01*
X0063426Y0159028D01*
X0063337Y0159359D01*
X0063166Y0159655D01*
X0062924Y0159897D01*
X0062628Y0160069D01*
X0062297Y0160157D01*
X0059670Y0160157D01*
X0059670Y0157189D01*
X0059670Y0157422D02*
X0059070Y0157422D01*
X0059070Y0158020D02*
X0059670Y0158020D01*
X0059670Y0158619D02*
X0059070Y0158619D01*
X0059070Y0159217D02*
X0059670Y0159217D01*
X0059670Y0159816D02*
X0059070Y0159816D01*
X0055735Y0159816D02*
X0052507Y0159816D01*
X0052190Y0159500D02*
X0050211Y0159500D01*
X0048812Y0160899D01*
X0048812Y0162878D01*
X0050211Y0164278D01*
X0052190Y0164278D01*
X0053379Y0163089D01*
X0064198Y0163089D01*
X0064376Y0162911D01*
X0064376Y0162970D01*
X0064903Y0163497D01*
X0071160Y0163497D01*
X0071687Y0162970D01*
X0071687Y0161829D01*
X0071944Y0161829D01*
X0073204Y0163089D01*
X0089198Y0163089D01*
X0089376Y0162911D01*
X0089376Y0162970D01*
X0089903Y0163497D01*
X0096160Y0163497D01*
X0096687Y0162970D01*
X0096687Y0158288D01*
X0096160Y0157760D01*
X0089903Y0157760D01*
X0089376Y0158288D01*
X0089376Y0159517D01*
X0088761Y0160132D01*
X0088761Y0160132D01*
X0088204Y0160689D01*
X0074198Y0160689D01*
X0072938Y0159429D01*
X0071687Y0159429D01*
X0071687Y0158288D01*
X0071160Y0157760D01*
X0064903Y0157760D01*
X0064376Y0158288D01*
X0064376Y0159517D01*
X0063204Y0160689D01*
X0053379Y0160689D01*
X0052190Y0159500D01*
X0053105Y0160414D02*
X0063478Y0160414D01*
X0063006Y0159816D02*
X0064077Y0159816D01*
X0064376Y0159217D02*
X0063375Y0159217D01*
X0063426Y0158619D02*
X0064376Y0158619D01*
X0064643Y0158020D02*
X0063426Y0158020D01*
X0063426Y0157422D02*
X0075312Y0157422D01*
X0075454Y0158020D02*
X0071420Y0158020D01*
X0071687Y0158619D02*
X0076053Y0158619D01*
X0076651Y0159217D02*
X0071687Y0159217D01*
X0072441Y0160629D02*
X0073701Y0161889D01*
X0088701Y0161889D01*
X0089961Y0160629D01*
X0093032Y0160629D01*
X0089376Y0159217D02*
X0088026Y0159217D01*
X0088026Y0158619D02*
X0089376Y0158619D01*
X0089643Y0158020D02*
X0088026Y0158020D01*
X0088026Y0157422D02*
X0113971Y0157422D01*
X0114569Y0156823D02*
X0088026Y0156823D01*
X0088026Y0156225D02*
X0115168Y0156225D01*
X0115766Y0155626D02*
X0096551Y0155626D01*
X0096687Y0155028D02*
X0103063Y0155028D01*
X0102939Y0154429D02*
X0096687Y0154429D01*
X0096687Y0151437D02*
X0099956Y0151437D01*
X0100554Y0150838D02*
X0096687Y0150838D01*
X0099941Y0153148D02*
X0102102Y0150987D01*
X0106201Y0150987D01*
X0109463Y0150838D02*
X0145006Y0150838D01*
X0145006Y0150240D02*
X0109463Y0150240D01*
X0109463Y0149641D02*
X0145305Y0149641D01*
X0145006Y0151437D02*
X0109463Y0151437D01*
X0109463Y0152035D02*
X0119357Y0152035D01*
X0118759Y0152634D02*
X0109463Y0152634D01*
X0109463Y0153232D02*
X0118160Y0153232D01*
X0117562Y0153831D02*
X0109463Y0153831D01*
X0109463Y0154429D02*
X0116963Y0154429D01*
X0116365Y0155028D02*
X0109338Y0155028D01*
X0109208Y0158619D02*
X0112774Y0158619D01*
X0113372Y0158020D02*
X0096420Y0158020D01*
X0096687Y0158619D02*
X0103194Y0158619D01*
X0102939Y0159217D02*
X0096687Y0159217D01*
X0096687Y0159816D02*
X0102939Y0159816D01*
X0102939Y0160414D02*
X0096687Y0160414D01*
X0096687Y0161013D02*
X0102939Y0161013D01*
X0102939Y0161611D02*
X0096687Y0161611D01*
X0096687Y0162210D02*
X0102939Y0162210D01*
X0102939Y0162809D02*
X0096687Y0162809D01*
X0096251Y0163407D02*
X0102939Y0163407D01*
X0102939Y0164006D02*
X0052462Y0164006D01*
X0053061Y0163407D02*
X0064813Y0163407D01*
X0063701Y0161889D02*
X0051201Y0161889D01*
X0049341Y0163407D02*
X0048563Y0163407D01*
X0048703Y0163547D02*
X0049590Y0165689D01*
X0056698Y0165689D01*
X0059198Y0168189D01*
X0099198Y0168189D01*
X0099901Y0168892D01*
X0104198Y0173189D01*
X0113204Y0173189D01*
X0117501Y0168892D01*
X0117501Y0164067D01*
X0116312Y0162878D01*
X0116312Y0160899D01*
X0117711Y0159500D01*
X0119690Y0159500D01*
X0121090Y0160899D01*
X0121090Y0162878D01*
X0119901Y0164067D01*
X0119901Y0169886D01*
X0119198Y0170589D01*
X0114901Y0174886D01*
X0114198Y0175589D01*
X0103204Y0175589D01*
X0102501Y0174886D01*
X0098204Y0170589D01*
X0048344Y0170589D01*
X0048703Y0170231D02*
X0047043Y0171890D01*
X0044874Y0172789D01*
X0042527Y0172789D01*
X0040359Y0171890D01*
X0038699Y0170231D01*
X0037801Y0168062D01*
X0037801Y0165715D01*
X0038699Y0163547D01*
X0040359Y0161887D01*
X0042527Y0160989D01*
X0044874Y0160989D01*
X0047043Y0161887D01*
X0048703Y0163547D01*
X0048893Y0164006D02*
X0049939Y0164006D01*
X0049141Y0164604D02*
X0102939Y0164604D01*
X0102939Y0165203D02*
X0049389Y0165203D01*
X0048812Y0162809D02*
X0047965Y0162809D01*
X0047366Y0162210D02*
X0048812Y0162210D01*
X0048812Y0161611D02*
X0046378Y0161611D01*
X0044933Y0161013D02*
X0048812Y0161013D01*
X0049297Y0160414D02*
X0032101Y0160414D01*
X0032101Y0159816D02*
X0049895Y0159816D01*
X0055365Y0159217D02*
X0032101Y0159217D01*
X0032101Y0158619D02*
X0055314Y0158619D01*
X0055314Y0158020D02*
X0032101Y0158020D01*
X0032101Y0157422D02*
X0055314Y0157422D01*
X0055314Y0156225D02*
X0032101Y0156225D01*
X0032101Y0156823D02*
X0059070Y0156823D01*
X0059070Y0156225D02*
X0059670Y0156225D01*
X0059670Y0155626D02*
X0059070Y0155626D01*
X0059070Y0155028D02*
X0059670Y0155028D01*
X0059670Y0154429D02*
X0059070Y0154429D01*
X0059070Y0153831D02*
X0059670Y0153831D01*
X0055901Y0153831D02*
X0032101Y0153831D01*
X0032101Y0154429D02*
X0055400Y0154429D01*
X0055314Y0155028D02*
X0032101Y0155028D01*
X0032101Y0155626D02*
X0055314Y0155626D01*
X0063701Y0161889D02*
X0064961Y0160629D01*
X0068032Y0160629D01*
X0072441Y0160629D01*
X0073325Y0159816D02*
X0089077Y0159816D01*
X0088478Y0160414D02*
X0073924Y0160414D01*
X0072325Y0162210D02*
X0071687Y0162210D01*
X0071687Y0162809D02*
X0072924Y0162809D01*
X0071251Y0163407D02*
X0089813Y0163407D01*
X0089512Y0155626D02*
X0088026Y0155626D01*
X0088026Y0155028D02*
X0089376Y0155028D01*
X0089376Y0154429D02*
X0087908Y0154429D01*
X0088946Y0153831D02*
X0073456Y0153831D01*
X0074054Y0153232D02*
X0088348Y0153232D01*
X0088701Y0151889D02*
X0073701Y0151889D01*
X0071687Y0154429D02*
X0080832Y0154429D01*
X0080714Y0155028D02*
X0079219Y0155028D01*
X0079817Y0155626D02*
X0080714Y0155626D01*
X0080714Y0158619D02*
X0079349Y0158619D01*
X0078751Y0159217D02*
X0080714Y0159217D01*
X0077701Y0156889D02*
X0084370Y0156889D01*
X0088701Y0151889D02*
X0089961Y0153148D01*
X0093032Y0153148D01*
X0099941Y0153148D01*
X0100956Y0153831D02*
X0102939Y0153831D01*
X0102939Y0153232D02*
X0101554Y0153232D01*
X0102153Y0152634D02*
X0102939Y0152634D01*
X0101153Y0150240D02*
X0044992Y0150240D01*
X0046437Y0149641D02*
X0102939Y0149641D01*
X0102939Y0149043D02*
X0047391Y0149043D01*
X0047989Y0148444D02*
X0102939Y0148444D01*
X0102939Y0147846D02*
X0048588Y0147846D01*
X0049536Y0143058D02*
X0065856Y0143058D01*
X0065856Y0142459D02*
X0049288Y0142459D01*
X0049040Y0141861D02*
X0065856Y0141861D01*
X0066248Y0141262D02*
X0048792Y0141262D01*
X0051246Y0129890D02*
X0032101Y0129890D01*
X0032101Y0129292D02*
X0050908Y0129292D01*
X0050869Y0127496D02*
X0046572Y0127496D01*
X0047525Y0126898D02*
X0050869Y0126898D01*
X0050869Y0126299D02*
X0048200Y0126299D01*
X0048718Y0125701D02*
X0050869Y0125701D01*
X0050869Y0125102D02*
X0049134Y0125102D01*
X0049439Y0124504D02*
X0050869Y0124504D01*
X0050869Y0123905D02*
X0049670Y0123905D01*
X0049855Y0123307D02*
X0050869Y0123307D01*
X0050869Y0122708D02*
X0049950Y0122708D01*
X0050001Y0121511D02*
X0050869Y0121511D01*
X0050869Y0120913D02*
X0049925Y0120913D01*
X0049813Y0120314D02*
X0050869Y0120314D01*
X0050869Y0119716D02*
X0049619Y0119716D01*
X0049359Y0119117D02*
X0050869Y0119117D01*
X0050869Y0118519D02*
X0049040Y0118519D01*
X0048605Y0117920D02*
X0050869Y0117920D01*
X0050869Y0117322D02*
X0048043Y0117322D01*
X0047309Y0116723D02*
X0050869Y0116723D01*
X0050869Y0116125D02*
X0046265Y0116125D01*
X0056200Y0116125D02*
X0056800Y0116125D01*
X0056800Y0116723D02*
X0056200Y0116723D01*
X0056200Y0117322D02*
X0056800Y0117322D01*
X0056800Y0117920D02*
X0056200Y0117920D01*
X0056200Y0118519D02*
X0056800Y0118519D01*
X0056800Y0119117D02*
X0056200Y0119117D01*
X0056200Y0119716D02*
X0056800Y0119716D01*
X0056800Y0120314D02*
X0056200Y0120314D01*
X0056200Y0120913D02*
X0056800Y0120913D01*
X0056800Y0121511D02*
X0056200Y0121511D01*
X0056800Y0121589D02*
X0056800Y0113502D01*
X0061002Y0113502D01*
X0061333Y0113591D01*
X0061629Y0113762D01*
X0061871Y0114004D01*
X0062042Y0114300D01*
X0062131Y0114631D01*
X0062131Y0121589D01*
X0056800Y0121589D01*
X0056800Y0123307D02*
X0056200Y0123307D01*
X0056200Y0123905D02*
X0056800Y0123905D01*
X0056800Y0124504D02*
X0056200Y0124504D01*
X0056200Y0125102D02*
X0056800Y0125102D01*
X0056800Y0125701D02*
X0056200Y0125701D01*
X0056200Y0126299D02*
X0056800Y0126299D01*
X0056800Y0126898D02*
X0056200Y0126898D01*
X0056200Y0127496D02*
X0056800Y0127496D01*
X0056800Y0128095D02*
X0056200Y0128095D01*
X0056200Y0128693D02*
X0056800Y0128693D01*
X0056800Y0129292D02*
X0056200Y0129292D01*
X0056200Y0129890D02*
X0056800Y0129890D01*
X0062131Y0125102D02*
X0075476Y0125102D01*
X0075213Y0124504D02*
X0062131Y0124504D01*
X0062131Y0123905D02*
X0075201Y0123905D01*
X0075201Y0123307D02*
X0062131Y0123307D01*
X0062131Y0122708D02*
X0075201Y0122708D01*
X0075201Y0121511D02*
X0062131Y0121511D01*
X0062131Y0120913D02*
X0075201Y0120913D01*
X0075201Y0120314D02*
X0062131Y0120314D01*
X0062131Y0119716D02*
X0075201Y0119716D01*
X0075255Y0119117D02*
X0062131Y0119117D01*
X0062131Y0118519D02*
X0075632Y0118519D01*
X0075601Y0115526D02*
X0062131Y0115526D01*
X0062131Y0114928D02*
X0075601Y0114928D01*
X0075601Y0114329D02*
X0062050Y0114329D01*
X0061575Y0113731D02*
X0075601Y0113731D01*
X0079876Y0108942D02*
X0032101Y0108942D01*
X0032101Y0108344D02*
X0079278Y0108344D01*
X0073701Y0099389D02*
X0043701Y0099389D01*
X0056200Y0113731D02*
X0056800Y0113731D01*
X0056800Y0114329D02*
X0056200Y0114329D01*
X0056200Y0114928D02*
X0056800Y0114928D01*
X0056800Y0115526D02*
X0056200Y0115526D01*
X0077377Y0136474D02*
X0032101Y0136474D01*
X0032101Y0137073D02*
X0074331Y0137073D01*
X0073884Y0137671D02*
X0032101Y0137671D01*
X0032101Y0161013D02*
X0042469Y0161013D01*
X0041024Y0161611D02*
X0032101Y0161611D01*
X0032101Y0162210D02*
X0040036Y0162210D01*
X0039437Y0162809D02*
X0032101Y0162809D01*
X0032101Y0163407D02*
X0038839Y0163407D01*
X0038509Y0164006D02*
X0032101Y0164006D01*
X0032101Y0164604D02*
X0038261Y0164604D01*
X0038013Y0165203D02*
X0032101Y0165203D01*
X0032101Y0165801D02*
X0037801Y0165801D01*
X0037801Y0166400D02*
X0032101Y0166400D01*
X0032101Y0166998D02*
X0037801Y0166998D01*
X0037801Y0167597D02*
X0032101Y0167597D01*
X0032101Y0168195D02*
X0037856Y0168195D01*
X0038104Y0168794D02*
X0032101Y0168794D01*
X0032101Y0169392D02*
X0038352Y0169392D01*
X0038600Y0169991D02*
X0032101Y0169991D01*
X0032101Y0170589D02*
X0039058Y0170589D01*
X0039656Y0171188D02*
X0032101Y0171188D01*
X0032101Y0171786D02*
X0040255Y0171786D01*
X0041552Y0172385D02*
X0032101Y0172385D01*
X0032101Y0172983D02*
X0100598Y0172983D01*
X0100000Y0172385D02*
X0045850Y0172385D01*
X0047147Y0171786D02*
X0099401Y0171786D01*
X0098803Y0171188D02*
X0047746Y0171188D01*
X0048703Y0170231D02*
X0049590Y0168089D01*
X0055704Y0168089D01*
X0057501Y0169886D01*
X0058204Y0170589D01*
X0098204Y0170589D01*
X0098701Y0169389D02*
X0058701Y0169389D01*
X0056201Y0166889D01*
X0043701Y0166889D01*
X0049050Y0169392D02*
X0057007Y0169392D01*
X0056409Y0168794D02*
X0049298Y0168794D01*
X0049546Y0168195D02*
X0055810Y0168195D01*
X0057409Y0166400D02*
X0102939Y0166400D01*
X0102939Y0165801D02*
X0056810Y0165801D01*
X0058007Y0166998D02*
X0103230Y0166998D01*
X0101000Y0169991D02*
X0116402Y0169991D01*
X0115803Y0170589D02*
X0101598Y0170589D01*
X0102197Y0171188D02*
X0115205Y0171188D01*
X0114606Y0171786D02*
X0102795Y0171786D01*
X0103394Y0172385D02*
X0114008Y0172385D01*
X0113409Y0172983D02*
X0103992Y0172983D01*
X0103701Y0174389D02*
X0113701Y0174389D01*
X0118701Y0169389D01*
X0118701Y0161889D01*
X0120561Y0163407D02*
X0125001Y0163407D01*
X0125001Y0162809D02*
X0121090Y0162809D01*
X0121090Y0162210D02*
X0125001Y0162210D01*
X0125001Y0161611D02*
X0121090Y0161611D01*
X0121090Y0161013D02*
X0125001Y0161013D01*
X0125001Y0160414D02*
X0120605Y0160414D01*
X0120007Y0159816D02*
X0125001Y0159816D01*
X0125001Y0159217D02*
X0115569Y0159217D01*
X0116168Y0158619D02*
X0125001Y0158619D01*
X0125001Y0158020D02*
X0116766Y0158020D01*
X0117365Y0157422D02*
X0125001Y0157422D01*
X0125001Y0156823D02*
X0117963Y0156823D01*
X0118562Y0156225D02*
X0125001Y0156225D01*
X0125001Y0155626D02*
X0119160Y0155626D01*
X0119759Y0155028D02*
X0125001Y0155028D01*
X0125001Y0154429D02*
X0120357Y0154429D01*
X0120413Y0152676D02*
X0110299Y0162790D01*
X0106201Y0162790D01*
X0109463Y0164006D02*
X0117439Y0164006D01*
X0117501Y0164604D02*
X0109463Y0164604D01*
X0109463Y0165203D02*
X0117501Y0165203D01*
X0117501Y0165801D02*
X0109463Y0165801D01*
X0109463Y0166400D02*
X0117501Y0166400D01*
X0117501Y0166998D02*
X0109171Y0166998D01*
X0111380Y0163407D02*
X0116841Y0163407D01*
X0116312Y0162809D02*
X0111978Y0162809D01*
X0111499Y0163287D02*
X0111499Y0163287D01*
X0112577Y0162210D02*
X0116312Y0162210D01*
X0116312Y0161611D02*
X0113175Y0161611D01*
X0113774Y0161013D02*
X0116312Y0161013D01*
X0116797Y0160414D02*
X0114372Y0160414D01*
X0114971Y0159816D02*
X0117395Y0159816D01*
X0119962Y0164006D02*
X0125001Y0164006D01*
X0125001Y0164604D02*
X0119901Y0164604D01*
X0119901Y0165203D02*
X0125001Y0165203D01*
X0125001Y0165801D02*
X0119901Y0165801D01*
X0119901Y0166400D02*
X0125001Y0166400D01*
X0125001Y0166998D02*
X0119901Y0166998D01*
X0119901Y0167597D02*
X0125001Y0167597D01*
X0125001Y0168195D02*
X0119901Y0168195D01*
X0119901Y0168794D02*
X0125001Y0168794D01*
X0125001Y0169392D02*
X0119901Y0169392D01*
X0119796Y0169991D02*
X0125001Y0169991D01*
X0125001Y0170589D02*
X0119197Y0170589D01*
X0118599Y0171188D02*
X0125001Y0171188D01*
X0124606Y0171786D02*
X0118000Y0171786D01*
X0117402Y0172385D02*
X0124008Y0172385D01*
X0123409Y0172983D02*
X0116803Y0172983D01*
X0116205Y0173582D02*
X0122811Y0173582D01*
X0122212Y0174180D02*
X0115606Y0174180D01*
X0115008Y0174779D02*
X0121614Y0174779D01*
X0121015Y0175377D02*
X0114409Y0175377D01*
X0118621Y0177771D02*
X0101281Y0177771D01*
X0100682Y0177173D02*
X0119220Y0177173D01*
X0119818Y0176574D02*
X0100084Y0176574D01*
X0099485Y0175976D02*
X0120417Y0175976D01*
X0122015Y0177771D02*
X0128621Y0177771D01*
X0129220Y0177173D02*
X0122614Y0177173D01*
X0123212Y0176574D02*
X0129818Y0176574D01*
X0130417Y0175976D02*
X0123811Y0175976D01*
X0124409Y0175377D02*
X0131015Y0175377D01*
X0131614Y0174779D02*
X0125008Y0174779D01*
X0125606Y0174180D02*
X0132212Y0174180D01*
X0132501Y0173892D02*
X0132501Y0164067D01*
X0131312Y0162878D01*
X0131312Y0160899D01*
X0132711Y0159500D01*
X0134690Y0159500D01*
X0136090Y0160899D01*
X0136090Y0162878D01*
X0134901Y0164067D01*
X0134901Y0174886D01*
X0134198Y0175589D01*
X0124198Y0185589D01*
X0098204Y0185589D01*
X0097501Y0184886D01*
X0093204Y0180589D01*
X0069198Y0180589D01*
X0067401Y0182386D01*
X0067401Y0183500D01*
X0069543Y0184387D01*
X0071203Y0186047D01*
X0072101Y0188215D01*
X0072101Y0190562D01*
X0071203Y0192731D01*
X0069543Y0194390D01*
X0067374Y0195289D01*
X0065027Y0195289D01*
X0062859Y0194390D01*
X0061199Y0192731D01*
X0060301Y0190562D01*
X0060301Y0188215D01*
X0061199Y0186047D01*
X0062859Y0184387D01*
X0065001Y0183500D01*
X0065001Y0181392D01*
X0067501Y0178892D01*
X0068204Y0178189D01*
X0094198Y0178189D01*
X0099198Y0183189D01*
X0123204Y0183189D01*
X0132501Y0173892D01*
X0132501Y0173582D02*
X0126205Y0173582D01*
X0126803Y0172983D02*
X0132501Y0172983D01*
X0132501Y0172385D02*
X0127401Y0172385D01*
X0127401Y0171786D02*
X0132501Y0171786D01*
X0132501Y0171188D02*
X0127401Y0171188D01*
X0127401Y0170589D02*
X0132501Y0170589D01*
X0132501Y0169991D02*
X0127401Y0169991D01*
X0127401Y0169392D02*
X0132501Y0169392D01*
X0132501Y0168794D02*
X0127401Y0168794D01*
X0127401Y0168195D02*
X0132501Y0168195D01*
X0132501Y0167597D02*
X0127401Y0167597D01*
X0127401Y0166998D02*
X0132501Y0166998D01*
X0132501Y0166400D02*
X0127401Y0166400D01*
X0127401Y0165801D02*
X0132501Y0165801D01*
X0132501Y0165203D02*
X0127401Y0165203D01*
X0127401Y0164604D02*
X0132501Y0164604D01*
X0132439Y0164006D02*
X0127401Y0164006D01*
X0127401Y0163407D02*
X0131841Y0163407D01*
X0131312Y0162809D02*
X0127401Y0162809D01*
X0127401Y0162210D02*
X0131312Y0162210D01*
X0131312Y0161611D02*
X0127401Y0161611D01*
X0127401Y0161013D02*
X0131312Y0161013D01*
X0131797Y0160414D02*
X0127401Y0160414D01*
X0127401Y0159816D02*
X0132395Y0159816D01*
X0133701Y0161889D02*
X0133701Y0174389D01*
X0123701Y0184389D01*
X0098701Y0184389D01*
X0093701Y0179389D01*
X0068701Y0179389D01*
X0066201Y0181889D01*
X0066201Y0189389D01*
X0060705Y0191537D02*
X0049197Y0191537D01*
X0049445Y0190939D02*
X0060457Y0190939D01*
X0060301Y0190340D02*
X0049601Y0190340D01*
X0049601Y0189742D02*
X0060301Y0189742D01*
X0060301Y0189143D02*
X0049601Y0189143D01*
X0049601Y0188545D02*
X0060301Y0188545D01*
X0060412Y0187946D02*
X0049489Y0187946D01*
X0049241Y0187347D02*
X0060660Y0187347D01*
X0060908Y0186749D02*
X0048994Y0186749D01*
X0048746Y0186150D02*
X0061156Y0186150D01*
X0061694Y0185552D02*
X0049235Y0185552D01*
X0049833Y0184953D02*
X0062292Y0184953D01*
X0062936Y0184355D02*
X0050432Y0184355D01*
X0051030Y0183756D02*
X0064381Y0183756D01*
X0065001Y0183158D02*
X0051629Y0183158D01*
X0052227Y0182559D02*
X0065001Y0182559D01*
X0065001Y0181961D02*
X0052826Y0181961D01*
X0053424Y0181362D02*
X0065030Y0181362D01*
X0065629Y0180764D02*
X0054023Y0180764D01*
X0054621Y0180165D02*
X0066227Y0180165D01*
X0066826Y0179567D02*
X0055220Y0179567D01*
X0055818Y0178968D02*
X0067424Y0178968D01*
X0068023Y0178370D02*
X0056417Y0178370D01*
X0057015Y0177771D02*
X0097886Y0177771D01*
X0097288Y0177173D02*
X0057614Y0177173D01*
X0058212Y0176574D02*
X0096689Y0176574D01*
X0096091Y0175976D02*
X0058811Y0175976D01*
X0058701Y0174389D02*
X0096201Y0174389D01*
X0101201Y0179389D01*
X0118701Y0179389D01*
X0126201Y0171889D01*
X0126201Y0152686D01*
X0126211Y0152676D01*
X0120413Y0152676D01*
X0125681Y0147247D02*
X0109463Y0147247D01*
X0109041Y0146649D02*
X0125082Y0146649D01*
X0124312Y0144255D02*
X0120532Y0144255D01*
X0121130Y0143656D02*
X0124555Y0143656D01*
X0125153Y0143058D02*
X0121729Y0143058D01*
X0122327Y0142459D02*
X0145006Y0142459D01*
X0145006Y0143058D02*
X0128248Y0143058D01*
X0128847Y0143656D02*
X0145006Y0143656D01*
X0145701Y0144889D02*
X0146614Y0144802D01*
X0151811Y0144802D01*
X0158617Y0144853D02*
X0200001Y0144853D01*
X0200001Y0144255D02*
X0158617Y0144255D01*
X0158617Y0143656D02*
X0200001Y0143656D01*
X0200001Y0143058D02*
X0158617Y0143058D01*
X0158617Y0142459D02*
X0200001Y0142459D01*
X0200001Y0141861D02*
X0158410Y0141861D01*
X0158089Y0140190D02*
X0145533Y0140190D01*
X0145065Y0139722D01*
X0144901Y0139886D01*
X0144198Y0140589D01*
X0141777Y0140589D01*
X0141737Y0140628D01*
X0141734Y0140628D01*
X0141731Y0140631D01*
X0141237Y0140628D01*
X0140743Y0140628D01*
X0140741Y0140625D01*
X0135868Y0140600D01*
X0134690Y0141778D01*
X0132711Y0141778D01*
X0131312Y0140378D01*
X0131312Y0138399D01*
X0132711Y0137000D01*
X0134690Y0137000D01*
X0135891Y0138200D01*
X0140746Y0138225D01*
X0140783Y0138189D01*
X0143204Y0138189D01*
X0145006Y0136387D01*
X0145006Y0134193D01*
X0145533Y0133666D01*
X0158089Y0133666D01*
X0158617Y0134193D01*
X0158617Y0139663D01*
X0158089Y0140190D01*
X0158215Y0140065D02*
X0200001Y0140065D01*
X0200001Y0139467D02*
X0158617Y0139467D01*
X0158617Y0138868D02*
X0200001Y0138868D01*
X0200001Y0138270D02*
X0158617Y0138270D01*
X0158617Y0137671D02*
X0175286Y0137671D01*
X0174778Y0137073D02*
X0158617Y0137073D01*
X0158617Y0136474D02*
X0174265Y0136474D01*
X0173752Y0135876D02*
X0158617Y0135876D01*
X0158617Y0135277D02*
X0173239Y0135277D01*
X0172726Y0134678D02*
X0158617Y0134678D01*
X0158504Y0134080D02*
X0172213Y0134080D01*
X0171700Y0133481D02*
X0143805Y0133481D01*
X0143590Y0133697D02*
X0143590Y0135378D01*
X0142190Y0136778D01*
X0140211Y0136778D01*
X0138812Y0135378D01*
X0138812Y0133399D01*
X0140211Y0132000D01*
X0141893Y0132000D01*
X0145006Y0128887D01*
X0145006Y0126319D01*
X0145533Y0125792D01*
X0158089Y0125792D01*
X0158617Y0126319D01*
X0158617Y0131789D01*
X0158089Y0132316D01*
X0145533Y0132316D01*
X0145252Y0132035D01*
X0143590Y0133697D01*
X0143590Y0134080D02*
X0145119Y0134080D01*
X0145006Y0134678D02*
X0143590Y0134678D01*
X0143590Y0135277D02*
X0145006Y0135277D01*
X0145006Y0135876D02*
X0143093Y0135876D01*
X0142494Y0136474D02*
X0144918Y0136474D01*
X0144320Y0137073D02*
X0134763Y0137073D01*
X0135362Y0137671D02*
X0143721Y0137671D01*
X0143701Y0139389D02*
X0141280Y0139389D01*
X0141240Y0139428D01*
X0133701Y0139389D01*
X0132040Y0137671D02*
X0127116Y0137671D01*
X0127714Y0137073D02*
X0132638Y0137073D01*
X0131441Y0138270D02*
X0126517Y0138270D01*
X0125918Y0138868D02*
X0131312Y0138868D01*
X0131312Y0139467D02*
X0125320Y0139467D01*
X0124721Y0140065D02*
X0131312Y0140065D01*
X0131597Y0140664D02*
X0124123Y0140664D01*
X0123524Y0141262D02*
X0132196Y0141262D01*
X0135206Y0141262D02*
X0200001Y0141262D01*
X0200001Y0140664D02*
X0135804Y0140664D01*
X0134513Y0135277D02*
X0138812Y0135277D01*
X0138812Y0134678D02*
X0135074Y0134678D01*
X0135635Y0134080D02*
X0138812Y0134080D01*
X0138812Y0133481D02*
X0136196Y0133481D01*
X0136757Y0132883D02*
X0139328Y0132883D01*
X0139927Y0132284D02*
X0137317Y0132284D01*
X0137878Y0131686D02*
X0142207Y0131686D01*
X0142805Y0131087D02*
X0138439Y0131087D01*
X0139000Y0130489D02*
X0143404Y0130489D01*
X0144002Y0129890D02*
X0140426Y0129890D01*
X0141080Y0129292D02*
X0144601Y0129292D01*
X0145006Y0128693D02*
X0141578Y0128693D01*
X0141825Y0128095D02*
X0145006Y0128095D01*
X0145006Y0127496D02*
X0142039Y0127496D01*
X0142039Y0126898D02*
X0145006Y0126898D01*
X0145025Y0126299D02*
X0142039Y0126299D01*
X0142039Y0125701D02*
X0165031Y0125701D01*
X0165544Y0126299D02*
X0158597Y0126299D01*
X0158617Y0126898D02*
X0166057Y0126898D01*
X0166570Y0127496D02*
X0158617Y0127496D01*
X0158617Y0128095D02*
X0167083Y0128095D01*
X0167596Y0128693D02*
X0158617Y0128693D01*
X0158617Y0129292D02*
X0168109Y0129292D01*
X0168622Y0129890D02*
X0158617Y0129890D01*
X0158617Y0130489D02*
X0169135Y0130489D01*
X0169648Y0131087D02*
X0158617Y0131087D01*
X0158617Y0131686D02*
X0170161Y0131686D01*
X0170674Y0132284D02*
X0158121Y0132284D01*
X0151811Y0129054D02*
X0146536Y0129054D01*
X0141201Y0134389D01*
X0139309Y0135876D02*
X0128911Y0135876D01*
X0128313Y0136474D02*
X0139908Y0136474D01*
X0143701Y0139389D02*
X0146201Y0136889D01*
X0146240Y0136928D01*
X0151811Y0136928D01*
X0145408Y0140065D02*
X0144721Y0140065D01*
X0145212Y0141861D02*
X0122926Y0141861D01*
X0121327Y0140065D02*
X0100569Y0140065D01*
X0100569Y0139467D02*
X0121926Y0139467D01*
X0122524Y0138868D02*
X0100569Y0138868D01*
X0100569Y0140664D02*
X0120729Y0140664D01*
X0120130Y0141262D02*
X0100569Y0141262D01*
X0100517Y0141861D02*
X0119532Y0141861D01*
X0119017Y0138270D02*
X0123123Y0138270D01*
X0123721Y0137671D02*
X0119616Y0137671D01*
X0120214Y0137073D02*
X0124320Y0137073D01*
X0124918Y0136474D02*
X0120813Y0136474D01*
X0121411Y0135876D02*
X0125517Y0135876D01*
X0126115Y0135277D02*
X0122010Y0135277D01*
X0122608Y0134678D02*
X0126714Y0134678D01*
X0127312Y0134080D02*
X0123207Y0134080D01*
X0123805Y0133481D02*
X0127911Y0133481D01*
X0128996Y0130784D02*
X0128996Y0124584D01*
X0132596Y0124584D01*
X0132596Y0127268D01*
X0132446Y0128022D01*
X0132152Y0128731D01*
X0131725Y0129370D01*
X0131182Y0129913D01*
X0130543Y0130340D01*
X0129834Y0130634D01*
X0129080Y0130784D01*
X0128996Y0130784D01*
X0128996Y0130489D02*
X0128396Y0130489D01*
X0128396Y0129890D02*
X0128996Y0129890D01*
X0128996Y0129292D02*
X0128396Y0129292D01*
X0128396Y0128693D02*
X0128996Y0128693D01*
X0128996Y0128095D02*
X0128396Y0128095D01*
X0128396Y0127496D02*
X0128996Y0127496D01*
X0128996Y0126898D02*
X0128396Y0126898D01*
X0128396Y0126299D02*
X0128996Y0126299D01*
X0128996Y0125701D02*
X0128396Y0125701D01*
X0128396Y0125102D02*
X0128996Y0125102D01*
X0128996Y0124504D02*
X0135039Y0124504D01*
X0135039Y0125102D02*
X0132596Y0125102D01*
X0132596Y0125701D02*
X0135039Y0125701D01*
X0135039Y0126299D02*
X0132596Y0126299D01*
X0132596Y0126898D02*
X0135039Y0126898D01*
X0135039Y0127496D02*
X0132551Y0127496D01*
X0132416Y0128095D02*
X0135252Y0128095D01*
X0135500Y0128693D02*
X0132168Y0128693D01*
X0131778Y0129292D02*
X0135997Y0129292D01*
X0136272Y0129890D02*
X0131205Y0129890D01*
X0130184Y0130489D02*
X0135711Y0130489D01*
X0135150Y0131087D02*
X0124901Y0131087D01*
X0124901Y0130489D02*
X0127208Y0130489D01*
X0126187Y0129890D02*
X0124901Y0129890D01*
X0124901Y0129292D02*
X0125615Y0129292D01*
X0125224Y0128693D02*
X0124901Y0128693D01*
X0124901Y0128095D02*
X0124976Y0128095D01*
X0122501Y0128095D02*
X0122140Y0128095D01*
X0122354Y0127496D02*
X0122501Y0127496D01*
X0122501Y0126898D02*
X0122354Y0126898D01*
X0122354Y0126299D02*
X0122501Y0126299D01*
X0122501Y0125701D02*
X0122354Y0125701D01*
X0122354Y0125102D02*
X0122501Y0125102D01*
X0122501Y0124504D02*
X0122354Y0124504D01*
X0122354Y0123905D02*
X0122501Y0123905D01*
X0122501Y0123307D02*
X0122354Y0123307D01*
X0122354Y0122708D02*
X0122501Y0122708D01*
X0122501Y0122110D02*
X0122354Y0122110D01*
X0122354Y0121511D02*
X0122501Y0121511D01*
X0122501Y0120913D02*
X0122323Y0120913D01*
X0122501Y0120314D02*
X0122075Y0120314D01*
X0121827Y0119716D02*
X0122501Y0119716D01*
X0122501Y0119117D02*
X0121237Y0119117D01*
X0120358Y0118519D02*
X0122874Y0118519D01*
X0120260Y0115526D02*
X0140261Y0115526D01*
X0139861Y0114928D02*
X0120859Y0114928D01*
X0121457Y0114329D02*
X0139607Y0114329D01*
X0141201Y0116889D02*
X0143701Y0119389D01*
X0161201Y0119389D01*
X0176201Y0136889D01*
X0201201Y0136889D01*
X0216339Y0136889D01*
X0216378Y0136928D01*
X0223184Y0137073D02*
X0226801Y0137073D01*
X0226801Y0137671D02*
X0223184Y0137671D01*
X0223184Y0138270D02*
X0226801Y0138270D01*
X0226801Y0138868D02*
X0223184Y0138868D01*
X0223184Y0139467D02*
X0226801Y0139467D01*
X0226801Y0140065D02*
X0222781Y0140065D01*
X0222656Y0141540D02*
X0223184Y0142067D01*
X0223184Y0147537D01*
X0222656Y0148064D01*
X0210100Y0148064D01*
X0209573Y0147537D01*
X0209573Y0142067D01*
X0210100Y0141540D01*
X0222656Y0141540D01*
X0222977Y0141861D02*
X0226801Y0141861D01*
X0226801Y0142459D02*
X0223184Y0142459D01*
X0223184Y0143058D02*
X0226801Y0143058D01*
X0226801Y0143656D02*
X0223184Y0143656D01*
X0223184Y0144255D02*
X0226801Y0144255D01*
X0226801Y0144853D02*
X0223184Y0144853D01*
X0223184Y0145452D02*
X0226801Y0145452D01*
X0226801Y0146050D02*
X0223184Y0146050D01*
X0223184Y0146649D02*
X0226801Y0146649D01*
X0226801Y0147247D02*
X0223184Y0147247D01*
X0222875Y0147846D02*
X0226801Y0147846D01*
X0226801Y0148444D02*
X0202401Y0148444D01*
X0202401Y0147846D02*
X0209881Y0147846D01*
X0209573Y0147247D02*
X0202401Y0147247D01*
X0202401Y0146649D02*
X0209573Y0146649D01*
X0209573Y0146050D02*
X0202401Y0146050D01*
X0202401Y0145452D02*
X0209573Y0145452D01*
X0209573Y0144853D02*
X0202401Y0144853D01*
X0202401Y0144255D02*
X0209573Y0144255D01*
X0209573Y0143656D02*
X0202401Y0143656D01*
X0202401Y0143058D02*
X0209573Y0143058D01*
X0209573Y0142459D02*
X0202401Y0142459D01*
X0202401Y0141861D02*
X0209779Y0141861D01*
X0209975Y0140065D02*
X0202401Y0140065D01*
X0202401Y0139467D02*
X0209573Y0139467D01*
X0209573Y0138868D02*
X0202401Y0138868D01*
X0202401Y0138270D02*
X0209573Y0138270D01*
X0209573Y0135277D02*
X0176400Y0135277D01*
X0175887Y0134678D02*
X0209573Y0134678D01*
X0209686Y0134080D02*
X0175374Y0134080D01*
X0174861Y0133481D02*
X0226801Y0133481D01*
X0226801Y0132883D02*
X0174348Y0132883D01*
X0173835Y0132284D02*
X0210068Y0132284D01*
X0210100Y0132316D02*
X0209573Y0131789D01*
X0209573Y0126319D01*
X0210100Y0125792D01*
X0222656Y0125792D01*
X0223184Y0126319D01*
X0223184Y0131789D01*
X0222656Y0132316D01*
X0210100Y0132316D01*
X0209573Y0131686D02*
X0173322Y0131686D01*
X0172809Y0131087D02*
X0209573Y0131087D01*
X0209573Y0130489D02*
X0172296Y0130489D01*
X0171783Y0129890D02*
X0209573Y0129890D01*
X0209573Y0129292D02*
X0171270Y0129292D01*
X0170757Y0128693D02*
X0209573Y0128693D01*
X0209573Y0128095D02*
X0170244Y0128095D01*
X0169731Y0127496D02*
X0209573Y0127496D01*
X0209573Y0126898D02*
X0169218Y0126898D01*
X0168705Y0126299D02*
X0209592Y0126299D01*
X0201201Y0136889D02*
X0201201Y0176889D01*
X0208484Y0184172D01*
X0216378Y0184172D01*
X0223184Y0184355D02*
X0226801Y0184355D01*
X0226801Y0184953D02*
X0223184Y0184953D01*
X0223184Y0185552D02*
X0226801Y0185552D01*
X0226801Y0186150D02*
X0223184Y0186150D01*
X0223184Y0186749D02*
X0226801Y0186749D01*
X0226801Y0187347D02*
X0222743Y0187347D01*
X0223184Y0183756D02*
X0226801Y0183756D01*
X0226801Y0183158D02*
X0223184Y0183158D01*
X0223184Y0182559D02*
X0226801Y0182559D01*
X0226801Y0181961D02*
X0223184Y0181961D01*
X0223109Y0181362D02*
X0226801Y0181362D01*
X0226801Y0180764D02*
X0206773Y0180764D01*
X0207372Y0181362D02*
X0209647Y0181362D01*
X0209573Y0181961D02*
X0207970Y0181961D01*
X0208569Y0182559D02*
X0209573Y0182559D01*
X0210100Y0179560D02*
X0209573Y0179033D01*
X0209573Y0173563D01*
X0210100Y0173036D01*
X0222656Y0173036D01*
X0223184Y0173563D01*
X0223184Y0179033D01*
X0222656Y0179560D01*
X0210100Y0179560D01*
X0209573Y0178968D02*
X0204978Y0178968D01*
X0205576Y0179567D02*
X0226801Y0179567D01*
X0226801Y0180165D02*
X0206175Y0180165D01*
X0204576Y0181961D02*
X0159017Y0181961D01*
X0159017Y0182559D02*
X0205175Y0182559D01*
X0205773Y0183158D02*
X0159017Y0183158D01*
X0159017Y0183756D02*
X0206372Y0183756D01*
X0206970Y0184355D02*
X0152111Y0184355D01*
X0152111Y0184953D02*
X0151511Y0184953D01*
X0151511Y0184355D02*
X0135432Y0184355D01*
X0133833Y0182559D02*
X0127227Y0182559D01*
X0127826Y0181961D02*
X0134432Y0181961D01*
X0135030Y0181362D02*
X0128424Y0181362D01*
X0129023Y0180764D02*
X0135629Y0180764D01*
X0136227Y0180165D02*
X0129621Y0180165D01*
X0130220Y0179567D02*
X0136826Y0179567D01*
X0137424Y0178968D02*
X0130818Y0178968D01*
X0131417Y0178370D02*
X0138023Y0178370D01*
X0138621Y0177771D02*
X0132015Y0177771D01*
X0132614Y0177173D02*
X0139220Y0177173D01*
X0139818Y0176574D02*
X0133212Y0176574D01*
X0133811Y0175976D02*
X0140001Y0175976D01*
X0140001Y0175377D02*
X0134409Y0175377D01*
X0134901Y0174779D02*
X0140001Y0174779D01*
X0140001Y0174180D02*
X0134901Y0174180D01*
X0134901Y0173582D02*
X0140001Y0173582D01*
X0140001Y0172983D02*
X0134901Y0172983D01*
X0134901Y0172385D02*
X0140001Y0172385D01*
X0140001Y0171786D02*
X0134901Y0171786D01*
X0134901Y0171188D02*
X0140001Y0171188D01*
X0140001Y0170589D02*
X0134901Y0170589D01*
X0134901Y0169991D02*
X0140001Y0169991D01*
X0140001Y0169392D02*
X0134901Y0169392D01*
X0134901Y0168794D02*
X0140001Y0168794D01*
X0140001Y0168195D02*
X0134901Y0168195D01*
X0134901Y0167597D02*
X0140001Y0167597D01*
X0140001Y0166998D02*
X0134901Y0166998D01*
X0134901Y0166400D02*
X0140001Y0166400D01*
X0140001Y0165801D02*
X0134901Y0165801D01*
X0134901Y0165203D02*
X0140001Y0165203D01*
X0140001Y0164604D02*
X0134901Y0164604D01*
X0134962Y0164006D02*
X0140001Y0164006D01*
X0140001Y0163407D02*
X0135561Y0163407D01*
X0136090Y0162809D02*
X0140001Y0162809D01*
X0140001Y0162210D02*
X0136090Y0162210D01*
X0136090Y0161611D02*
X0140001Y0161611D01*
X0140001Y0161013D02*
X0136090Y0161013D01*
X0135605Y0160414D02*
X0140001Y0160414D01*
X0140001Y0159816D02*
X0135007Y0159816D01*
X0138954Y0158020D02*
X0127401Y0158020D01*
X0127401Y0157422D02*
X0138812Y0157422D01*
X0138812Y0156823D02*
X0127401Y0156823D01*
X0127401Y0156225D02*
X0138812Y0156225D01*
X0139085Y0155626D02*
X0127401Y0155626D01*
X0127401Y0155028D02*
X0139683Y0155028D01*
X0141201Y0156889D02*
X0141201Y0176889D01*
X0128701Y0189389D01*
X0088701Y0189389D01*
X0083205Y0191537D02*
X0071697Y0191537D01*
X0071945Y0190939D02*
X0082957Y0190939D01*
X0082801Y0190340D02*
X0072101Y0190340D01*
X0072101Y0189742D02*
X0082801Y0189742D01*
X0082801Y0189143D02*
X0072101Y0189143D01*
X0072101Y0188545D02*
X0082801Y0188545D01*
X0082912Y0187946D02*
X0071989Y0187946D01*
X0071741Y0187347D02*
X0083160Y0187347D01*
X0083408Y0186749D02*
X0071494Y0186749D01*
X0071246Y0186150D02*
X0083656Y0186150D01*
X0084194Y0185552D02*
X0070708Y0185552D01*
X0070110Y0184953D02*
X0084792Y0184953D01*
X0085436Y0184355D02*
X0069466Y0184355D01*
X0068021Y0183756D02*
X0086881Y0183756D01*
X0090521Y0183756D02*
X0096372Y0183756D01*
X0096970Y0184355D02*
X0091966Y0184355D01*
X0092610Y0184953D02*
X0097569Y0184953D01*
X0098167Y0185552D02*
X0093208Y0185552D01*
X0093746Y0186150D02*
X0130242Y0186150D01*
X0130841Y0185552D02*
X0124235Y0185552D01*
X0124833Y0184953D02*
X0131439Y0184953D01*
X0132038Y0184355D02*
X0125432Y0184355D01*
X0126030Y0183756D02*
X0132636Y0183756D01*
X0133235Y0183158D02*
X0126629Y0183158D01*
X0125030Y0181362D02*
X0097372Y0181362D01*
X0096773Y0180764D02*
X0125629Y0180764D01*
X0126227Y0180165D02*
X0119621Y0180165D01*
X0120220Y0179567D02*
X0126826Y0179567D01*
X0127424Y0178968D02*
X0120818Y0178968D01*
X0121417Y0178370D02*
X0128023Y0178370D01*
X0124432Y0181961D02*
X0097970Y0181961D01*
X0098569Y0182559D02*
X0123833Y0182559D01*
X0123235Y0183158D02*
X0099167Y0183158D01*
X0100281Y0180165D02*
X0096175Y0180165D01*
X0095576Y0179567D02*
X0099682Y0179567D01*
X0099084Y0178968D02*
X0094978Y0178968D01*
X0094379Y0178370D02*
X0098485Y0178370D01*
X0098887Y0175377D02*
X0102992Y0175377D01*
X0102394Y0174779D02*
X0098288Y0174779D01*
X0097690Y0174180D02*
X0101795Y0174180D01*
X0101197Y0173582D02*
X0097091Y0173582D01*
X0098701Y0169389D02*
X0103701Y0174389D01*
X0100401Y0169392D02*
X0117000Y0169392D01*
X0117501Y0168794D02*
X0099803Y0168794D01*
X0099204Y0168195D02*
X0117501Y0168195D01*
X0117501Y0167597D02*
X0058606Y0167597D01*
X0057606Y0169991D02*
X0048802Y0169991D01*
X0054818Y0176574D02*
X0032101Y0176574D01*
X0032101Y0175976D02*
X0055417Y0175976D01*
X0056015Y0175377D02*
X0032101Y0175377D01*
X0032101Y0174779D02*
X0056614Y0174779D01*
X0057212Y0174180D02*
X0032101Y0174180D01*
X0032101Y0173582D02*
X0057811Y0173582D01*
X0058701Y0174389D02*
X0043701Y0189389D01*
X0048101Y0193333D02*
X0061801Y0193333D01*
X0062399Y0193931D02*
X0047502Y0193931D01*
X0046707Y0194530D02*
X0063195Y0194530D01*
X0064640Y0195128D02*
X0045262Y0195128D01*
X0042140Y0195128D02*
X0032101Y0195128D01*
X0032101Y0194530D02*
X0040695Y0194530D01*
X0039899Y0193931D02*
X0032101Y0193931D01*
X0032101Y0193333D02*
X0039301Y0193333D01*
X0038702Y0192734D02*
X0032101Y0192734D01*
X0032101Y0192136D02*
X0038453Y0192136D01*
X0038205Y0191537D02*
X0032101Y0191537D01*
X0032101Y0190939D02*
X0037957Y0190939D01*
X0037801Y0190340D02*
X0032101Y0190340D01*
X0032101Y0189742D02*
X0037801Y0189742D01*
X0037801Y0189143D02*
X0032101Y0189143D01*
X0032101Y0188545D02*
X0037801Y0188545D01*
X0037912Y0187946D02*
X0032101Y0187946D01*
X0032101Y0187347D02*
X0038160Y0187347D01*
X0038408Y0186749D02*
X0032101Y0186749D01*
X0032101Y0186150D02*
X0038656Y0186150D01*
X0039194Y0185552D02*
X0032101Y0185552D01*
X0032101Y0184953D02*
X0039792Y0184953D01*
X0040436Y0184355D02*
X0032101Y0184355D01*
X0032101Y0183756D02*
X0041881Y0183756D01*
X0045521Y0183756D02*
X0047636Y0183756D01*
X0048235Y0183158D02*
X0032101Y0183158D01*
X0032101Y0182559D02*
X0048833Y0182559D01*
X0049432Y0181961D02*
X0032101Y0181961D01*
X0032101Y0181362D02*
X0050030Y0181362D01*
X0050629Y0180764D02*
X0032101Y0180764D01*
X0032101Y0180165D02*
X0051227Y0180165D01*
X0051826Y0179567D02*
X0032101Y0179567D01*
X0032101Y0178968D02*
X0052424Y0178968D01*
X0053023Y0178370D02*
X0032101Y0178370D01*
X0032101Y0177771D02*
X0053621Y0177771D01*
X0054220Y0177173D02*
X0032101Y0177173D01*
X0046966Y0184355D02*
X0047038Y0184355D01*
X0048949Y0192136D02*
X0060953Y0192136D01*
X0061202Y0192734D02*
X0048699Y0192734D01*
X0032101Y0195727D02*
X0159966Y0195727D01*
X0159966Y0196325D02*
X0032101Y0196325D01*
X0032101Y0196924D02*
X0159966Y0196924D01*
X0159966Y0197522D02*
X0032101Y0197522D01*
X0032101Y0198121D02*
X0159966Y0198121D01*
X0159967Y0198719D02*
X0032101Y0198719D01*
X0067762Y0195128D02*
X0087140Y0195128D01*
X0085695Y0194530D02*
X0069207Y0194530D01*
X0070002Y0193931D02*
X0084899Y0193931D01*
X0084301Y0193333D02*
X0070601Y0193333D01*
X0071199Y0192734D02*
X0083702Y0192734D01*
X0083453Y0192136D02*
X0071449Y0192136D01*
X0067401Y0183158D02*
X0095773Y0183158D01*
X0095175Y0182559D02*
X0067401Y0182559D01*
X0067826Y0181961D02*
X0094576Y0181961D01*
X0093978Y0181362D02*
X0068424Y0181362D01*
X0069023Y0180764D02*
X0093379Y0180764D01*
X0093994Y0186749D02*
X0129643Y0186749D01*
X0129045Y0187347D02*
X0094241Y0187347D01*
X0094489Y0187946D02*
X0128446Y0187946D01*
X0130045Y0189742D02*
X0159966Y0189742D01*
X0159966Y0190340D02*
X0129447Y0190340D01*
X0130644Y0189143D02*
X0159966Y0189143D01*
X0159966Y0188545D02*
X0131242Y0188545D01*
X0139621Y0180165D02*
X0202781Y0180165D01*
X0203379Y0180764D02*
X0158505Y0180764D01*
X0158943Y0181362D02*
X0203978Y0181362D01*
X0202182Y0179567D02*
X0140220Y0179567D01*
X0142401Y0172983D02*
X0200001Y0172983D01*
X0200001Y0172385D02*
X0142401Y0172385D01*
X0142401Y0170589D02*
X0145006Y0170589D01*
X0145006Y0169991D02*
X0142401Y0169991D01*
X0142401Y0169392D02*
X0145006Y0169392D01*
X0145006Y0168794D02*
X0142401Y0168794D01*
X0142401Y0168195D02*
X0145006Y0168195D01*
X0145006Y0167597D02*
X0142401Y0167597D01*
X0142401Y0166998D02*
X0145006Y0166998D01*
X0145006Y0166400D02*
X0142401Y0166400D01*
X0142401Y0165801D02*
X0145006Y0165801D01*
X0145492Y0165203D02*
X0142401Y0165203D01*
X0142401Y0164604D02*
X0200001Y0164604D01*
X0200001Y0164006D02*
X0142401Y0164006D01*
X0142401Y0163407D02*
X0145128Y0163407D01*
X0145006Y0162809D02*
X0142401Y0162809D01*
X0142401Y0162210D02*
X0145006Y0162210D01*
X0145006Y0161611D02*
X0142401Y0161611D01*
X0142401Y0161013D02*
X0145006Y0161013D01*
X0145006Y0160414D02*
X0142401Y0160414D01*
X0142401Y0159816D02*
X0145006Y0159816D01*
X0145006Y0159217D02*
X0142401Y0159217D01*
X0142849Y0158619D02*
X0145006Y0158619D01*
X0145006Y0158020D02*
X0143448Y0158020D01*
X0143590Y0157422D02*
X0145399Y0157422D01*
X0145221Y0155626D02*
X0143317Y0155626D01*
X0142719Y0155028D02*
X0145006Y0155028D01*
X0145006Y0154429D02*
X0127401Y0154429D01*
X0126211Y0152676D02*
X0151811Y0152676D01*
X0158617Y0147247D02*
X0200001Y0147247D01*
X0200001Y0146649D02*
X0158617Y0146649D01*
X0158617Y0146050D02*
X0200001Y0146050D01*
X0200001Y0145452D02*
X0158617Y0145452D01*
X0171187Y0132883D02*
X0144404Y0132883D01*
X0145002Y0132284D02*
X0145501Y0132284D01*
X0142039Y0125102D02*
X0164518Y0125102D01*
X0164005Y0124504D02*
X0142039Y0124504D01*
X0142039Y0123905D02*
X0163492Y0123905D01*
X0162979Y0123307D02*
X0142039Y0123307D01*
X0142039Y0122708D02*
X0162466Y0122708D01*
X0161953Y0122110D02*
X0142039Y0122110D01*
X0142039Y0121511D02*
X0161440Y0121511D01*
X0160927Y0120913D02*
X0142008Y0120913D01*
X0143929Y0117920D02*
X0226801Y0117920D01*
X0226801Y0117322D02*
X0143331Y0117322D01*
X0137034Y0118519D02*
X0130979Y0118519D01*
X0131645Y0119117D02*
X0136156Y0119117D01*
X0135566Y0119716D02*
X0132072Y0119716D01*
X0132350Y0120314D02*
X0135318Y0120314D01*
X0135070Y0120913D02*
X0132519Y0120913D01*
X0132596Y0121511D02*
X0135039Y0121511D01*
X0135039Y0122110D02*
X0132596Y0122110D01*
X0132596Y0122708D02*
X0135039Y0122708D01*
X0135039Y0123307D02*
X0132596Y0123307D01*
X0132596Y0123905D02*
X0135039Y0123905D01*
X0134589Y0131686D02*
X0124901Y0131686D01*
X0124901Y0132284D02*
X0134028Y0132284D01*
X0133467Y0132883D02*
X0124404Y0132883D01*
X0122501Y0129890D02*
X0120741Y0129890D01*
X0121395Y0129292D02*
X0122501Y0129292D01*
X0122501Y0128693D02*
X0121892Y0128693D01*
X0121010Y0132883D02*
X0100263Y0132883D01*
X0100569Y0133481D02*
X0120411Y0133481D01*
X0119812Y0134080D02*
X0100569Y0134080D01*
X0100569Y0134678D02*
X0119214Y0134678D01*
X0118615Y0135277D02*
X0100569Y0135277D01*
X0100569Y0135876D02*
X0118017Y0135876D01*
X0109463Y0149043D02*
X0200001Y0149043D01*
X0202401Y0149043D02*
X0226801Y0149043D01*
X0226801Y0149641D02*
X0222884Y0149641D01*
X0222656Y0149414D02*
X0223184Y0149941D01*
X0223184Y0155411D01*
X0222656Y0155938D01*
X0210100Y0155938D01*
X0209573Y0155411D01*
X0209573Y0149941D01*
X0210100Y0149414D01*
X0222656Y0149414D01*
X0223184Y0150240D02*
X0226801Y0150240D01*
X0226801Y0150838D02*
X0223184Y0150838D01*
X0223184Y0151437D02*
X0226801Y0151437D01*
X0226801Y0152035D02*
X0223184Y0152035D01*
X0223184Y0152634D02*
X0226801Y0152634D01*
X0226801Y0153232D02*
X0223184Y0153232D01*
X0223184Y0153831D02*
X0226801Y0153831D01*
X0226801Y0154429D02*
X0223184Y0154429D01*
X0223184Y0155028D02*
X0226801Y0155028D01*
X0226801Y0155626D02*
X0222968Y0155626D01*
X0222656Y0157288D02*
X0223184Y0157815D01*
X0223184Y0163285D01*
X0222656Y0163812D01*
X0210100Y0163812D01*
X0209573Y0163285D01*
X0209573Y0157815D01*
X0210100Y0157288D01*
X0222656Y0157288D01*
X0222790Y0157422D02*
X0226801Y0157422D01*
X0226801Y0158020D02*
X0223184Y0158020D01*
X0223184Y0158619D02*
X0226801Y0158619D01*
X0226801Y0159217D02*
X0223184Y0159217D01*
X0223184Y0159816D02*
X0226801Y0159816D01*
X0226801Y0160414D02*
X0223184Y0160414D01*
X0223184Y0161013D02*
X0226801Y0161013D01*
X0226801Y0161611D02*
X0223184Y0161611D01*
X0223184Y0162210D02*
X0226801Y0162210D01*
X0226801Y0162809D02*
X0223184Y0162809D01*
X0223062Y0163407D02*
X0226801Y0163407D01*
X0226801Y0164006D02*
X0202401Y0164006D01*
X0202401Y0164604D02*
X0226801Y0164604D01*
X0226801Y0165203D02*
X0222697Y0165203D01*
X0222656Y0165162D02*
X0223184Y0165689D01*
X0223184Y0171159D01*
X0222656Y0171686D01*
X0210100Y0171686D01*
X0209573Y0171159D01*
X0209573Y0165689D01*
X0210100Y0165162D01*
X0222656Y0165162D01*
X0223184Y0165801D02*
X0226801Y0165801D01*
X0226801Y0166400D02*
X0223184Y0166400D01*
X0223184Y0166998D02*
X0226801Y0166998D01*
X0226801Y0167597D02*
X0223184Y0167597D01*
X0223184Y0168195D02*
X0226801Y0168195D01*
X0226801Y0168794D02*
X0223184Y0168794D01*
X0223184Y0169392D02*
X0226801Y0169392D01*
X0226801Y0169991D02*
X0223184Y0169991D01*
X0223184Y0170589D02*
X0226801Y0170589D01*
X0226801Y0171188D02*
X0223155Y0171188D01*
X0223184Y0173582D02*
X0226801Y0173582D01*
X0226801Y0174180D02*
X0223184Y0174180D01*
X0223184Y0174779D02*
X0226801Y0174779D01*
X0226801Y0175377D02*
X0223184Y0175377D01*
X0223184Y0175976D02*
X0226801Y0175976D01*
X0226801Y0176574D02*
X0223184Y0176574D01*
X0223184Y0177173D02*
X0226801Y0177173D01*
X0226801Y0177771D02*
X0223184Y0177771D01*
X0223184Y0178370D02*
X0226801Y0178370D01*
X0226801Y0178968D02*
X0223184Y0178968D01*
X0226801Y0172983D02*
X0202401Y0172983D01*
X0202401Y0172385D02*
X0226801Y0172385D01*
X0226801Y0171786D02*
X0202401Y0171786D01*
X0202401Y0171188D02*
X0209601Y0171188D01*
X0209573Y0170589D02*
X0202401Y0170589D01*
X0202401Y0169991D02*
X0209573Y0169991D01*
X0209573Y0169392D02*
X0202401Y0169392D01*
X0202401Y0168794D02*
X0209573Y0168794D01*
X0209573Y0168195D02*
X0202401Y0168195D01*
X0202401Y0167597D02*
X0209573Y0167597D01*
X0209573Y0166998D02*
X0202401Y0166998D01*
X0202401Y0166400D02*
X0209573Y0166400D01*
X0209573Y0165801D02*
X0202401Y0165801D01*
X0202401Y0165203D02*
X0210059Y0165203D01*
X0209695Y0163407D02*
X0202401Y0163407D01*
X0202401Y0162809D02*
X0209573Y0162809D01*
X0209573Y0162210D02*
X0202401Y0162210D01*
X0202401Y0161611D02*
X0209573Y0161611D01*
X0209573Y0161013D02*
X0202401Y0161013D01*
X0202401Y0160414D02*
X0209573Y0160414D01*
X0209573Y0159816D02*
X0202401Y0159816D01*
X0202401Y0159217D02*
X0209573Y0159217D01*
X0209573Y0158619D02*
X0202401Y0158619D01*
X0202401Y0158020D02*
X0209573Y0158020D01*
X0209966Y0157422D02*
X0202401Y0157422D01*
X0202401Y0156823D02*
X0226801Y0156823D01*
X0226801Y0156225D02*
X0202401Y0156225D01*
X0202401Y0155626D02*
X0209788Y0155626D01*
X0209573Y0155028D02*
X0202401Y0155028D01*
X0202401Y0154429D02*
X0209573Y0154429D01*
X0209573Y0153831D02*
X0202401Y0153831D01*
X0202401Y0153232D02*
X0209573Y0153232D01*
X0209573Y0152634D02*
X0202401Y0152634D01*
X0202401Y0152035D02*
X0209573Y0152035D01*
X0209573Y0151437D02*
X0202401Y0151437D01*
X0202401Y0150838D02*
X0209573Y0150838D01*
X0209573Y0150240D02*
X0202401Y0150240D01*
X0202401Y0149641D02*
X0209872Y0149641D01*
X0202401Y0141262D02*
X0226801Y0141262D01*
X0226801Y0140664D02*
X0202401Y0140664D01*
X0223184Y0136474D02*
X0226801Y0136474D01*
X0226801Y0135876D02*
X0223184Y0135876D01*
X0223184Y0135277D02*
X0226801Y0135277D01*
X0226801Y0134678D02*
X0223184Y0134678D01*
X0223070Y0134080D02*
X0226801Y0134080D01*
X0226801Y0132284D02*
X0222688Y0132284D01*
X0223184Y0131686D02*
X0226801Y0131686D01*
X0226801Y0131087D02*
X0223184Y0131087D01*
X0223184Y0130489D02*
X0226801Y0130489D01*
X0226801Y0129890D02*
X0223184Y0129890D01*
X0223184Y0129292D02*
X0226801Y0129292D01*
X0226801Y0128693D02*
X0223184Y0128693D01*
X0223184Y0128095D02*
X0226801Y0128095D01*
X0226801Y0127496D02*
X0223184Y0127496D01*
X0223184Y0126898D02*
X0226801Y0126898D01*
X0226801Y0126299D02*
X0223164Y0126299D01*
X0226801Y0125701D02*
X0168192Y0125701D01*
X0167679Y0125102D02*
X0226801Y0125102D01*
X0226801Y0124504D02*
X0167166Y0124504D01*
X0166653Y0123905D02*
X0226801Y0123905D01*
X0226801Y0123307D02*
X0166140Y0123307D01*
X0165627Y0122708D02*
X0226801Y0122708D01*
X0226801Y0122110D02*
X0165114Y0122110D01*
X0164601Y0121511D02*
X0226801Y0121511D01*
X0226801Y0120913D02*
X0164088Y0120913D01*
X0163575Y0120314D02*
X0226801Y0120314D01*
X0226801Y0119716D02*
X0163062Y0119716D01*
X0162549Y0119117D02*
X0226801Y0119117D01*
X0226801Y0118519D02*
X0162036Y0118519D01*
X0147339Y0109541D02*
X0226801Y0109541D01*
X0226801Y0108942D02*
X0147339Y0108942D01*
X0147339Y0108344D02*
X0226801Y0108344D01*
X0226801Y0107745D02*
X0147339Y0107745D01*
X0147312Y0107147D02*
X0226801Y0107147D01*
X0226801Y0106548D02*
X0147193Y0106548D01*
X0146952Y0105950D02*
X0226801Y0105950D01*
X0226801Y0105351D02*
X0146592Y0105351D01*
X0146062Y0104753D02*
X0226801Y0104753D01*
X0226801Y0094578D02*
X0147339Y0094578D01*
X0147339Y0093980D02*
X0226801Y0093980D01*
X0226801Y0093381D02*
X0147339Y0093381D01*
X0147302Y0092783D02*
X0226801Y0092783D01*
X0226801Y0092184D02*
X0147153Y0092184D01*
X0146876Y0091586D02*
X0226801Y0091586D01*
X0226801Y0090987D02*
X0149679Y0090987D01*
X0141486Y0104154D02*
X0139982Y0104154D01*
X0140581Y0104753D02*
X0140670Y0104753D01*
X0139393Y0108942D02*
X0136005Y0108942D01*
X0136005Y0108344D02*
X0137215Y0108344D01*
X0136574Y0107745D02*
X0136005Y0107745D01*
X0135835Y0107147D02*
X0136251Y0107147D01*
X0136069Y0106548D02*
X0135093Y0106548D01*
X0136005Y0109541D02*
X0139393Y0109541D01*
X0122246Y0113731D02*
X0122056Y0113731D01*
X0111527Y0116125D02*
X0109636Y0116125D01*
X0109041Y0115526D02*
X0110930Y0115526D01*
X0110530Y0114928D02*
X0108445Y0114928D01*
X0107851Y0114329D02*
X0110276Y0114329D01*
X0097985Y0108344D02*
X0097385Y0108344D01*
X0097385Y0107745D02*
X0097985Y0107745D01*
X0097985Y0107147D02*
X0097385Y0107147D01*
X0097385Y0106548D02*
X0097985Y0106548D01*
X0097985Y0105950D02*
X0097385Y0105950D01*
X0097385Y0105351D02*
X0097985Y0105351D01*
X0097985Y0104753D02*
X0097385Y0104753D01*
X0097385Y0102957D02*
X0097985Y0102957D01*
X0097985Y0102359D02*
X0097385Y0102359D01*
X0097385Y0101760D02*
X0097985Y0101760D01*
X0097985Y0101162D02*
X0097385Y0101162D01*
X0097385Y0100563D02*
X0097985Y0100563D01*
X0097985Y0099965D02*
X0097385Y0099965D01*
X0094832Y0135277D02*
X0082101Y0135277D01*
X0082101Y0135876D02*
X0094832Y0135876D01*
X0094832Y0138868D02*
X0077551Y0138868D01*
X0075535Y0139467D02*
X0094832Y0139467D01*
X0094832Y0140065D02*
X0075081Y0140065D01*
X0074628Y0140664D02*
X0094832Y0140664D01*
X0089376Y0150838D02*
X0089348Y0150838D01*
X0080878Y0137499D02*
X0080591Y0137499D01*
X0109463Y0159217D02*
X0112175Y0159217D01*
X0111577Y0159816D02*
X0109463Y0159816D01*
X0109463Y0160414D02*
X0110978Y0160414D01*
X0110379Y0161013D02*
X0109463Y0161013D01*
X0127401Y0159217D02*
X0140001Y0159217D01*
X0139553Y0158619D02*
X0127401Y0158619D01*
X0151511Y0180764D02*
X0152111Y0180764D01*
X0152111Y0181362D02*
X0151511Y0181362D01*
X0151511Y0181961D02*
X0152111Y0181961D01*
X0152111Y0182559D02*
X0151511Y0182559D01*
X0151511Y0183158D02*
X0152111Y0183158D01*
X0152111Y0183756D02*
X0151511Y0183756D01*
X0151511Y0185552D02*
X0152111Y0185552D01*
X0152111Y0186150D02*
X0151511Y0186150D01*
X0151511Y0186749D02*
X0152111Y0186749D01*
X0152111Y0187347D02*
X0151511Y0187347D01*
X0159017Y0184953D02*
X0207569Y0184953D01*
X0209573Y0178370D02*
X0204379Y0178370D01*
X0203781Y0177771D02*
X0209573Y0177771D01*
X0209573Y0177173D02*
X0203182Y0177173D01*
X0202584Y0176574D02*
X0209573Y0176574D01*
X0209573Y0175976D02*
X0202401Y0175976D01*
X0202401Y0175377D02*
X0209573Y0175377D01*
X0209573Y0174779D02*
X0202401Y0174779D01*
X0202401Y0174180D02*
X0209573Y0174180D01*
X0209573Y0173582D02*
X0202401Y0173582D01*
X0200001Y0173582D02*
X0158617Y0173582D01*
X0158617Y0174180D02*
X0200001Y0174180D01*
X0200001Y0174779D02*
X0158617Y0174779D01*
X0158617Y0175377D02*
X0200001Y0175377D01*
X0200001Y0175976D02*
X0158617Y0175976D01*
X0158617Y0176574D02*
X0200001Y0176574D01*
X0200001Y0177173D02*
X0158617Y0177173D01*
X0158617Y0177771D02*
X0200386Y0177771D01*
X0200985Y0178370D02*
X0158617Y0178370D01*
X0158617Y0178968D02*
X0201584Y0178968D01*
X0199347Y0186150D02*
X0197976Y0186150D01*
X0197987Y0186162D02*
X0197987Y0198718D01*
X0197459Y0199245D01*
X0191989Y0199245D01*
X0191462Y0198718D01*
X0191462Y0186162D01*
X0191989Y0185634D01*
X0197459Y0185634D01*
X0197987Y0186162D01*
X0197987Y0186749D02*
X0199336Y0186749D01*
X0199336Y0187347D02*
X0197987Y0187347D01*
X0197987Y0187946D02*
X0199336Y0187946D01*
X0199336Y0188545D02*
X0197987Y0188545D01*
X0197987Y0189143D02*
X0199336Y0189143D01*
X0199336Y0189742D02*
X0197987Y0189742D01*
X0197987Y0190340D02*
X0199336Y0190340D01*
X0199336Y0190939D02*
X0197987Y0190939D01*
X0197987Y0191537D02*
X0199336Y0191537D01*
X0199336Y0192136D02*
X0197987Y0192136D01*
X0197987Y0192734D02*
X0199336Y0192734D01*
X0199336Y0193333D02*
X0197987Y0193333D01*
X0197987Y0193931D02*
X0199336Y0193931D01*
X0199336Y0194530D02*
X0197987Y0194530D01*
X0197987Y0195128D02*
X0199336Y0195128D01*
X0199336Y0195727D02*
X0197987Y0195727D01*
X0197987Y0196325D02*
X0199336Y0196325D01*
X0199336Y0196924D02*
X0197987Y0196924D01*
X0197987Y0197522D02*
X0199336Y0197522D01*
X0199336Y0198121D02*
X0197987Y0198121D01*
X0197986Y0198719D02*
X0199337Y0198719D01*
X0191463Y0198719D02*
X0190112Y0198719D01*
X0190113Y0198718D02*
X0189585Y0199245D01*
X0184115Y0199245D01*
X0183588Y0198718D01*
X0183588Y0186162D01*
X0184115Y0185634D01*
X0189585Y0185634D01*
X0190113Y0186162D01*
X0190113Y0198718D01*
X0190113Y0198121D02*
X0191462Y0198121D01*
X0191462Y0197522D02*
X0190113Y0197522D01*
X0190113Y0196924D02*
X0191462Y0196924D01*
X0191462Y0196325D02*
X0190113Y0196325D01*
X0190113Y0195727D02*
X0191462Y0195727D01*
X0191462Y0195128D02*
X0190113Y0195128D01*
X0190113Y0194530D02*
X0191462Y0194530D01*
X0191462Y0193931D02*
X0190113Y0193931D01*
X0190113Y0193333D02*
X0191462Y0193333D01*
X0191462Y0192734D02*
X0190113Y0192734D01*
X0190113Y0192136D02*
X0191462Y0192136D01*
X0191462Y0191537D02*
X0190113Y0191537D01*
X0190113Y0190939D02*
X0191462Y0190939D01*
X0191462Y0190340D02*
X0190113Y0190340D01*
X0190113Y0189742D02*
X0191462Y0189742D01*
X0191462Y0189143D02*
X0190113Y0189143D01*
X0190113Y0188545D02*
X0191462Y0188545D01*
X0191462Y0187946D02*
X0190113Y0187946D01*
X0190113Y0187347D02*
X0191462Y0187347D01*
X0191462Y0186749D02*
X0190113Y0186749D01*
X0190102Y0186150D02*
X0191473Y0186150D01*
X0183599Y0186150D02*
X0182228Y0186150D01*
X0182239Y0186162D02*
X0182239Y0198718D01*
X0181711Y0199245D01*
X0176241Y0199245D01*
X0175714Y0198718D01*
X0175714Y0186162D01*
X0176241Y0185634D01*
X0181711Y0185634D01*
X0182239Y0186162D01*
X0182239Y0186749D02*
X0183588Y0186749D01*
X0183588Y0187347D02*
X0182239Y0187347D01*
X0182239Y0187946D02*
X0183588Y0187946D01*
X0183588Y0188545D02*
X0182239Y0188545D01*
X0182239Y0189143D02*
X0183588Y0189143D01*
X0183588Y0189742D02*
X0182239Y0189742D01*
X0182239Y0190340D02*
X0183588Y0190340D01*
X0183588Y0190939D02*
X0182239Y0190939D01*
X0182239Y0191537D02*
X0183588Y0191537D01*
X0183588Y0192136D02*
X0182239Y0192136D01*
X0182239Y0192734D02*
X0183588Y0192734D01*
X0183588Y0193333D02*
X0182239Y0193333D01*
X0182239Y0193931D02*
X0183588Y0193931D01*
X0183588Y0194530D02*
X0182239Y0194530D01*
X0182239Y0195128D02*
X0183588Y0195128D01*
X0183588Y0195727D02*
X0182239Y0195727D01*
X0182239Y0196325D02*
X0183588Y0196325D01*
X0183588Y0196924D02*
X0182239Y0196924D01*
X0182239Y0197522D02*
X0183588Y0197522D01*
X0183588Y0198121D02*
X0182239Y0198121D01*
X0182238Y0198719D02*
X0183589Y0198719D01*
X0175715Y0198719D02*
X0174364Y0198719D01*
X0174365Y0198718D02*
X0173837Y0199245D01*
X0168367Y0199245D01*
X0167840Y0198718D01*
X0167840Y0186162D01*
X0168367Y0185634D01*
X0173837Y0185634D01*
X0174365Y0186162D01*
X0174365Y0198718D01*
X0174365Y0198121D02*
X0175714Y0198121D01*
X0175714Y0197522D02*
X0174365Y0197522D01*
X0174365Y0196924D02*
X0175714Y0196924D01*
X0175714Y0196325D02*
X0174365Y0196325D01*
X0174365Y0195727D02*
X0175714Y0195727D01*
X0175714Y0195128D02*
X0174365Y0195128D01*
X0174365Y0194530D02*
X0175714Y0194530D01*
X0175714Y0193931D02*
X0174365Y0193931D01*
X0174365Y0193333D02*
X0175714Y0193333D01*
X0175714Y0192734D02*
X0174365Y0192734D01*
X0174365Y0192136D02*
X0175714Y0192136D01*
X0175714Y0191537D02*
X0174365Y0191537D01*
X0174365Y0190939D02*
X0175714Y0190939D01*
X0175714Y0190340D02*
X0174365Y0190340D01*
X0174365Y0189742D02*
X0175714Y0189742D01*
X0175714Y0189143D02*
X0174365Y0189143D01*
X0174365Y0188545D02*
X0175714Y0188545D01*
X0175714Y0187946D02*
X0174365Y0187946D01*
X0174365Y0187347D02*
X0175714Y0187347D01*
X0175714Y0186749D02*
X0174365Y0186749D01*
X0174354Y0186150D02*
X0175725Y0186150D01*
X0167851Y0186150D02*
X0166480Y0186150D01*
X0166491Y0186749D02*
X0167840Y0186749D01*
X0167840Y0187347D02*
X0166491Y0187347D01*
X0166491Y0187946D02*
X0167840Y0187946D01*
X0167840Y0188545D02*
X0166491Y0188545D01*
X0166491Y0189143D02*
X0167840Y0189143D01*
X0167840Y0189742D02*
X0166491Y0189742D01*
X0166491Y0190340D02*
X0167840Y0190340D01*
X0167840Y0190939D02*
X0166491Y0190939D01*
X0166491Y0191537D02*
X0167840Y0191537D01*
X0167840Y0192136D02*
X0166491Y0192136D01*
X0166491Y0192734D02*
X0167840Y0192734D01*
X0167840Y0193333D02*
X0166491Y0193333D01*
X0166491Y0193931D02*
X0167840Y0193931D01*
X0167840Y0194530D02*
X0166491Y0194530D01*
X0166491Y0195128D02*
X0167840Y0195128D01*
X0167840Y0195727D02*
X0166491Y0195727D01*
X0166491Y0196325D02*
X0167840Y0196325D01*
X0167840Y0196924D02*
X0166491Y0196924D01*
X0166491Y0197522D02*
X0167840Y0197522D01*
X0167840Y0198121D02*
X0166491Y0198121D01*
X0166490Y0198719D02*
X0167841Y0198719D01*
X0159966Y0195128D02*
X0090262Y0195128D01*
X0091707Y0194530D02*
X0159966Y0194530D01*
X0159966Y0193931D02*
X0092502Y0193931D01*
X0093101Y0193333D02*
X0159966Y0193333D01*
X0159966Y0192734D02*
X0093699Y0192734D01*
X0093949Y0192136D02*
X0159966Y0192136D01*
X0159966Y0191537D02*
X0094197Y0191537D01*
X0094445Y0190939D02*
X0159966Y0190939D01*
D25*
X0133701Y0161889D03*
X0141201Y0156889D03*
X0126701Y0144889D03*
X0133701Y0139389D03*
X0141201Y0134389D03*
X0118701Y0161889D03*
X0077701Y0156889D03*
X0051201Y0161889D03*
X0081201Y0106889D03*
M02*
