G75*
%MOIN*%
%OFA0B0*%
%FSLAX25Y25*%
%IPPOS*%
%LPD*%
%AMOC8*
5,1,8,0,0,1.08239X$1,22.5*
%
%ADD10C,0.06000*%
%ADD11C,0.06146*%
%ADD12C,0.04965*%
%ADD13C,0.03950*%
%ADD14R,0.06706X0.06706*%
%ADD15R,0.05524X0.07887*%
%ADD16C,0.03778*%
D10*
X0118854Y0121684D02*
X0118854Y0126884D01*
X0128696Y0126884D02*
X0128696Y0121684D01*
X0138539Y0121684D02*
X0138539Y0126884D01*
D11*
X0143366Y0113023D02*
X0143366Y0107676D01*
X0114036Y0107676D02*
X0114036Y0113023D01*
D12*
X0113445Y0097471D02*
X0113445Y0093306D01*
X0143957Y0093306D02*
X0143957Y0097471D01*
D13*
X0138543Y0106215D03*
X0118858Y0106215D03*
D14*
X0058701Y0107499D03*
X0058701Y0121278D03*
X0058701Y0168499D03*
X0058701Y0182278D03*
X0198701Y0182278D03*
X0198701Y0168499D03*
X0198701Y0121278D03*
X0198701Y0107499D03*
D15*
X0198701Y0128987D03*
X0198701Y0140790D03*
X0198701Y0148987D03*
X0198701Y0160790D03*
X0077701Y0150790D03*
X0077701Y0138987D03*
X0058701Y0140790D03*
X0058701Y0148987D03*
X0058701Y0160790D03*
X0058701Y0128987D03*
D16*
X0081201Y0106889D03*
X0126701Y0144889D03*
X0133701Y0139389D03*
X0141201Y0134389D03*
X0141201Y0156889D03*
X0133701Y0161889D03*
X0118701Y0161889D03*
X0077701Y0156889D03*
X0051201Y0161889D03*
M02*
